<mxfile host="Electron" modified="2024-10-18T09:17:13.002Z" agent="Mozilla/5.0 (Windows NT 10.0; Win64; x64) AppleWebKit/537.36 (KHTML, like Gecko) draw.io/23.1.5 Chrome/120.0.6099.109 Electron/28.1.0 Safari/537.36" etag="UsTcIskfL6pACquHcOuy" version="23.1.5" type="device">
  <diagram name="第 1 页" id="GJkZJ-X3lJh9QlqGHT9N">
    <mxGraphModel dx="1434" dy="844" grid="1" gridSize="10" guides="1" tooltips="1" connect="1" arrows="1" fold="1" page="1" pageScale="1" pageWidth="1169" pageHeight="827" math="0" shadow="0">
      <root>
        <mxCell id="0" />
        <mxCell id="1" parent="0" />
        <mxCell id="9JdjApszrQxgqDDCPQc7-1" value="" style="shape=image;verticalLabelPosition=bottom;labelBackgroundColor=default;verticalAlign=top;aspect=fixed;imageAspect=0;image=data:image/jpeg,/9j/4AAQSkZJRgABAQEAYABgAAD/2wBDAAMCAgMCAgMDAwMEAwMEBQgFBQQEBQoHBwYIDAoMDAsKCwsNDhIQDQ4RDgsLEBYQERMUFRUVDA8XGBYUGBIUFRT/2wBDAQMEBAUEBQkFBQkUDQsNFBQUFBQUFBQUFBQUFBQUFBQUFBQUFBQUFBQUFBQUFBQUFBQUFBQUFBQUFBQUFBQUFBT/wAARCAG8BcYDASIAAhEBAxEB/8QAHwAAAQUBAQEBAQEAAAAAAAAAAAECAwQFBgcICQoL/8QAtRAAAgEDAwIEAwUFBAQAAAF9AQIDAAQRBRIhMUEGE1FhByJxFDKBkaEII0KxwRVS0fAkM2JyggkKFhcYGRolJicoKSo0NTY3ODk6Q0RFRkdISUpTVFVWV1hZWmNkZWZnaGlqc3R1dnd4eXqDhIWGh4iJipKTlJWWl5iZmqKjpKWmp6ipqrKztLW2t7i5usLDxMXGx8jJytLT1NXW19jZ2uHi4+Tl5ufo6erx8vP09fb3+Pn6/8QAHwEAAwEBAQEBAQEBAQAAAAAAAAECAwQFBgcICQoL/8QAtREAAgECBAQDBAcFBAQAAQJ3AAECAxEEBSExBhJBUQdhcRMiMoEIFEKRobHBCSMzUvAVYnLRChYkNOEl8RcYGRomJygpKjU2Nzg5OkNERUZHSElKU1RVVldYWVpjZGVmZ2hpanN0dXZ3eHl6goOEhYaHiImKkpOUlZaXmJmaoqOkpaanqKmqsrO0tba3uLm6wsPExcbHyMnK0tPU1dbX2Nna4uPk5ebn6Onq8vP09fb3+Pn6/9oADAMBAAIRAxEAPwD7A8SSk+G9Ux/z7Sf+gmrPw/fzPBeg8/8ALpH/ACrO8SZ/4RfWD/dtJD+lXPALEeC9BHf7HGR+VfgVPbU/SlqeR/C3P/CwviRIw4/tH9TXXafdra+P9ZuTtUW+jb+fqcVyPw1jX/hPviIR/wBBIcD6c1D8RfESeGYvHl+zBJIfD+IyfViQP1Ne/hoe0qRSNK0uWg7n5n+PdQfWPEms3jkgSXksmOuck5/DNcTqGN2F4rc8RN9juTEXMmeS3uetc9Nt8zk5r9gpq0Eux+Y1JXbZWk+bkDFZ9y3zfKcAVoSfe4GfWsqcgyuo/wDHq1M46mlYnbb8ljuOSPSrW4NjPSobdfLt41+bOATUysGGRjnpn1oQiQ549uM1IjcKGqNcrkdj3p6xAKQe9MCXa249wKlVh5fTB/nTB8wGR+IpFBC5PTOKoBGy4xggd6M+nT+dK+AB7mjYACwHPpTAidvmyV9c1UkYqpIOefSrEjFeNuM/pVOT5V+bcTUgYms5VSAPvdT2/Gs3TFb7Qyrj3rU1QK2Q3zdKztLjH2o56gjFIdjr7OHy1yNycU6Y+Y20c/739adbBfJTaxzTbsAZA+/jO1e9Ajm5G/0h2J6k1aQ5U4x06GoZV/0ggjAFTLkMcgY7GgCxyRnGDTS3zjPzdPpR93oMmmEA7wG2mhlEo+dXI3e1KoAZc8EVHHKBw3PFOYjbkcmhAGwbsj74qzakyDaX5qpG5bgpwRVq3Y7hQQWMNwMdDTlU7sDcuaX7z5J69u1CybgTtoJJFO8Hpz3pJOWx7/eprZ+6PkpT87Y4yozigAZeuE/KkdSV29807BZefl47GouAWPzE0AKkI5z+dPeNAvPPHeod5U4z7EUsylhgn2x2oAduUNxuyOtIZhuJH51EsZ2+/QU5l4x0PrTAlMuRkLuIpDJkZak3EZx1pPvHBb/CgBd2eKGJ3ZBxTT8uQD3707cBgHmkAxwSBjqaQDHXrTiS2OMA03IBwuTQA44znvQcgZHQ0p+8QOBTT9059c0AGdq57Uqvu4A5YZphPp8tOVQOA1NOwCq23gjkUqkLwKbk7iD0pN3rmi4EjdMdx19aj57HmnZzyORSqNxAPFFxWHKQFICc/wBaRju5AyaaWAkZR1zR90fWqGB689eetOVQTjv2pp4PFKuRQAnJyPwpcZGT/DzSZ3U1/mVwGxnrQKw8e360u/d0poBXGaXjGN3pTGCr03fnTgQdueSf4aZyePSlXHagB+QW5H/AabtORhc8801Sec09lC9KQAZNmSwGe39KQMWwpHNDYZeeTQBg58zr/kUAL95h/wCzUeXtkyOTSfe+9+dDEbjjnGKYCs4b5cfiKbjvtpVkAXGKaVPbmkADJHPb1oLDGCKFGOvPtSMu75jzigBcZPC0c9dv1obHl4HBpTubB3UAJnC7evejJzxQc5wOntS4DgL92gBR8uNy9SaXvz2pApwDjPNH3TtoAQrliaaeWzuqV1OdxxTGHHByDQAbvf8A2qRRwDSt8q7evPNJxJztoAOe64pkgUDd3x2p2SvFGDJwTigBsZ+UL19ak2gcBec1Gufz44p+NrcdDQAv3RkjPOKaW646+lI24j2NI2BQK4g+ZuKkLDBPpTGPzADoKeCBjFAXFYg8HqaaxKkZ60gbac9KRicc8mgYcHBAqSMDgYyKjDDaBtNOHKgA4oAf1GPWlPTGKTcWXBWlbDNg9aYD9zbsDj60NyrE96AobqaGUbcD/OKAINxA27TnNSDG75g1RS53ZHB71JGTtBHP+9UWAXb8xI4H92nrnB3enNKPlwOv9KT/AGumPSgBpUHGOc0qqRgbaFb5DkU7O1eOM0gE5bcKFXdRuGcbaRDlh60AO3nn1/nTlOc5Woty54HT86cu05w5IHY0APwytnsaRmOCS3HtTV+7j7wHSn7hxz7UALwSxH1pT/CB+Jpudox+ApP9WKAHpluowetB56dKYJCcZHpT3BbG3p3q1sABfXijdnrSdTS9MfnSYCL8w4/Kj+Lr/wDqoVucDn6UvHX9KlgIqjcCeB1NOBANJx1z+FHTGeM8/WgB3PBP1o+9+dJypBxQMd/xoAXBPAPtSkc/dpOCvytml5wRz/SgBBknOKDn1yRwKDnvwO1BXP8AF1oAcyso570jfTNM5DdcmnggnNABuUZ+XOentSq23gcZpucYBGaUcsARxQAMOOeKTluF+XNOO0YJYD1poOePWgBNx6/pSsPl/pQzc880gbGKAHDKqcd/6UZJ4pN23BPPvSMSeS3SgBGXaRR8zNjPHYUe2OaAeCdv0oARVHfrnrSknoOuKZyV5GfrSt27f1oAd6Y4zTdvUnr3NKWwcEcCjIzx+FAC7vmzQrHdx9aT1oxtBHXPNAAG/h7daG+7xwaZz8vGcHFO+9jpQAijactyaU/KvP1pGYMRxjHb1p2epIyKAGE4fd64FPYdQetNKjduz9KashGPm6/yoAOAeGYnpUnO04qPJ/8A2aXaXXB4oAZIxDAjvULHcMEnJ71I0ZViCcVF5sakAbi5oAeMlSD+lRsrfSnfaCi4HFU5J5ZG/i9KACSRVhIXc5FZdxIxYljx0q5Kdi4PWsy6kwxAQ07FkEhDHIbvVuzXc3HUc1SZ84w2KvWqlVyKYFvPHHHvSEZXJXg03nbmgDAUZyKVh3GyEKQe/wDSsbUnDuMduK2ZsMpBPFYF7/rCB0oe1wW5BH97ritG1YrJnr3qjHjpV+1AVgwOMGkhyNLzNyHNUpmDSYB6VaaQyR9PxqpIx25O0kU7kjrW8k03ULO8jPMEquM+xFf0nfArxgvjz4O+D9eH/L7pkDt/vbQD+or+ai4k3R/KcnB/Kv3r/wCCffxAh179jHwvqHmZbSrSeCXnoYiT/KuOsuWVzWLvofmT+2dqMVz+0V478kq8bXrKfrkjivmDUv3S7R89et/GzxF/wkHjrxBrDnEl7fSSdeSMnb/jXkl5IcgsMBu5rojsgl1MqVQfmHB7iiPChT3p8iFWYHkdRTeFX2NWZD5WAjGKiRwq+9DNmMj0Aox1wcsaVybDj8/bj1pVk56c/wC1TVYqFXqfypnmHdmi5Rc3qygHrUe4fw/jSbQ65/8AHqFxF8p6mmBGynkjr2pjeu3bUx/eHAC9aiZTkheVzSsAznvRUsbBc5op8oH71694gtLzw/qdtA7tcTW7xqAPvkjgfjWz4HVrfwfoUUiYljtEV17hh1rGufiR4IXj/hINJD/7Mig5+ldJpkyXVlbSwOHjcboyvQg9DxX4ByyVlyn6il2PGfho4/4Tn4in727Uv6Vwf7T2qLYeG/GYGA82kwwgnoT5tdt8N2C+OPiCRj/kJ56+1ee/tuajbWfwviVEjN3PeRxs3faMnB/GvpctjfExRz43TDSZ+duvTh7luec5x7nrWPJhXxV7Un8y9kJGc9x0P0rPkUmPGetfrGx+bS3ImYYyOTms6Rd1wARySMD61emYx5waoKokvI+TyRVFRNiSPkKhyAMUkf7vbu57Yp02Sxb8KaW3NkdD/FSJLOVb5SOvSl3kHb9PyqKPKtn1qZMknHQjp70wHOCOB0p6ZwAW6c9KaZFU8daVmIbOfnqwBsdRTd56AflQ547EHvTTjGB061NwI5vnXlM5qtIRG2W7enWrcjA5A61RkA8wgtweKAe9jI1FWOSeP9ms/ScG8kOM1c1LarEsOnFUtMP+lSkdxikO511mw2g+tOvhujIBwe34UlnngZ7ZI7U66XEZz0zQFjnnY+aFI5PP0qwo/UdKjmYtdSc45xUysOMdaAsL6AdaQ9x6nr6UsmRx+lQKSW2/xihjFRie+ee1XIZBJGQePWqgYkjB4xUsedxPr0oRVhqqYyF+9mrEW9vu8H+9THwerc+1SLjy/egixbU5AB5J9KfuG4d+cVWt2y2PbipiSpyaCCRH68U8sduQO1RYO7aPwprszAjPJ/SgQqzE9Bg0bc8Yx/tU0qwbjkY/hpQWU88GgCVY90eNuTTGZd3PWmsTtOKYxPSgCTcC3Oaa25TimiQKOF4prXBaPnge1MCQduffbSMpY4PHem5MZwo5pys7H7vtQA4qZGBI6UFjwQcYpNxHIpFXKnJNIA+bHr6UgPGTx7UKrMOO3rQFC8mgAOM8Gk6J8zDnsKXp0XvTWXBz70AKNu7PalVdhpMHkADFAwDg5oAcNxGO9K2PpTSB19qFbc3PAHegB3IHA/Cl5EnTjnnNN4B44ApTgque3egAVSD1J+tGOOlBYBu/NIDnrntQAvUY6UpHAz8tJz2OPWj+HHYmqARj83y8elITuyBzRjPJ/SkAweM0wHhj8uKApb5emaCTjI5oyP8ACgAGN2RnH5UjDJwOBQx+XJ5/2qXjHI5pAG0bcZ/GnNg89P8AZppyQoPGe1GQCRimAEsB1zn8KFxjLUmcjH3eKUZBA6+xoAd246U0ZxgnBzS7htwO/amglgQMnmmAvHU8H2pCoJPanMA3PQd6QcZJ60gAZOAdvX71GQpx97AppYH2ob5unTvQAq4zjnn2pRxnNNPPTOaF5yRQA5ctnpxScB8kdaF4znv2pdwA+70oAcrbTxTeg57mhd23BOBStnggUAISAoJwcUowvLLj2pigleByOtOA6np6tQAOBjjrTTnHpQVIBGTRzu6/SgVxQ3Qd6aGYEhlIPalK7QSD+dJgqx4zQMOe5z6VIORn7tQbhnJ+Xmplbb0brQA1vu80YJU4Xg07nZkjioznt1xigVhBwSQKepKnHbrTPXJpVJV6YWHlfU8Ug4YDqP1pCu5yc/4UvJGPzpDG8g4FOjbexX0prKODSx43dM0ATHKtyvSm7gOCOfWlDhjilU8470AAO3tUnAPH121G+BjbTlY5Hy0wIpOXxtylNj+9t7E5OafIwz6cVCw3YB/OkBbZirHFIuG4/hpiSDbtJ6d6AcdD9KTAeykDjpTl/wB3GajGVPH3jTsbuf8A0GklcBu0sPxoDDZtNK2OgpON20n/AL5p8oD/ADFzj05pTg5BFRquWKil913UrAGdpGON38NPVucBcVHkqoanrhttIB47jdScLx0pGw3fG2k+ZeMZ/wDr0wH/AOcUHOP7uaQKd2SOcYpwxtIx1Peq6AI0ny5NGD0/lSO4ZguOvWlJ45qQF3bd2OP50AgqCKY2NudtOjyFXNIB7Lt6fKTTGXOPlz2pxPyg+lIzbgM/XIoAXjuSQewp3XOelNC/L6cdqFG0Bc8etACseTj6ml/hGD9aZR97pzQA4t0HXih26cbRSdR05pPvKxB5zQAv1z7Uf16U37pLHgmlILDpjvkUASc9famq3qaQ9uaMDjjjPSgB2QOPShV44Apme/QUKRg45NAD2+6c033PNBIz3Y0n1/SgBxO7BFN74Jpo39xT1+bjGMUAL3yR+tMZwq8f5NO3HOfSm53NwMY9KAGqW69d3NO55zR8rHlelNcZHXn+7QArNtHPNIG3cDimrkchaXd69v7tAD920Z3cUjupOOf92mcNyeP9mjIxkbe9AD9oZevU8Cm9MHA/4DSP82Men8NA3bQfSgBcAH72RQy/MuW784pvyqSoPWnr8ox/49QAjMV256f7NBIHJ3Uqx4bNIWOACen8NAAMtkAbcc0pYZyDyKQ5XmojnjPH+9QAFi3zH/vk1C43HJ5qQgd/kzTGZBwrhu1AEbZbpn1qOb1alkdmbngdqrXGd2euRQWV7iQ7eOazrqTdkd6uSMMgnpzWdKcSPk7jVgMXLN0ArUtceX8vTPWs63UbjkbhWpApUYA2ikA/+LcU4FJ7gfhRgrxnFKSqrj9aYFa5X5Nx7+lYl0NshAGOa2riQbcfzrDmIMmRUPaxSGw/e960rX75H5Vnx/e6VftJNrA9KEgkXTnaAO3Wqk2FkJHX+7Vv1x0qpcZ8zHXFOxJHt3KTuxuBr9P/APgkR4s1Sb4e/Enwrdmb+yvs73tmGB2DKlJNp+uPxr8zdJsRfahbwE43yKuD0zkAZr96/hD8E9P+Cvwg0m6sbe3ieHwrLDezRcb3ZfM3e+ScZrixMlZRN6aR+L/xCtfM1zV2IYpHeSqvqBvNed3yiTLHr0G2vUvHUyXWqan5QYFrh8ZOQTnkmvKNUb98V2/OK64rREz02KkzMvyn5QaZJ/q8U9m3Hrmo2z5hA/ipmQxG2sDQ+A5xQeP97NNz+7ce1QBJ5hKtTdp3DPenQ88D71HCsynpQACb7oPQcU5ieWPLVEqljgVPjcvzVYAW2c4601m24zyKMkYztxTpFXaCaVwIB8vUZopW+ViAcCigD9d9R/ZK8PQ6feT2MFu8kULyhpSd+VBPBJr3/wCHO228D+GYR1WyiH6YqvqChtJ1EdCbabGO3yGn+A5CvhXw8SP+XWM/lX4O606kVzM/ToRR5f8ADc/8V18Qu2NSIx9BXzp+35cPbavoUAlb95b+YYQeAQ5wcf1r6K+HrBfHHxFAcn/iaHjtyK+Q/wBuvVn1D4wRWq7ilpZxxfrn8q+uyeHNiIs5Mzly4VrufMF3uVn3dTxVGTKrgdegrR1AHIJXjtis2RvTOK/Skj8+kirM3zMrHOOlV7dWa/i796knYjnvTtLUm6IXkgc/SmC0RoSfMMtgZ5qJRgMO396nyMS2D3FEeMc7RtoRJMAQoPpToWMR+T7nXn1qOPOMkApxgGnHKnP5Y6UAWViWUnj5zTFG1yCMY6d6If3YwOcjNTMVZSw49adwI2AZcjjHaomGRk9evNS7SF46Egj0pjKTkg9aLAI5OCTVC4Y7uOp5q3IxxgcD1aqhkOfmRTj+KkHW5jaoBycc5rP09/3sjrjJ7fjWneqeuPfmszTY8zSOenf60AdbpvzJ36VNeYK7WTjHFQ6YmI8g5yMVPdKTHnlsDvTHcwZFCXGxj2qVcjGV6fnSXAPmKSO9PjYyc4yf9qiwXBucnHTpVWQFWLdD+dWmyynC8Cq7Lu6D60guOjO6MH1/SpkfkAc1HHHtYY6VZVcr6c8UF3GrgsTinr+7yabJGykM3T/ZpygkDj/9dBFx6YAyO9WB83BPJ/yKrIp/2XK1YOMD1oIY5hSLlm4HbrTQ2RzUzKqnI4PWgQ0Lt46+tMYhiQKeWCdl5/hpA+DjuetAEe1i+30pSo4BI6U8SeWpPfio9wZSCPrQAhxjOMUbQWGFP/1qRvmX9KWM8gbeelAEiKAORkU5QuMNuyKaW4xkj6U3OB8xzQA/g5wBTWB28VEC24ZNPUnOOpzQArMMgCmZPmAE7Qe1KwOMbOnNOHy5z8p60AN6kgLk01ss338D0xSlvLYD+9xj60hz1JwaAFU985zSnBblfakGM4xSMvpzQA8/NkEEAfrTWxnj5aACrDP1NOUDp6UAKDjgck0MwyQFprNz0pBjjj6mgB4Lf99fw0H+IHFISQQD16c0nt1PtQAu4dcexo2nk9M+tIuenrTpF+YAdAeaAGspGfmPNC5Vj6EUN8wYA/8A1qcoBXB607gL7n+Kg5BpBkLk8mhWAByKLgOwTk460hH949enFMWQ7sjpT1J/ibvTAXA3JheMUAgjAXjNMaTt+VJ7DpxkVQDic5ApSdq+uKUqeSR0pM98UgF5xj1FIqjbkfjio2Y9KVWx15zSAfnKlR0o20jOduT1ppPLe/alcBxyeRzTCNw/wpcjaB7/AKUqruY/NzVCuIuScGnjK8Cm5IUE9fSj73PSgY8H0+ag/L3wKAoAJPJP92mkk4z0zQAo56YoySDj8qaXwR/Fn0pS2cDGaADndg80pyuSaVie3y4oVmyfT/aoAUD5eOpqJmOelSKSKY/PHf0oFYCo2gkZHel65xyVqENt47CpN5yc/wCfrQMbIp2/KeeQD709W/d8880FflwO38qRfu+tACNggKV/Okxu6UNzkHj2pMdqYB+HFL9OnrR35/Kggj6UwHfxHP8A49S7W2bsdD2qPnb1p6yFkweKQrgSXVQc/hSqoTjOTSfdA/xpGY8EevUVLGSBSy46GhlKlPWhTjg80de1K4ChuMDtS9Tkd+1MDbeg56GnKxBwRkmkA1ozuIP5U1vlUE5PPpSynqR0pAwZcZ6VYD1wRgU8KOg/GmRgKMnp6U7dhsrx7UmAZ9BnNORhjJ+WkG3OBz65NHPOeeaIgDABuOmKajru2jr3pxYsBkdKUEq+Bx/OqARV3MwPWjB9OP71By3J60BmySBwetIVxCOfTNKtKFAYc+22jpIQBj/eqBjlPzYHGaXBP3+DTVwy/Q807A6YJ561QCfxPxT/AH/Cot2OD+C07aVXA9akB+7Bx/k00t0UY+opMeYfTH8NDNjG5fvd6AF2t/s03bhQMUNndxwO9LHJvHOMg9aAHhRjJHPekzt5H8QoXhuf4qG+XG4dOtAC53DA4pfu8leD1pu0elLz9TQAxm2sOPqKlVj8vH0xTDkr92kjLLwenWgBzMMkdN1AG3iguGOMflQoC8c+1ACK27g9af8ATrUbKu0gfzpY8bfl6UAOU9CBx1pN2c9u1Jt7cnHejqo3UAKf++qdkdApJpmecdjTh/LpQAhyG/Gm+ZzxTuc5P0pqqeDQA7BznOT704fLgDnryaZgY4+tJn5cEZxQA8/eOTj0pnmKBn1o+o307qcDv2FACMwXGB1pG2nd6imthT83zVJuUcjGKAFqPGQuRgf3aYcnhueaGIbjuaAFY5zx/wB9Uhbd1Hy9aTlQMjGaXIVux9aAHKuFyO3+cU5ht5x1pq/dK9xRt7mTIoAVF6g85zStgLgE5HBpCw24G3nuaZuCrz+dADuFXHp0prSLjjqPWk8zI69T9Kbj5cjjFADxjeQ+aY0gxjGfShXLNk9uSaZI2edp+tAEEkpZdpO3tSFRtyfoGpmAODQW+XGe1BYrYD7W521SmYluOT0zVhyxNU5GK7j1B/SgditNJhj61QdiW9/SrEqhWOefr6VW3BZAfX8qsRZs1PyH3rRjIZsZ6VSt9px9496uRr8x444x9aQEmSTgd6awKqfy9qOVGe3pTMtxgZ69aYFS8yq4J/OseX/WGte/cbdp7dKxW+8cdKiWiLiSR49cVct89apwgt061fiT92D3zQmKRajY/Lxmq9xu3H0qVVMeCaiuJt+37tO5JHHMbe7imRzG6EMPwOea/oA8UeNZY/2G112ST/SJvDEILe7Rqtfz8TcpjvX67af46uNY/wCCVGj3V1MZLjylsA2ecLIQB+VcOIjeUWa0z86NSZJpJWy/lt0PfnnNefa1Ci3UiqNpzjdXd3xLAwn5CmAfbFcbrky/aNrBs9PxrtW1jHUwW4YLtzUSNtbNSzYZsDrUez7vPWlcYm0kZzuqNvun6VIu5vlB4pjHDMB2qQGx/Kx/9lqx97AP92qyt+8zUyyY4IyKAE5z/dqVZRt2haiZi2M0fdbntVXAfKvejcdoH3hT+HUY5qFlKtg0WAlK7lG4c0U1pP7poouB+9GqMRpeolf+feX/ANBNS+CZB/wjXh/1+yx5/KqmrOG0jUwB/wAusn/oJpfBrE+HdCIX/l1ix+VfgFPax+nx3PN/h3tPjbx+Ack6vj8cV8HftNaqNS+O3jGVfnEV0Ihg5GFUA9fevvH4c4j8YePpW/6CxY/gma/N34jXZ1TxR4gvCWLz6jIcc8KGIFfo2Qw99yPFziT9lFHD3smMAbj/ADzWfMT5Z5xnpuq1eKfM+Z+3FVbjLD6V9zc+J5ik+Wzu4qfRpNjTtjJI61BcSbST/KrWlxlrY46Z/houWWm+blv/AB2o2A3bScVMsbltuOMUjxqoAOM0yeoR4PGMYq15IbBH/wBeq8ckfUkDnGGrQjQK67ym0+poHYjjgLgc5Hp3p3lBQoHVa0xYArgbVOcjJ65+lSrp8RlKCRi4z2OCfamHKzFaJgeR+tMWM7vbrXQS6PLj/UTP3Iihc5rNuLGWP5RZ3jk9ALZ8/TpTuKzMu4UZJ9+lQmMFSQcYPFab2N1ICTpV8Mf9Or8fXjimW+i6hqELfZdK1CU5I/d2r/4VIHL32VXGM4BqhptqcSDHfNesaT8DfHfiW13af4L1y5jxxJ9gkIP6V0eg/sh/Fq4s5LuH4f695ZIBZrTGD2AXr+NTzIdjzHT7f5QvTjPFPuvlUfLnPBr2WH9k74uxxKzfDvXBtByfs1Zc37OHxRnm8uDwLqnPGTtHPryaXPEOVnik1um7DOBzkVq2+hzBv9VMidv9Gc/j0r69+DP/AATf+KXiuSz8QX1hpun2ccyk2l5cjzyFIJ6ZHIFfrhpPw/8ADdnpNlZy6BpStHCkZU2sZ5CgEZxzV81h8rP507ixMeQUbAPeNgf1FZ/lwLvV/wB3/vd6/oyvfgr4Hvn3yeFtK3/3vsif4Vhal+zD8LNaUi88D6NOG/6dVB/MVPMhWZ/PalrHIMIeTwM96sxaTdMzgRMdo52xMc/TAr+gfTv2YfhPocebbwLosQTnLW4OPc5qe30f4Q6KreVD4StApwcNbjB9+ar2iKsfz7jRrhcSPE0an/nrEwx+OMVXazYR7k+cZxkdK/oG1DU/gvNbyQXdx4PeJxhlZrcgg18pftHfss/s8eNvA3iPVfBepaXpHiiwtpLyFdJvQyOVUsVMYJ6juOlTzInlZ+USqW5HvSK3y4/nTYyJF3gcfzp3yqw3HYT+NUSyQxnb8uR3pBndzS7d3PUdaQc8mgQfKWGRkjp60FjuPI+n/wBehWPJHyijhlOORQIjLE89RSHrgjr6UpJEZAG6kUE9W460AC/eGDn6VKo3L2pY4wnIABFLzt/nQA18DJxkelNbBIAXFOYnqMc0h5Xp1oARBuk6U6T93nB5pHmGfUimBi3zep6+lACqSygg/hSbsmj7vOfw6UnXd7UADfKcr16/jSc0H6cUu4cc/hQAZG09MUgO3OO9CoC2DwD1xTtwX8e/YUAKoOc9aDkkHrn9KTO3B289venKck4696AE5bk4zTeQ3FOTHQ96Rwd+7PPpQAbmOeeKUdyOPrTc71HG0kdKWNztx/GtAA2X5P444p0h2x56DvSH3+tO3HbyaAGYIYd6kzwDnimhuck5x0ox8/Hy0AHmDtSsC2QOlN2j8qFYZPp3pgJjpkZ+npS8sf8AOKVMFRijqMDpVAJIM84pFygwPypflwRRz6GmA/POBQMfWmFxnaRzTgPvAc+1IBvMh49aXyztz6UnOc9KASF4qAFGMY/Q0m7cSOnpQ2Tk98dPanbflwRwO9ACAg8CheAfrScYyKF9R3oFYNp7HHPSlUHd1xjp70Y//Xij7tWMX7yn+HB/nTMDoaUIdvHAoCksMtxQAbR0P6VIAAMdqZjHf3p6scZDUgEBPKgUAAknb/8AWpQeuOM8UnO3k0wGrluaGJ68UDqT1NHbBoAg5XJ67uRT1O5cHAPWlJCqf0ppxwaYEy5dSR82KbgqRnGP1pI5NnReO9O7g0gEZlJpm7GPelIxz601iS38OaoBaRc857GgH2xSqxz3FAC/w05cbc4xTRyOD16UcnvgUtBWHL9854B/nSFifve1AJPShmDkEdfapYxFYjO/jBHFTYBJz3qBozIvXBzz9KmDHcMrUgNXI69zQWHGOPWhsD8aXHJycf8A16dhXIpD/eyMelEfzDIOKGz81SqV6H9KoYgwDgmnquTnpUbZ3c9O1S7iFwKTAQ8Jx6mk8w5xQrA9R70u35sdKIgO2nap74+7TcncOKU7tuPm+bv2oU7RtLYGKYri5PIJyBSbWxk9OuaXfleQuKTIOQeKAsLkCMYHek3Y5PbnmhV3ZA5BpvCsRuoGKrbQDn6jvUwIY5HH9ar9iw/OpFY8Y7UgJuOM8/WjPUD8qQMdx4GccZpWXJBzUgGPmBI5NJjcQc0u7aM0bjjIH096ADaNuDzTWjO0AYHP+TThnbz1pG6/ex6UANXK8jnPWlZsMtDLu+XoKNvYjPpQA7cT9cUzJ2nH40/A+XAxSNuHuPSgBC52kgUbtrAfdpBhR169aRvux56CgBdzIpAGcnO2kZRnI3ZbpQowDj/vrrQpAbIO2gBRkDlMD9aaD8wOSMfrTxjfw3/AaQ4+ZTT3AfwenrSAFs+9N7/3qliC7o1LiMMwBc9Ezxk+w70WAQqY+CelNLAdfwxX6e/Cf/gmH4J1rwBbaprviG48Q3mpWSz27WZEdrGzLlWGOWA96/Pz4v8Awn1P4M+PtX8M6pEY/ssjeVK3/LRQeMVo6dle5hTqqpLlRwqv8wBpCwDbe5pkkifMQ/yA8kDj86kV42TfnAFZHVysb7L/AA801eezAdvWpbqz1GxktxdaNqFpFcnEMs1q4EhP93jmm3CyWs7wSxSQSL/DKMH8jzQTbQQNlME7SKMqrbQKZI68AH2pzb27cCgQjN8zCmrwvv8AzpzRsCBTtrenNAEfIOCOKef3eWxnFHHl/wC7UnC+1AEG4kDPOKVcsfel3Bdw9f4aaGxkLz2oAXzAVK0nReTTSN3BHGKANqrnjPOO9ADy+3dztz0qJskZP5VLt3DceoqMEMdp6GgACjI3H8KEbaxH3hSNhMDA46UZ2cZ6+tADy3H+yPSoLibau0fxUMT5oBOfWmTtuXA/h6UAQKQrFvX+lNeYcgdzT+Su7v2qs2FOCOtBQ4kdB+NVZEVevJp7lhkYBA/iqpMxYEZ5XrTsVcr3EgZ8dh6VX2jdnvSyNjJ6c06HLSAUxF+zG4Ajv1qyTt245NVoF+XOGzmrPHCjg+9MBoyxzhvxpHcDg9KV8nHy7qjmYqmGXjpxQBmXjbWwTvFUe4q7eNu6jHpVHmsuhcSa3PPI68VejyqgetUov9YPSrkDFiVB/wD1UEPUcZNxCH8aq7yzEY6Ve2jGW61Quv3cm5ep61QLUJD8oI6joPWv0u8QakNF/wCCYPwzsLfbFNqV6ZCF6ZDscmvzLcllr6F0P4xaj4g+BfhrwHceaLTR7ua4iYHghjwPoMmsKkea3kaQdjkNV3GaVxyG/WuZ1QRyQu55fH3l7GunvpD5kgfbg9sVyt1GvllN/UfKtbmZz8mdp3Y3U1pC3TpUkir5hB60zb5nzZxSsAikbcqcE/3qikY9c4NOpGG5cVIDJP72etSQyBvmIqFl28Dk06PJ4H/16AJmxu+Wm0cbcYoPzYzzjpQA+JirAZ4p8i7hxUG4bsd6kUtuB+bFVcAQD+M8+9FNbJ+6vFFSB+72rbm0fUsZ5t5Pr901N4L+bw34f4x/o8f41S1R/wDiS6ic9LaT/wBBNWfBh2+GdAweBaxEZr8FjsfqETyvwjef2fffEy5J2eXqMxDehCcV+bXii8Et9PMjb/OnkkI99xr7t8feIn8M+A/i9dxIftD6jJGuOoLYGf1r8/tYRoZBG8n7wDn09a/Usjp2puR8pnFV80YGLMzMxB5OeT71UlJYYDVPIxZ8FulRSR8dOnXnivqD5ixWuBxwfetDTo2WzjkPG4nI71lTSBSDvXGea17UFrON9zfMM07Gj0O9+CfhHSfH3xY8O+HtdRn0q8lbzhExR3CqTjI/WvoG+h+AHhu4kgX4X6re+WxUSNcffwcZ5PTIryP9kjTzdftBeGHceZ5Ink9gPLNburTS3WsXr7zg3Eirnp98mlf37GluWNz0iw8YfByzYG2+DfnjqPtNwj4z9a9T+EPjr4cap400bSV+DOiQJdTx27NKVcjcwAOMdea+abWFdhB+UHqK9T+B4J+KHhggf8xK2GR6Bh1/GrVNMzUmz9RF/Z1+GKLtHgTQQP8ArxT/AAq7b/A/4fWi4h8GaHGP+vCP/Cu4pa5rFnO2/wAP/DFmgWDw7pUQxj5bKMcf981+dHxc+OeuaD8QNb0rTtK0CKzsryWKEzWQLgKxA5Ffpw1fjh8bLqdfi14wQ/cXUZsDjpvNawinuRJmlffHzxbd3H7w6NvPG2PT1xj867L4P/FTxDrPjbQ7C8ew+yTXsQZYrRULrvAIz2r5+VtkgL/Pu4GPX3r074JXB/4WJ4f2IMnUYBk/74rbkiSps/XmGCO3QJEixoOiqABU1FFcpqJgV+Qfxc+KPiyH4jeI7e01+/toIdQl8tYZtgADsMD2r9e/Wvxe+LEIb4neKJDn/kIzDHYfOelXCKIlJq1hsPxC8X3UeLjxTrBB5Ci9cAfkRXs/7LuuapdfFjw2LvV768El0gImupHGR14JIr53tgVwiD5+/tXuv7LkrJ8W/CyjtfJk/h1rosrWFFuW5+p+2jbRupd1choZPir5fDGsE/8APnN/6Aa/F/xJDbXN9cIyDLTN82SSR9elfs34ybb4R1s+llP/AOgGvxZ1K4lkuJt78BsKMY4z/WtaZMnZmFcWcEcuwxZHof516J8IbGxS/wBbnCbJV0W8JA4B/dnr6159MB52WHPXdmuv+Fu033iUlvnTQrvHPJBQ9B7VpLRGW7PkCzAa1jAf7vQ9utPX52yvGOlVbP5bO3j9Ac/nVuEkdKRe49cuTnjbTy2RzwRTcBeaEzkCggRjuYjbx2pASML27D396JHMa5xz70hbcx4AoEOGCTznFHl7eDn6Uijv1zQu7PHb1oAlDHtz/tUit5ZOeec0gbGQw49qXaAD8wznn6UADuDnA6UjN5qkE4GO1LxyTUbN8u0HigCLjczLz/s1IpJUDt2o2qq9cGmseyHJoAcx3ZByaTnoKbuPQDg/xU5fXoaAD0Gc+9DKG4K81GjHp68bqAzLtDfjQOxKtM+ZZAD0PPFOVtwBHyj2oVSqkepzQIccHH0pAcNz0oZvm2kcUZBUYNAC7jwOopMEjBwc5zRx3/GkPtVcoC+2KM/MTyBikHyqB+VO65z+VKwAn3sGhvmwD19abTlG5ufv9qQC7SvGMgdqHOecU3cdvJ4oJ+XA4NAC9OGGaOc8DimhfuHFPyTjBpgGPlznAalUjf14peNuB19KaMDnvVAGeMUjnaOPSl5/u0Kx69T6UAOVfl9yOtM4c5Xg9CelOZmxmo2kPZeTQA/dt4HJ75o3Z4z/APXpuS2D09KOPxxUgKzHrnpSFju9QetJ/CCP/wBdOVST/hSATdnB/Sg7upbPtRgL/DRuXt7UAN3FsHPT+Gldzt9qB64pTk8flTuO44MTwcc0Hr60i49KVfu46UhBu/hC+9Kudpo53YLCiM9RTAcOnBzQf5UgYngdPekPzDjn/GqAB0zjOaa3zN6Y9aVcjghhzSgc4/vdDSAjZS2Bjn0pitlgAMgVKW+bAHsaa0ahtwXHY4qgExhcZ4qQspAx2qErz1ypqUfNyTgntSAVl7jk1G3Q84qY42rio++MdjTAbu7c/XtRuO3pzS03aAeOuc0AO3EjAFHAb3akxnndTmAZgf1ougAfMQBTlUYPGRTRhc46Um3axA5pWAXyTuz3NSbdy9eByKiHLe2M1Jn5QG59dtQArfMuB7Cmv6DOamDLt57cVBNmM8dO9UKw3+H+dLxTdw257Up7daoY/lhn3p7DpggVGpxwO/49acE5561IDtw3YHPvT2xyaa0QRuPk46UqA7cHpSuANngDv1pqZbg0OcHp1oBOMdPai4rCFiAcHn6UqhuvQNQoHTrijg8Y46VQwjyrksc44xSybWwy0LhcE0//AFmML/wKgCPd94f3qWNfmz70nPzf0oHPPpzUgTdcDHXkil/2gMZHQ1CjZbDHH+0alXLAD0yN1IA2j/GhWIGPTpupNoA6/WlbDHbnkYoAkpjMOh6H1pqyDcQfwWmp0yOfXNA7dx20DgfnSgliAKRckfN096F5bkYxQVr1RIrbtwH403rye/FR+ckfO9cHruoWZZBhXBo3Bxa3QORtUZI9fek3buO392klO3nr2pof58bMjutBI/r0GKbuORk8/Sm/eOD1FH3mBHc0CLEcYYA9PrWjb6FqOqsf7M0+61Mr95bWFnx+QxXR/Av4WX3x0+Jlh4U06VreKTMl3e4ytvCvUn3xwPevun45ftCeEf2OfAVp8Pfh3pVnc+IzDgsQHeLI/wBbKepc9QDWE6nK1GO5ooXVz87LzRtWs22XWjX1rOThIpbZkcn2BGa9u+Ef7FvxS+L1xDHbeH20Swkx5l9qnyoFIznYOTntXDX3x017W9Wt/EGq3Nzq+viZZT9twIUCnIAA6DPavdfAv/BSL4g+DfFn22TT7WXS7lI4ruxtxy+0YDqzfdPrVvmtoDSex90fsrR+IPgHdQ/BHxfqC6jPbwfatH1JeFeE8tDhueDnHPtXFft2eCPhJMtl428T3IuLuOQW08VjKryHHQhM4+tfJP7Qn7cmq/HbXtC1Kx0u48HXmjbjHeWk2+Z9w6ZHAx/Wvl7xdeX3i65lu7y81G8lYmRjcys2WzycdBWsJXj7xhCn7OrzpntHibx18OtY8U2WleGEOnaPLKkU1zeQo+WJAAAxxT9Y8G6NoXiD+2LmSwkGm3GfJiw7zrn5WMY9OvSvmq58PanHzDbyuAPMwB/I03RfEd7pkklxa3EsU78OTyeOo55rCUL7He6vPufrH4Bv9C+NPwpS7Q21+9rJxKsWDFKoyMAjII6YrwX9uL4W+Hf+EF0r4iabH9g1OVorS7UAATFsgPj+8Mc10n/BNPxFBrXgDxdYTXKyX8eomZoTgOEZPvY9D6180fEa18S+Ktd1ixv9TvtQ0aDUJmt7aWQvHGdxAIH9a5KMZRqMiTjY8igZGjG7GevpV2wsLjVpGisoDcSn+FetdTbfDG5Y4ljlkA4yBjBPT61ak8Gr4Pe3u5PtVu4YfvogRsPbpXonMc2vgvxDJuJ0e5RP+euMjNU9Q0HUtLtTcXVhcR24O0zeXwD6HFfeHwL0SLx34JurqWwF7eWQAktydplXGVkH8jVjxN4Du9NvLLVV8KRL4blUx6rDjzA6HjfjoCPUVzuvFPlZooNq5+fcC/bC8abN6ru2vwcD0zUcU0dzxHIhJ6jNfYXi39kfTfA/xA0u0sLaxiste2S2V1qsjOkayHPOOwo+L37L2g/C61fUPFup2+ufZkEkVh4etvLSRjnCl+oA61ftF0FynyB9jlKk+VimrCGIVedpz8or6h+C/wCyLdfFCzj1rVLyXw/4ackxW8PzXEnP3UyOmO5r3S8/Y5+C+l20Vu1ndWl8q5M1zqYEx46lM/pijmFY/OjaN2CGpkg2g459/avqT45fsiz6LpB1zwXdf2va26l5rVjmYKO4x97ivltlaNnDZEikgjpWu60IuB3bOPypq453UKSnbkUxunBIoGOVg5bjkdaRsZ5akDBun/66Q+hOB2FACDHPy8tUcinb8v3cU35VYY+aiZ2+7t4oAjb7pqGZl289f89akkygKs3OMc1VkI+ooKRBNcDoO1V5pgzZPBqzNtAz3qjPJ82QFxincCvNndj15qe3U7kb1qvtCnOat2zncBjIoGaES5XJ/wD14p3PWmxqFXAH/fNObO7iqAPpkn+VQXGdgw/Hepn5yCfqRVOdtxcdRQBn3D8eo96qVNNlahXrWPUtFmNTwQeKsw/LIp9arxj5fvcfyqxC2OM4qrEE/bjg/wB6q19H8oPQj9atRsHAAXrTZowynPVR+dVcEZn616p4d8i38H6UsYHnsrs/ry/FeWyLjIPWvR9CuI5NE07y8F1h2t9QazLWhJfY8t39Bkk1y91IdxLfKOwWumvmE0JRRyeCa5a8IJx1xxj6VZBQkZWbIGCaiZizMPlNSMwZunHamMpyQo4NAEFFOkXa3FIuM89KgCL7rtgZpqttzxmnNjLH8KjoAni57dTT2XzGyGpi428dKcqljgUAJRnHWlK5XB9elN5HPG6gB3J6UULJ8x4oqrgfutqALaXepx/qJB/47U3g5T/wjuhp0228YzVW7k/0C852hYXP6V2vwz8ESa94P0a8N3GgaEYVeTxX4ZhaE8RpFH6TKtGmryPir47Xn2X4c/EWMDzJJddK+hABBJ/SvhLWLlZLjI6Ekgt2B6ivsD9qbVG0ux8SWQZvNbX7luCBnauPxr40uVPnbWJ9fzr9ayqn7Ogkz4rMJ+0rXK/8RA69arX9wtnCZH49N3f6VNeXUdjGXdwM9jXIahePfTO7scfwr6CvZsedYZe3z30mSCqdlFd7HEY7W2jzjYi159bLuuIV65cfzr0VlbdtYcjAx3oiKR7p+xav2j9ojRw/zx/Y7knHb92ecVqzW3mX14IwHAnfB4BwXOK3v+Cdfhe0179pjRFu03xva3AYA84CYx+NfqBD+xX8H42aQ+E4pmYliZJnOSefWo5kptmr+FH5TLbBc7XGAcHBBxXoXwJdD8U/DeSCf7St9o9g4HNfpfa/sm/CS0XCeCNPz6tvJ/8AQq1dL/Z5+HGi3MNxYeD9NtLiFg0csSEMhHIIOeuatVEjJRsej0Z9q/Nn4lft+/FDwz411fSNOTRlt7O4khBktSzYViB364FcR/w8G+N10xK3+jxjPRdPX9M1HIyz9XQc1+N/xo029vPi74skhs7mfdqM+0xRM4I3nngV658NP2yvi34u8baJp+p67bCzub+GGVbezRMqzAEZ61+ka6Fp0bMy6fahiclhCuST1PSlblFufjJbeDdWkIdNJv5B1H+iSY/DAr0H4M+C9fi+IHh6eTQNSt7aG+iMksto6ADeDuzj+dfrItnBGMJBGuOmFFTbRyABinzvqTyjqK/Hz4zfGTx1a/EbxLY2/jLWrK2t72WKK3t7tgkahyAMA+nQVwNx8T/Gt4hWbxp4gn2jpJfSfpzQoFXP2786NTgyKPxFfmD48/ZR+KniDxxrd7Y+FJpLSe+mlSSSVE3qzkg8nOK4L9nzxHrd/wDFzwpBe6xqV2smpW4YXF28iEFueCa/YDsaco+z2J+I/Ley/Yl+LM2Nnhu3t37GW9jxn35r0/4H/sn/ABI8B+PND1jW7GyjsLG4WaZobpHfaDk8e3pX31Ve+/487j/rm38qXtJFWscdefGrwDp7FLnxho0DLwVkvUBB9xms6b9pD4X26kyeO9EA/wCvtT/KvyB8dW6TeKtYeRRJm6kPPJ5c1hw26FgTbqAOQCOKtU0yXKx+ylp8ZfAfxJjvPDvh7xZp+o6nfW8sMcVvIX5ZCM9Ogr5ak/4Jt6vc3TTN4vsId2eFtXfH5kV5b+wraGP44aO5AQ7ZMBem3Z/jX6j1Mv3bsg+LVnwhD/wTNlPFx45DDr8liOv4mqviz9he1+D/AIH8W+KYvFEuoPbaRchoDbqgKlCOCK++K8y/aVw3wB8ebun9kz/+g1PM5OzBxVtD+eNLeOJRDH9wc++c808LhskYx/FT5ofImfBDA5A29MZqJcM33fyrUSJFIK5Lc0H9cdqj2jcD096l+XOQ3NBmM54AG7PrTlTI+bFNEgVeR9aXe2eOc/pQA/YcAnr/AEpCdrY9eBTGkLDO73xTQ3mLnPJ/SgCYPtbJ6+lI0zMvTGagjj2tg8560Nt3ALu+XpQOw6WXaucjoKarJ1DU3yzMcHsKDhRtH3f9mgLDmweV5J4o3njA+vtQudx44/vUbyv3e1AWFOGXnpQqrySDjGKj3Feop2DgntQFhoUMuQ2O/wAtO2jbhlzShv3eMbMUxWbqNtBRIjHpjNOaRVcDoKRM87uP89qaocyAj7vX5qCCQL8y4ORRt3dGHXmmtz19e9PVgGz3xQAMB26d6Qnb9c01nK8Um7aoDGq5gH8bvxoZioJ9aYGPX8qeo6fLTAPquKTJOM4470rHrn5qQndjI+vFLlAXA5Pfik3Y56/pSspUgFMZ5z1pVz8xPSpAbGC2CTgZpeWbPagYPIz9KPxoAMkLyOaXoSucj1pPu8H68Gk/h61oAEgDrzngincdRx9aavU5FOxu53fnSAXPGD0prAeoFHt1oXdu7D0piuDHj2pV296QqPvAZ4o9TUjFf7oA/A0mWLHH40E5GM49KNuNw7+1SA1gCuTxS4yf0zRS+oJ20AHC9efoaRZCVIKUUo+96UACg5P8jTuQ2N3Wm9cmjJ5oAf0XJwKBj5eePSmFuMfnQvoOc0AOaQLzt4BpQDxntzTdp3MFK8djSt93BOPegBFY9GHNJyPpSyA7c8N/UUhB78UAJJjcPfmmtliynlPSne+M0ijaMUAJJncu3n6U5QT94YNQ8qoXv/s0K3zDczZFO47FokbeegphxjlselOz6cnHao2XcMGmIDkkEc0Lzj9aZyGyOKXbjkcGmA7pTuG79O3eoVZlwO3+1Uhz/e7YoAduIoyD35/nSbu1IwPHTNFwFDBlbIxnvUi4+XJ35HGKjA7dKkRtqADpUgPiX5ucc+lR3DdQvIpW3cAHpn9aayhV96AGfeUgUvYjpUcfyZBNK2WIx9a0AVX+bI/i/iqYMePcVDtwwwOtTBcdOpHSkAquGbAz9acGcfSo25bLNTo04PcmswHNyAfvZ60w8HIz7U/6DrTW3ISc0AIHYLjFLuIYlTmm8jjj1peeR29qAFXdwCvSnbiOARj8qj8zHB5FHGeF59KAHleOelM3HdjHTmnfdwD1pmC2SDQBICMZPIoDHdioweMA4FSFtnsfWgAORxSrknAx74oDIzbvu8d66nwT4Fm8VXQluHez0xeWlA+eTHUAngfWplJRV2dNDDzxE/Zx3OUnlS34ZwnpmtHw7aW3iTWIbD+1bXTxJkm4uT8icenc19C+D/CfgXT7WSOx0u11CRz/AMfF0fPOR79Afaunh8NeCL4eVLoWhXE38QRBvH/fJ4rz6mL5VZI/QMHwo6nJKdWPoed6H8A/Ck1uDd61e604XzJGtZAiEYz8uMmvEPFlxp2g+Ir60tFaO2iY+UpO4hfTJ6kV9jaT8J9Ce7ik0qK507cMr9mlLpk8dK+af2lPh3aeF/GgFnq1vqErKPNhgUb4m6kSAE4JrPD1+ebuetxHk1DB4OFSnBJrex6x8O5/gh/wh1v9rk0uWcqDcPqm8zEnrkDGOfQVm+PvAXwGmjF3Y+MpdGuXGRbad+/TPuMcV8nvbyW7YkTluh/pUtlbz3N5FbWkLS3MxCR445rq9jJS5lI+TnnVOph/YSoR2tfqd/b+GJdS1p9P0q9tr1C2I7q5kECEe5PSvRLL9lbx/qli9zpp0jUzjK2+n3HnzP7ADj864Wz8A6dfeLdK8MTebc3pj8/ULoSkAADO1AOPxr2bVfjRrPwN0LZ4Mkh0o4EEf7sPw3UnPUjGa3k5te6fJpwvsecXH7PnxLsmP2rwpcWxUFn86VEwB3OTXOeKvh94m8Hi0j1jTGtzcgEeURIdp74Gauw/FjxlrGqyX8viC8vNRml8xzNMXSQk85Q8Ae1faf7MfxaEul6d4e1TSLfU9XuZZGkvzCjlFHIDZBIA6cdKJzlCPMCSbscX+yz8S/DXwx1a7hs4ls5JbPyx5qYzgZ5J55PWvPbz4eR/GTxH4s11y0ustMbkKfuSEn7h9OOgr6s8dfBP4f8AjzUhqF7pk2n6hnm50r92T9V6VV0X4J+CfAq6o+gf2kdUkhBWa5uCUDDnJHQk1xRqJyckbte7ynyja/Bv7WEaG3EYwPk/ueo/CtC1+A7yMB5aoc5Pbj1z0r0DWPEVvoOrTqOfNxNhjxlvvcjsDVeX4oRRJvMcSEEAYkyPwFenBJq5xW5TEj+BKRsQBEU756Ee2K0LP4O2f2hRIqmPGeY8fpSXXxeJaPEhjCn+HpVCT4xSK5CXCg984/L/AOvTM7s6rTvgjpt5Igc7Y2yMA8V8mftDeA1+G/xGuI7fH2C6/eR4xjPQ8DpXvN38X55FGy6aN/T1OfWvPfF/hu9+OHizStKs4zPqVzOEVs5xGOXYnsAKl2LW5wXwV+LWq/BHx1b+I9KkJgmjNveQ9pYW4P4jrX2NZx+HdQj+2QbXjnUSjccHDDOT6mvkT44fD0/DH4gXnh/CrFHCjKg6jI/rXSeH/iRLZeHbC3e4yiRheTyMcYPqKI23Q5R0Pp+3k0C2ZyTCCB0yM/5Fa58V+GFspLeazilBXC+agIz/AH6+T5vig7A7HUgAjdjv9KpH4jeZ8m+QdDnPQ46imZcrPub9nH4vaT8O/ihp0lykX9lakpsZ48DA3fcb6A/zr7W034gDxJ4gfwidHsbS0uVkiUsMq6bD0AGM1+IUfj97eS3uzK0UlvIJFbOehHNfpV8L/jBZy/GrwMdT1WGzsZLAzGW4lVUyYu5PGSe9ediaab5kd9P4Sx8WvCV1e6DaabdyRXGoeDtWEAl6ZgYgjj0xWL8S7eF7i0iaBZIpIslZRnPPp3FVvi58ZNL1T4pfES00S9hvbNmtczQSB0kfgcEcVr/FuEQvpZBxugH9KUY8rRLd0Yf/AAm0un+DpbQv/ZCW8JX7dbAZjT/YXopPrWP8G/Cfg2x8RT3l9olxreowKJtRv9UkNx9kVuURQTh5nHOOgFcR4+8Wabod1oltfyH7NM0l3NHkYkSFS4B9iwFez/AdtOsfA/h262CV7qCTXLotz591If3Yb2UYwPauqKuYTOp8S+LWjtZIdN0Ox8PWSjKwiLdOQem8npkdq+Cv2iPgiN2oeLdECx7iZrm1hj4wTyygdMdSK+2PFFn4i1yHVL7SbO41SKzG+8lhIOCwz07kenavI/JabTZI7y2lFndAxybuCQRjit4Wsc/W5+drfdTPOR19aZs3E8/L1210HjLR10HxXrGnRH5La6dYx/s54rnt5fIHy0Gw7b83JpkmFUZLAmkLAqe1QtJ8xBHJGBQOw9Si+wJz9aheTaOOc0fdXnnFREjb/WgBkzFxlv3n6VC3YdD/ALNSOBtf1HIqBmb+9n6UDIrgYUMCvPSqUmMYWpZ2BXnt0qvuB5HApANXngrVy3ibbn5sH+GqsKbjgd60LfKd+BxiqGWVwI8jdQD8oyeTTzx0puzcOOCtUAyZhyPzrPupCvHb+7V6YgclsEVQvWH9/H0qbgZ8nYZzTF609vvMaav3qz6mhaj+6KtJwd3BqpH/AAjHT8quRr85A6VZmTBtqjAo3B8lutP4zu71EytuweaAK98q/K34fLXT+E2P9kkjqrEE9xXNXEZaP0rb8LyeXo90e4kx+lKwFzUJjsEglz/jWNdMwYN14qeVj5nDLj2qteZ2cHFMCsxPLEVHyOr0RyM2QeRQsZ8zjpSuBG3Ldd1NxtxxipHAVQu7nNR7tvOcVIEci8ZzwKZ61JIp/wAKYzBue/egAQkMO1WFznnr/OqtTRsevSgCVsSOMUyRXUYHSnlflyB9abu3dsUAQ/Myj+L3oqXavoB+FFAH7jayw/sXUd2cfZ5CT/wA16p8FdWs7P4f6FFcXC27/Z1YAn1FePeI5Hj8N6qyn/l3k/8AQDWj4NjM3hnw8M8/ZIc/XFfjGCxLwy5krn6HWoqqrM+Af2vtcEnj7WLFUMmzWLqRmHowGOa+YtS1KPTV3yHe/ZM8mvdf2rtYTSfi14leQEol9LIFb+8QOMV8t6pfS6lePPKeW5A9BX61g3zUYs+Jr/xGmPvr46nceaw2HPQUzUFWNwg69TUFrn7RH2yQKl1Bma8kyeQcD6Cu+5zkuhw/aNWtlxxvBP4V6CrqZMnnntXD+GV/4nUZHJUE49a7Ff3gUfqaSZLPsT/gmfj/AIag0vaM/wCiXBPHqnFfswvQV+PH/BLKNZP2iEIO/wArTpv1xX7Dj7tZStc0eyHUmRQ3SkApEn4n/GAG4+J3ieTnP9oz/wDow1yEbNG2QOeld/8AE60uLj4jeIytu0uNRnIAjJOPMbHQd652DQr26mJTSr6THTbbuc/pXQrMy1Ow+CilviT4YAxxqMDH/vsc1+yY6V+RHwX8Ka1F8QPD076JqEESX0LNLLaunyhwepGABX679RUVDUWik4qFriFWw0qgnjBIrID8VfjpIJvit4oCIpkbUZlbHYBzj864eOMRsNoy/dq+n/H/AOyX8V/E/wAQtf1Cx8KzSWd1eSyJJK6ICrOSCMn0qna/sK/F24+VdDtoCo4867QZ/EVumjO7OK/ZwUf8Lg8Kj7w/tOHJPY7q/YoV+d/wf/Yv+Jfgbx9out6laWaWdndpcS+Xdq77QecD6V9n6l8e/h1oszxX3jPRrWVSQ0cl2oYEdQRSqPm2KSsehVV1LH9n3P8A1yb+VeY3H7U/wkt4yz+PtGwPSbP8hUej/tJfDXx3qCaFoniy1vtRvd0EMcIc5ZgQOcYrKzKPyX8bND/wkOqEtkyXc2Bnn7xrLhh24yDg/jxX3Xc/8E2bq+1C4uJvGVvGJZWlwlkXI3EnqTWjb/8ABNOzVg0vjm54A/1dkoHH/Aq1UkjF3Z4/+w+D/wALs0LOAdk2QBg/c4r9PK+Y/hr+yPpPwI1pvF8fiO81R9NikmNvJCiIVCHcMgk5x0rC1L/gpN8OdPuDGNJ1yfacZjgGM/nRP33dGi0Wp9b7uleZ/tI28l18A/HkURxJ/ZE+D9EzXzxff8FQfBdq2Lfwlrtz/vGNP05rE8Qft7WPxi8D+MtB0rwpd6c76NdMbi6uEcD92eMAc5qOVrcd0fkZfYV3VSvU5UduagjbLAdPakguTdQ+Yy4Lfw9KYWLt/dftWpI9uVxu3KP4aVWGMKc4pnmH+L8qcJD/ALIBoFYk20n8XpzTW4LZ5pwTpg9KCLC4XtgOO5qFpCx4TkU8SDcR6URryef++aBDSCo3CPj/AGaYzZwc1Y8wxqRnp/CahWQNJ2BFA7gGB69P71Ax1Hy4p65LDP4U0sd2Du696AuN3fKc96XG5cAUzbnCt1pwba2S3020FDwW2gHvTc7eB0pokb95tGaFDrGd3/j1BNyQx+vzU3zBnB70w72Xl+M0eqtyaCiZlBx8uTQ3b61GFZsFX/76pUVd396ggk2ktncOKc8mZAopise/WhVbk+nSgBrMWl5X2+tHzt/s0ifM3yhv6VMx2qT0xQMbuA4JyTRu2rzxTWI3LTs7uh/GnqIRs7sjk/yp2fzpByuB+lHPA/OrAVfm47mk5Xk0tKfYc9qiwCZzkAf/AF6XkcUdD7ik9qLAKO4xw1Nx2A4pdxz09qOi45+laAAx2Bb2NGe35UnBx9KB+dSA7kbTuoX7wpq/dB2gZp2ew6VQrBu6k9aaG7n5aUH5RkYzS9OPxrIYHtmkx1I5/wAKXHpRyGHpjmgAjUsuWoVge+RRt3Lgg0i/LwOnoaABfvEBe+eadksuSuP500Z6YzTmGWzQAh/EmlyPkwOOlN64wQeeaXnOR8g/u0AKyjc36U3Joyee9L7nqfegA55xQzBVx92gg5BPQikIGQvU0AOx6Zx6Uwk7afuICkcgUbSxoAbu65yc46U3hVwTwPWlfd1CCo2bLEMtADchunf0qHIByO/rUuSPlNOG1mHHP92gslViyocfWiRivP50sY+VQKdj5eR/9agggLAnj5aXduORwBRtVWwP++qTBC8HI9KoBf7uKFxyfmz/AHqVid2BShQvU8ChgKM8E0cr92m5Py525BpxKhum0tUgLn5sHvS7tuTj/wCuabzj3pep5wQOlMA8zdIRt4pWyOvFLu6kCjcDsNICDIEhIpeWyS3So2YJKT6/zp6qGXJrRagHmbuDUyseD/eqsvzHB4FTIR8wH4UwJG6cnPOMU9ZCq5xjFQHqCPm7cVIW5weO1IB/mL3pWIYYIyKg255Jz7U9fli3Nxn+EVADfMG4DvSbxu69uagdypUs3vUMlwYyX6ikBd3hhkcZ9aikukt9nmHG7p7/AEp9pHZ3MKGa+iGeCoPNdT4F8dHwD4ij1HQ9KsNa1BIzFENTh85U55YL0z70wOXjuHeMyCC48tRy3kvj8yMVNDC955SwRzSyN91IQS5+gFfbnwl+NV74l0XVIvjM/hvwr4buYTHb/wCipG8vByFQc9O5rwbUNQ0CLxkLn4UaLNZW9tIxi1q+O9pf9oIeAvpmnyjueSTaHrVvC80ug6vHAoyZJLJwMfUisJNetJm2r8n+9wBX1J4O+INzp/iLT7fxv8QZZ9HurgLqNs4EgKE8qAOg5xxX2NJ+zv8As/WttFd6L4Xsr+WRRKSYQwO7nIBpWIc7dD8oNP1rRYWka+lluHH3IoEyhPbk1Xh1TxNrS3K2Md/cWZ+9Hbo2wL6cV+n37RPwt+Deg/C+5vm0Szg1O1QTbbCNUcJ6HHf2pf2UfH/gGH4IxFdGto52upYozdSLvdd3D5xk1lKPNubQxEoL3dD8w9K03xDZxyf6JrFvA2c+XbyhB6k8Y/Gtbw1fPpGoRajpl7LZ3UJ/1okznPUEHOQe9fr3J8SPBHhrSblNds7CWSdWEViCrgpjkn1z6V+TnxmvNFt/iTrjaJELOwactDbqAAgJzt49KOWMlsdNPFVou6k18zotR+OnjK/sRaR6oLCPJBNgPLd1PGGPJ/LFedXGpPHnMn7xiWfBySfUk8k1h3OvfNtCeae5zxVJtUldsLGBn3/xqY04wd4o6MTmGIxVvazcrD9YvGkuuucdW96n8P642j61aXjKCIm5/HisidndySc+tRc9ua1uefc9l0fxRp+m/ESDW3uV+z3MPlSSqfuNjHOK6T4qaLP4m0N57IxTiAiQbSCCuK+eYcsQuSFPX0rf0nULmw2eRO45UiMyEodpzgjPSl6B1HaTBe6nqkVhp1lNd6jI3lx2ttEWkJPoBX3Z+x38K9a0C51vxF4jkbT763iNlDpD43gsASX9DjsKyf2dfi3J8Qvib4fMPgzTdDtraExy39hDnzX245fHHuM17lp1wLfx14llTTzqt+195UQilx5auPmfHTj1ryamJlzOm0d8aK5Oa53MjBYuMDC/dPevQdc8CeE4vhvp2r2l/wCfrlxt84GXJJxyAg6AV5pql5DptpJdXbizs4RmS5uCEjA9SxxXg+sftjeBtD8UXNvpdtqWvhYxF51vEEhdx1IJ7e9TSUr6GczyjRfiR4M8J+Pr0/EOyuNUtTFcR2lvzsEwc48wDnAHTtmvDtc+JCXmpXZsQlvaNMzRKOyk8DH04rJ+Lfig+IPGWoXCW5gRmJCnnYWJYj8OlcPNIWAGfevYh7q1OKWr1O6k8eXDHaJC+RyGNV/+EtlJKkndjoCP1ri42w2TT/tSw8gZ7Emq3FY7eLxBJJhpHbjBAJ/LHv7V9/fsr/CqD4Q/DnUPiR41Asr+5tPOEcuB9mtcbgPZ2714t+xb+yhceJr6z8feNbQweH7Y+bp2n3Ax9rfqJSD/AMsx2z1qh+3R+1LH48vG8AeFLvOhWTf6fdQnCXMi8bFx/Av5GuaUueXLEtR7nz78YvilcfFj4ia34nl/dRXMpW3h7pEDhR+Vcb/axjwEb5R/DWcmFHXkDFR5HUn221utNBbmp/a0kjDJx9OlPXVH3f3ayVYHuAM9KQN8w+83P6UwOhtrqbUL6C3D48+RYx6da908Tap4r8UapEun2huLKG1FqrfLjAHqa8cs4bFtTt721gext44xlXOfm9efWuq1T4kXs8D21kBbjHlhhwMY5P1qJR5hqTR2nwpmu9L+0W5k2SPfRNKpP8KOBn3GTX6IfGjzBb6GUOR5BBPY5AP8q/Ii38Zapp9yklvP5UkYCgkZ6HOfzrv5P2qfiTq6x2useJLi809doKsApC9MAjkDFRKN7FRPWf2j76VdWsHNwHjEckBxg4DLwOOle9fs3+NP7c+CehXCT4ubWH7FIOMgxnoRXyH438Baha+H7fUtFeW/t7v/AEkNKS+d3OOvanfAL47S/CfXLmx1vT5Rol+2bhcH/R5MY8weue4rWFrkyXNsfox8PPin4h8GnVLWwigubDU8+d5v34mIxuHrgdqg8VS2lvocCSbXdAZpSMcDBPf868u8P/E7wrrGnDULHxJYpaMvzNLcBce2DgivKfjl8bhrXhW/0nwclxrEcimK91a3jZ4Yo/4lDY5JHU9MdK1SSMOVt6nzL4y1aLWvGWuX0L74pruRoyw6ruwKw5JBwexNDMpjCp0AqFWCkZ9aguw75TkHqOKhkA3Z7dalaRuB1qBnw2enagYx+vQ/Sh2IWhwwGSMDp/8AXqMrg9KdgGsw5B61XfGcEcU9vvcfNULsBnHXpSKuVriQZOV2gVWIxwv1qSRyyk7vrTFz13UxEtvlm689f/rVpW4JOWqjbr2/8erShXCjmkwHDA+UcZpGUjvtpWDN/Hmm/Mef/HaaYEE3RmHOOazLkg//AF6vT49DWdM25uuTSYFdvvelCfepKKzvqal6GMkgDrVxVHRgcmqFrOu4Bjj/AGjWmrHHDAmtFqZCgZBzlf51GwLLuNSK+cYH40x324B5H9aAGPnp/wCO1p+G2xp+oxnoDkfXFZ+Y1zu71d0djuuY4jksMle2Mc0MCjFO0ijcc5pLpwy7SeareduY7fXinbshTu570ARrlWwOTUkbbWBb/vmmNtZcg85+7To5McfdqAFdV4z1NQEA9RVrkNnvVagBOe3NM2+i/wDfVOb7uO5pJGK4waAIqkiPUVGfalU7TmgCzGMt+tDKG5XP0pqt8uD+NSBucFfmoAj3beCdp9KKXjuNtFAH7ZeJHz4X1fJ/5dJP/Qa0/ArEeGPDqjvaRc/hWP4iP/FM6uf+nWT/ANBNbHgMh/Dnh8njFnGf0r8Ngrxsj9K6XPyv/bW1Brr48eJLAYxDdNL7ksBwfevAZFO0MfpXpH7RuuHxB8dvGl+DkSanKF+inaP5V5/fKq+UQOGG6v2bCx5aEF5I+BrvmqSZXj3bgR65qW5VjJubrUKHDLz35q1qbI0qBP7vP1rsMDR8IqP7QkkbjZHx9a6c4J5PBrm/C6lI7l/l7L81btswK88kcU0jN7n2D/wTL1K50346azc2Sfv7XRp5FBGUOBxn8a9i1n/gpd8U1vLiGy0fQIRHK0QLROfunHc15P8A8ExYXb4weKGQHYugT72b36V5dqkJj1a8PZ5nYd/4zmuaD5qkkzplG0EfStx/wUb+NEq5RtBhHqtkT/M10vwj/bW+Lfjr4gaBpmpavp/2K6v4reZbayVDtZuecdxXyDDC7YVdx5r1n9n23Efxa8HALgtqcH4fMOTXbGCMj9go/CmiwyF00mwVmJYkWyZJPU5xVyPSbKH/AFdnbx/7sSj+lW6WuUCLyY+nlr9MCvx/+L3xW8cQ/EzxJZQeM9ctLK3vZYoYbe8YIgDEYAz0FfsJ9K/FL4wbV+KvidhnLajPnj/bPStIeZEjJu/iB4qvMifxbr0/XhtQkx/Ou0+BWsarefFfwoLjVL+WN9Tt0Imu3cOCw65NeYqdxUHn/ar1D4Exx/8AC1vB2AQ51OAe2N1dKkjOLZ+xnFHFOorhNyKT/Vv9P6V+IPxMSG4+IOvtNFvk+3Tcn/fPQV+38n+rf6V+JPxCiK+Ntc5AD3sxHOeTI2a2pmU730OWtbC3hcusA3n8hXvX7H9uifHTwngYIvQPbGDXikNnIjoxHABHP+e9e7fsjqifG7waOc/bjkHtwa2uRG9z9XqTikz0pd1ch0HPfEJtvgHxGf8AqHXH/otq/EjUI2W4dRl8ckNxsr9tPiJj/hAfEe7gf2dcZ/79mvxYvIZJryQhMvIAevboOPYVrTaMajMPb+83MMvxXoPwpxDceLWIwn/CO3hJ7j5O1cVcW6Rvgr8/T5f612PwohEjeLHUf6vw/eHOeeUIrZsiKZ8cWMgksUJ/u8U5Mg4IzTLaMpaxg8fLmpFyW9qhGw7GOQOTzSAgcUv3TwMf71K2NoI64oAVcNtXpSbjuxnjNNjYL1HNPyBwu6gCFpDuOPWlaQNzjFBHy49O1KFDYOeaBWBcY2jn/gdPjhRm3ELwPzqL5Vb61LtZfvPtoIsSsoHPXNRlu2+l3dMdDTMF2yPu0CGFiV2+tJx3pVjAKkr653UcKcigskVjsGOP60fxctUTN0+Wnbd4YA/8Cagmw1RgcYp3OSNvGc00qDjdRnHOelBRIrbvmK0RHLYHSk4205T5akt+GKCB2RtOR9aTdtwvXPT2qFl28DtTuevqKB2DzWU4PSpd/QY696hA79qduO3iqQx25D97g05cL3FNxgY2cGhsKFxVEki+/XPFDfeHOMUwKWbnoKceeRxQAMwK46DpSqoVSBnmkYENjj3o39u2KQDu+RQvJ9abk46dacszKpBAzmmAvc9qbQSS3djSluuOOMUAJSd+fyozzjvSLn+IcigBVx09KdztzwB3oU45zzTFkG3P3v8AaoGP/hII4pGz2O2mtIrNg888UzyyPMyeCfvVmFib2o4zkk0wg9jyPSn56YoEDEK/PJH8qRVOODx6VEvY7lo/vkduKB2JvUd6ON3PbpURYMuSPal8wfdHJoCw8plfmHI/Kj8MCj7y4Pej+EDtQIPfIxRwe+aCo+/ihT83v2FADt2QAOaTlj70csaTmgBTjbg9KFYbXU+vVaRVLN6cUqtigBBjGegIprAbSTUchG3APPdqjKkkigdhWLNgn6U1W2ydaXlTg8AdKexDOD2oKJlbd8wXHrT2Yt1FVlkIfLdD6VNI2AD2oIEkbauaZkADB5pGBZiB3prAr14q7DsScdc9P4aUZUc0gYSLnbmjd82N3SgQ7bv2kc80rHA56+lRlhuOfSm8LjHaoHYk8xSmR0p3Kr8vaoRI23HapMDoO9AWJBg+o9aXPQEY5qH7uWbv0K0wEnkD/gVAWHTMpyvcHNM3dj8uf7tI7BnBPHaoDIFzgUCJWkKgr6dKVJx/FwKrNINwB796b5ozzTuBoZ+XI3f40hkJ+Xv/ADqibhmYY6U9ZHZk/SnzAWxMU+4MVG1w5U+4qJnbBGz/AApoYs2SdvHPrSAYzv8AjTJW8sFmOcelObCnGc1DNICCvWkAMLazgSVXXLnkd63LP4lLocJTSNItUumGPtU4Mkn4DpXMmxSTv1/SlS1ihcMgO/8AvbulMo3v7J1/xpOL3Vr1vLU/euZeQPZe1VtYjvNLtnSDVGliPHlQyn7v0FUHnkkk3SSM4HUZ60gZeg+U9qQXK1pbyXEkbSmUIGBOTzx6Zr3jT/2nta0CG3Szkv3khjCRsJgmABg8YweK8R3A8j/vmnYC5JJG6gdzu/Gvxh1fxxp8lpf/AGp4pJPMlllmJMnHQgcVmab8WPEOi6XbWNhBZ2lrbgiNNpJBznJ55Ncs2V53cUxlLKSP0pAdVqHxc8a6o5ZtUVHZcFokUHGMda4e4uLppi1yTPKx3Euc5J71dVWH3l/4FSn5u5zRaw7mYqzlsqhP+6K3NO1j7FbvHe6TDfJjC7/kYZ9cVW2ndnPTrQG3rgyc0WC7MiRxJMTs8tCfurzihpBhQOcVfmsUkPy8e9V2087eOtFhFdWx0GSav6Xp97rN3FZ6fbyXNyxyI4xk8evtUUdjJG3bOe9dT4S8Zaj4HkeXT/s7tNxJ50ecj0zS16FI/QX9k/4w+APg38LtP8Ha750GoNI811fTWWYTI5yQHHIA6CvqLwjH8MvFjT3fh+7sEuLsAyzWNwN5PuCc1+UGi/tHRwsBq/h9ZcnBktX/AIfXaa9Y+G/7QPwpOqRS6nFLo8mfllaJ0CDPcoa8ypTnfmS1N4ySVj7G+On7DurfG63CaZ8SXt4o+YtLvotsAPvtOCfc18h+Pf2BfjP8KLe5m0/Q7fxIEz5dxp0ob8SnXPtX1p4J/as+FvkQWo8cWGOuZJWAQDt839a9B0b9ojwjq03l6R4x0i+t0+8Y7tF2D3ziiE5xWwrN7n4meKvDfiHwvqU0OvaTf6bd7iZFvYmQlu/JGDWCZixzjj61+4Xirxt8Jvi5BJ4e12/8P+IRc5jIWaMunrgjkV5Jrv7Lv7Lfg/N5Pb2YfG7Ze6n+7GPYNXSq66ojlZ+WnhPwbr/j3VotM8O6VdareSMFEdtGWx9T0A9ya+4fgJ+wrpvgjyvFnxTubWWa2HnjR/MHkQbed079Gx6Diu61z9rv4NfB3S7jS/A+nW17cxrhYdHthHC5HHMh9Pxr40+Nn7UfjX40SS2t9dtpWhfw6TYZRD6eY3Vj9eKfv1NtEGnU9o/as/bYXXLW68FfDyX7NpijyLrVoP3e9Bx5cIH3V9W79q+KlVznB6nPPWrS24ZsgY47ULAWPNdEYqK0I5gtbZGALc19Jfsm6L8P/FV1q+h+JtCtbzUG/e29xcDJ8vGCF9wea+co12lV6rW/4f1298M6pbajYSGO7t5PMjPqe4/GrIOx+L3wvi+G/ji506KIPp8zbrWbHBU8gZ9R3rjEtUVzhAlfRXiy8g+NfgmK/jxJeQ/NHyBskx8ykds189zRvbyPHIMSIcMPQjtTBakat5fVcimk5TIHuBT5G3J93rUW44JByB6UFWKOoKFZJCME/rUcKiTgjIPWk1aZp1Tggqas6SyLHJvTO7p7ZqCj7A/ZkntPGngG80u7QyS6bKFXJxiJhV7xZ8J9I0bTtX1NYItR0+0DM0NwBkDvhjXi37N/jkeA/HMkl0Zf7LvYGt5mAyIifuuR7Gvoz496fpEvgKJ4ZzcQeWsNpNby/JczScsxA7Aetc9pJjvY+bNN/Z38W+NvBeqeJvDWkw3GjTXJjitYz+/H+0B0xXoHwB8W+Jvhb4J8eeHtc0pbKz/s6SRpdUh8tgxGxVTP3s9sVBpupab4G8deAvDug6jqml+H9ZhRtSLXR/ezBsHjOF5GK91/aA8MW3iXwH4g1PUZLaOzsrdlhZpN8xKgbHIHQE8DPWtYx5lciT5XY+CZZBJ+8xsPcVG7Jtz/AOO96jLlowW++etN5IxxmtQGux6gUzGOWxnPNPVvXqKicZ/+t60EsVmB6/NioZidpp746VFI2Vx1p3GRSSDkjriqUsm4Pg/SrEu37rCqTR5z/s+lFgGMx8wYNImW6Dkmnt7elLCuGwc1NwLcKheenaru3sOKq2+F6/PVhV+UjsabAkHPuKYzqo+9Td+1cd+lJMC35YppAU7hsqQPWs+TDdKuXDMcmqEh/GpbGtSOiiisepoKBmrVrdFWCucrVSiriBukhV3DkE0xwW5wRVeyvNq7HGcdKsyXAYDn/wCvWhk9BigYJOc+1S280nnDZw/92oFk8xuFx9KsaSyyXkh6uo4+tMCgv32XjKnB3VMeCe/oKrXBP2qXP94/dqaKZWHzcE1NwI8bG+lHOM/3qHIY9OPSk6cCpAnVgFUH0qOQDAI4zUqtkA0kysce9VYCFmLHmovu9X/rUm3DH1pG5UipAhbPekH5GnO+72qJuOBQNK5Yjb5sZzUoYbj79KgQZwKk3DdjvQJ6Em5m7Z+tFNDfj9aKAP2s8TEJ4X1hj1Fq/wDI1p/D/DeGfD5C8m0j4/CsbxRL/wAUtrBLf8urn9K1PAcoXw74cOP+XWHP5V+HR91fM/S7XVj8gf2iNFOgfHDxpY7DGE1SYhT/ALR3D+dcHfY22yq33Y8GvoT9trwzPb/GfVdd2Zt9SuplDdt8ZwQffFfOoZS3zKSDX7LhJe0w8JLsfA4iPJVkmNhXL5PRe9IxDSbh0p7OXXGML/dpvlg8AV2HOdL4dUrpbkjh3JrThPy49e/9ap6LGY9LiZsHPIWtC3Uzrx+P0q+hH2rH2z/wS706Wb4qeNJV3COHQJA273zivL9SsnXVrvf1Wd8Lg9Cx5r3/AP4JIwLL8VvGQdBsfSkyhHYvjmv03h+G/hS3/wBX4a0lD1/48o/8K4oLlqNnRJ3SR+J8Gmu5Ro4LnHYCFzz+Ven/AAJ02/Pxa8JTLp14II9RgaSWS3dABu5ycY4r9dI/DOjwjCaVYoP9m3Qf0qwum2salY7WFRjGFjA/pXVGozCxcor8cvi98bviQ3jLWbS18fa5ZwQXksaRQ3boAiuQAAPQVwx+Jfjq8yLjx34glIP8V/Jkj86ap36k85+4PmIv3nA+pFflj8Qv2Vfih4m8fa7qFl4OvprS4v5ZY5WKpkFycjJ6VwXwX8SeILv4oeFEvNd1K8ifUIMi4u5Hzlx2JxzX7H0pLkZVrn5Qw/sSfF28O4eFliLEEeddoPzwa9G+FH7GPxM8K+NtC1nU9Lso4LK7jnl8q7R3wrAnA71+jNNk+6aSmwStsefap8evh3o8jRX3jPRrWVDhlku1DA9CCM5BrFvP2svhBY/LL8QNHz/syl/5A1+U/wATrCCf4h+JTIivIuoTkseS/wA56+lcn9ltGbcIl556Vt7Jdw5j9gdF/ar+FvibV7fSdK8WWuoX904iihgRyXY8Dqor5/1r/gnNL4g1q9vrnxfHbi4neYRw2hOMsT1J618q/sw28Y+Nvg89l1KL7nXOelfsS1ZzXI9A31PiWz/4Jq2aqRceObrnr5VkvT05Ndx8O/2KNE+EviK08T23iS/v7rTW+0CGWFFR9o6HHqO9fUdUNa50XUPaCT/0E1nzMdkfJ2uf8FJfBOi3UtsfDWuXEsbFT5YTGenBzXPzf8FRPDxB8jwRqpbqBJcIMj8q+Ddfc/25qLjhPtEhx16Meaz3uhJsGwEnAzWyppmfMz9M/gz+2VZftEeKB4PPhSXT7XUIJVlmkuwx2bTkAAenvXfW/wCxn8IoDk+FIpn7mWaQ5/Wvi79gxEX45aUqcYhm7c/cPev1CqJpReha1Wp47D+yT8IoW/5EfT3/AOuhdv5tXNfGz4G/D3wb8GfGupaR4Z0/SLuDSLjbc20e1gNh4znoa+h68o/aqcR/s5/EJiMj+yJh+lZ3uV6H89tyhX5AR0yMe5/nUGDycdPWluJFWQ49uaj3HdXQiCSPLMD39KXdjk0Bj2pMk0gHHOMjnFIWIHHSgSbmAPzUu4nJ6e1ABu4H+TQwIJ5yf71N24Ix6+tOfGc7s0ANZdtN3eg5pfL3dPQ06PMeVJye1BAQqSxwaBJ82B92nN82Cp471HtA96BCA5A7jNG7cuPSlKjHriojxw3BoKHrgnHXNDem3ilUjcDytO5VcdF/2qCbjOOnb+tID360c9D1peDx+lBQ7HruA70sanLZ/h4DNTRnqf8Ax6nIoZtrfhQQIuCckZoGNxAHvtpQp2/d/wCArQMq2e/egsf14PT+7SMvpu/3aGb5M/8AjtLuI46f71Mm47YcqB29aQgr8v8A6FT14BGajkjGcnoaoQ5c9MdOtL05C/8A6qYCcK3tzT2k3LyeO1MBNpZyfWkHy8k80RuWX27dqlVsZPXNIBnXp+NDE4yvHejnv8tHsDQAtJjPJ4xQcrj5f/rUe5H1pgIwDKx70ijH94AU/g4X7maTaO4NTzAIrFhk8UxWGGUnFPUg4A5oYBgR3qRjd/zDPT+7SbH7HmngkEChmK9BQFxdwJxjFIVBXBpm0L8p70gbd8x6UBYfkLnP/j1MVtvI6d6eqlVIxS/wY/CgLjCoZvl3NQzBlwOopVyhyTz/AHaRvmPzDrzuoKHpnoetO/yaRfVeKMdjzQQL16HijlWyDTV/vGmOzMchV5oHYlPOfX0pQpNIvqKcGG0+oNAh20MDnio5WDYUd/4qVm6jtSNnd7UAQjIXBHP92m8BuealyWUZHBpjfKzGgdxkgVuRTS3zA0mQq5alIJOAKCh6Z3Yp3zbsfdqNfUrU0n+rwaCBjL8u3H0ao+SOD0qRmy+BnPSojnp0xTuO5JGpV23N/wABp0m7dgd6SOQAEBctS+cM8DjNFxDc/vBuH/1qM4UnH4etJ5jdAvXoacMnnoTSLBcM2Mds0qsVXC/Nik3nqOneo3mYNx/3yelBNx7NznO76U1mzye/pUJZi3WlZS3G6gLj58Nn5u9V2UbgT8uafubknp/d9aiY4x/KgQ7jk9qa6/SlUh+nzUgjIPt2oAAo9KlCnAI/+vUefTnml8wl842Z42rQA7bu6d6A3Lcc45o27enel3fwj/x2gCJvmFQNHmTJJxVoxgLwv1pCuei54oArnPao2zuPb+tT479+4oYnbkdqAKoJOcjPWhUOOF2/WrWQqnrmm8tnNAEKxlcArxUhyGztqRVYgD71SKpzzigZFgs2CtRN8pwex6VaxyeeKbtDdQMU7FEDe/A/vUbcNkcbqft2oAfmp4X5cLwGqQGbQOMr+NN8s5P6VKqgnp+NTeSDxu/KmLUpqoYgdR3pQF8sE8VMsflseMjPpS+WWJJGeTTsBWwe/WopIwcvv/4DVloy3f3pn2chV9aQyLy1yGPUimsq7TgD1xUjRhuhwFpnlccHmmMYtom0/KMN1pUtVUnA2dvlJFOK7f8AZNSRyfKBjp1pBcSPTyr+Yh8pwOChKn9Kma1aQ5nlaUgY/eMT/Mmn+ZuwO9L948nmmkuwXGGEcZx8o4qCWHsD8x61ZUFe+cUzDZ5QU99BblbywG69KQcOo6g1I2Wk3UnRcheakBNp+b3q1A2WA7+9QKvzKNvFSeSM0AehfC/xd/wi+uJBcn/iW3hEcuP4D/C34V2Hxm+HIsbdPE+mx+bZyHF0EGByOH+hrxqFvMjw30NfSPwD8fWnibS5fB3iBxcStGYoTJwZ4cfdP+0KTWtx7Hzm2CuQOvZqYwYDJFdz8Xfhrc/C3xF9leOV9LuCWs7hxwUJ+6T6iuHkVjncapahcx9cbZNGP7wycVoaHq9n5Mdu6SiQ8DaM5NUNej/dwEdyee9ZlrNJHMhjLIw6FaRdj6U/Z5+J/hT4Z+KdTm8VW7T2F5aiKPbbeYUYHPI9/Wu3+MXxq+G/i7SbPTdCOoQRw5bP2coiZOcD3NfKmmzGZQXdpJWPOe9bMcJkXjnHrWfImRc6HUvFWk6o1vaav9rks7aQNBeWUY89COcAk961/GvxSk8aaT/Zen6vqH9mW6qXt7rAefb034647V5/qVnLFalgRgDNYNiTHdk5wGGDV2tsD13NiRtwwAQey1GWDZpm8gf3qbkLyaYXHlQwGOo9KRvmzn5aYshPTgKeM0mdoAFOwhWXbz0JzxVaQ/OR6VI0gY+o9MVEwzljjnikBWm/3ue9Qu27pwKmkKkABeKrSNuGBxVN2AbU0PzLioas26lQD2NRYCzEhKgAVMjeYDkU2MNtT0FSAdBTAG5zk4qtNluMgEVNLIWbFVrhiASV5zgU7gU7jIUfLwTVKTtVqaQs209qqN96s+lyoiUUUVCLCilakqtnYC7bw5w39309asFgoyTis2N2VuDipGdmxkk1dzORLNcM2VU49at6DJ5M8zYz+7rNrU0GRFmnSRcxtHyR1GDSEU75v9MkbGeQaZGTtxipb9Y/tUnlbvL4pqrjApAK2D0GBSZPTtQy9iKaDtbkf8CoAsQksMZ5p0mWwBUULcnHJ9KkbDZGeaq4EMnDEt1pp5HrT2Ax97dTNoOfepAg/WmFfTtUm35sDn6UlA07CRt0zzzxVmqYNTwPuO0n86CpIftb+9+lFSdOjUUGZ+zvipt3hXWV/vWkn8q1vh1iTwv4dbp/osJ/SsbxVKB4T1sgc/Y5B9Plrb+HZB8K+G8Hj7HF274r8P8As/M/UInz58Y/g/bfF74Z+MLVoi+t6dqVzd6bKPveYOSnuCOK/NC4t3sbiSCZGSVDhlbqjDqK/YfwLIY11hyMFtWn+b/gVfCn7X3wfuIPFmv+MtHsI4tEN+IbtbYf6pyoIcjoAT+tfdZHjbXozfoeFmuEvFVIbny8VDc4pVX5c42VN5bbcMMEU3BZkAHU19rdM+S1OptU8mxiTGAF/Op7VjHkGTAao5JAIwFyxwBinQEMxPY9q0I63P0T/wCCQ8Ym+JXjWUPjbp0YCseSC46V+qfGOK/JL/gkkzr8bPEIHyD+yMsPU7+K/W09q5VuzaXQdTTxS80mODmqRB+IPxQXzfiP4oIXBTUp+D3G81zEEcjSqOx4Ne3eNv2f/iL4i8d69d2Hg7WLi3mvpmWWK3PKlzjk0Wv7I/xgYBofA18f+uxRP610Ra6mPKznPgwcfFPwecHnU4B7DDiv2abpivzH+Ef7JvxY0Lx9oWp6p4XNtZW15DPKftKHCqwJ4zmv0Kvvi14K0uRorzxXo1vIuQyy30YIx1yM1M9bWNInYU1vuke1eZ3X7S3wrsmKzePdBRh1Au1P8qqab+1F8Ktc1i30rT/Gmm3uoXMixRQwMzl2bgAYFZWZR+U/xSY/8LA8R4TrqEynB/6aHmua+yhQEAyezdK+5Ne/4Jza34k8Tapqk3i2wto7y4kmEQt3cgMxI54Geaks/wDgmbJ8v2nx3xj/AJY2X8stWvMZcp82fsy2H2f41eEGD5/4mkRB9a/YGvkf4d/sC6b8OfFGmeIIfFl5e3GnTLcRwPbIEdl7HnvTfFX/AAUd8DeF9YudObw9rl5cW8jRN5UabcqcHBzzyKUve2HF23Prqs/XP+QJqP8A17yf+gmvjG4/4KieG2H+i+BNanJGf3kyIP5Gt/4W/t22nxm8baZ4Tj8HXOmxapIbZria7BKqwIJACjmp5WtS732Pzs8QsV1y8wmEM75I9Sx61US2MbIoViTz2r9Y1/Yn+EQuJJ5fDZuZHbcxmuHOT16AgVqWv7IfwhtfueCNPY56ybz/ADNaqokZ8rPiX9glyfjho6lCEEFxtbPX5DX6ft0ryfVPhZ4N+FnhzVfEXhjwzp+larptnNPBPBFghghPPPIPvXwXqH/BQ74vXEhW3udDteSMfYskfXJrN/vHdFLTRn6m15R+1Ugb9nP4hjp/xKJj+QzX5yaj+3h8b7tn8rxLYW/Gf3VguB+dYF9+0x8U/iX4b8YaN4k8WT6hpcmi3MktvHEsaZC8fdGetNU2PmPiJijFmU70YZ/OouFb2qLT+LGIOefLFSE7uRwOlaCHgk9O9KAcZpueOOMUSccHoelIB4Y8k80u49v4qZkbs54xSgE87aAGluzUxlLYANTsMR4PJ/pTFXdz78UCH7sAZ4GKdxL17VHu446e/NLkLwG570EjCp7DGelKrBVw3zVJ91uO1N8osP4aBCbhsyKjYFu1LtO3cR+VDMe9BRJHGVj5odgzY4/3qjDEAntSsNvDYFBNgX5j05pucjaOxpf+BUbhjPUigoXd82RUkef8DUcamRifbp60/AA96CbCbm5VcYppba2DxSnG4UkilWJ6nFBRLt3L9/k01d3zfxdvemqxIpxUBSTxQTYev3WxRuPXPy1FuLLxyO9KDkgsuM/3qdwsSKA65DHJ/KkU7TyKa3XKt/wGhhtbHXNFwsSqd3GKUAKMDgUyBizEmpJPlzjg0xBSZx17+lNLFu+D+dIq9+1MB3O3B6dMd6Vhx6e9NHRQD+NDdwOopgCsJAcbuDSMu5ht3c0xWbbzyKeuFbn5vTbWY7DlzwMdP71HKg4prbQAG79qYzE57f7NAWJNxZRjimtnbkD/AL5pmRnilVtrbMZzQFhGbcwYbgRTlXK53YBpq5yenTihtuMYY7qCiRdvAzk5zTldmXoBx1xyaijHTIpy5Vh6UE2FVtnbrTWZg2RxTtx3HPSmN97cvT+7QUKnzMpqZVCg+1QNlWHHNO8x+M55pkCMP3nHelbjj81pFUdW645pPM3ZwuKRZNwuBSccbhk1ECOMnFP3Y2EtQTYkDZyOvt2pjMQwP5VGrBuM+9IxHmD73pQFhd3GRTQy4xjmhXPzHqPu5oUDr/DQIYzYPXBxTlU/Lz1pGJxjbRvPC++aB3HfL/c+WlUhVJ/iqPdhckbaQsxON/yUCHlirZ70zcx46etGCx45C/rRkcELQA5WDAE8Cn8Z27ajIHmBloZiuCPWgALZ6flTS7bsfiKXJZuOcUq4PIFA7kYZuT60vy7sZ/4DT8ei8Uix5bn1oERsu3kHNJuYr6CpPKKnrxzR5fykAdqB2IfvHrxR5bScj86nWP5cY5xT2iXy9gfHNAir5YTrT0jMjAdqfsPmbdvFP3MvO2gCDyT3OKeIGKgtwuanaNdud9CqiEDO4UARRwtuAG3BpRHgsoTnu1TrGm75Tz3p8ZGcFs/zoAzsZ6Y4pUDY28Crc0S53j5f9moGjxJgrQBXmhK455zxTRuXJJzVzyxnOPu01ow1AFfy93A+tMOfM4WrJj4XFIISevFAEauSucdf88UrOWOD09Kf5JK49vu0v2dlwMc0AR7Sy47etBO0/fwBU6wsVyaQ2mVHPPb/AOvTuWQMA3vmkXCtjP0qw1qcNn7/APs0nkqS2eKAEWZSqjH/AAKh22njvSNHs5CcUmVwP1pE3Y7cp5/8dpnTIHekYBeWO3NPD4OcYFO4WGiEkA44pPL+bHb+9UjMeADx6Ubjtwf4aLl2IjCG6cdx7014d1O8zLZU9fyqVflwT0oEVGg3ZI5o8oFRtGKs7c5I6GnAAc96kCJVyuccCmbgOM81Lkf4Ux5M5BA+tWAzJIOeKawPJP8AdprMOhG1aj35XrxSuA/y29Kb+FAc7WAXNBIC5/SiwDl+U4YVNHjywR1qsW4wTU8IKr6UgLEbHkjtWjZX0+m3ltf2chiu7ciSJh2IrOSQluRzU0Z+XBoYI+1PCeoeH/2ovhPJp164t9ZgUrIr/fgmxww9j3r5G8X+DdU8AeIrvw/q9v5F3byEB+0i9mB9CKm8B+PNU+G3ia31vSpyjphZYTykqZ5Qjv7V9ra94P8ACv7YXwxg1DSHWz8U20RNrNjDo46xP7H3p/DuD0Pz18RZFvEOMbuPyrCRiDgd6674ieGtT8H6tPo+r2j2V7aymJ42XbkrxmuQjBZiKl6Gl9Lm9o0jRsM5Ibp7V1lruBAxx39TXLaOzHywx+hrprdjkZ6GmjMdrJP2UsOCvZvSuPh3G8x3xk11mqYNqxOW9vWuOhwuoD3/AM4oYGqWwOKay9c8inlgvy4pGYng/jQTcCQTyeaY7cfexTJHK9DzUZb5cj5sHo1O5QnUjaKjmzyCKbIwbgcjvSN6BcYosBGcFvQDp71WfO45/Kp5m2thaiZtx9qkBFx3OKtQh5GyOFXioI/mbkVehj2r83c5+aqAkjIxt65olbJA9KXOOc7+1NY/L97OKQDZJtu3PFUppGYYz3qxJ8yg1WmYMABR0uBUmb5qhb71StwTmouhxUdLFxEpV9aSpFpR2G9Br8cZzTac3tSL94UPe4D1xS0+FRu6c1IqhRimQQVf0eQRSTZ/iTj86oSYX39KmsZ/L80f3lwMdqA6BcYe4PoacpZVAqNpPmB+Y9qkVTjjnFAh0i7W9qbuDcjvUiYPy4z71G21mBHTtQAVMo+XjriotvzHHPbNPWQp8p4FACNGVb1qMsF61OSJBgGo8fdI61VgI5MbTxUNTMoY89aizxipAjde9A+9Tm6Uz+KguOpaEnyjuKKrUVVh2R+zviuQt4R10dM2j/yrpPh5N/xSvh1DxGLSP69KxL7Q7u+0+4tbhoVguIzG3OTgit3wrarYaXplksm8W8aw7vXbxnFfiUmrWP0qKdzkfCMxk/thcYcatN+prE8P6Bp3ipfH2jatbLc6Ze3pinibuGXBx6EdRWj4NmG7W3GeNTmOD9av+FtFm0+81+5mli/0+6E0eOuAMHPvXVSk6b5o7o1qRU42Z+Z3x8+Buo/A3xpd6fOGn0eZjJpt2wyJY/TP94dCK8whVWuoD95WYZH1r9dfid8LdD+M3gu48N63gE/vLS8AHmW8o6EH0Pcd6/K7xJ4Lv/AfjS+8PalEYr+wnaKQNHgEA/Kw9QRyK/RcsxyxVNRn8SPh8fg3QnzLZkVz/rP60kcwWQY6025zkkjBqBA6sMcc9a9xyseSfd3/AASuvZ4/i94veOXypF0JyMdcjJB59DzVbWv2tPjPcaneRr8QNUtYlldQItowFYj09qtf8Ep4Vb4m+OWYb3XQ25P1NeP69/yGtTCfIVuJBg9OXNclF81Z3Nqv8NM7S7/aL+LGoShpfiVr59QLjH8q7T4G/E7xvrXxV8KQ6l4z1jUbefVoInjuL12DqSDyucYrwSOJxIqn5s16t+z5GIfjB4MUAf8AIWtzke716XKjhjJs/aTbRtopa4zoG/hX4c/F6zX/AIWt4rDfvCb+br2G88Cv3G/ir8SfivGW+KHiTCZT+0LjLe+84rSAji7OztFjG63QE9eK9M+ANvHD8aPCGIwN2pwcqMY+evPfLCj09RXpHwDj/wCLweEZf4BqkCZ+jAitlpuZX1P2apCu7rRmk3Vymwyb5YJAP7p/lX4a/EC6MnjbWWJwftk44P8A00PNfuTP/wAe8v8Aun+VfiB42s0uPF2rsQ29byb73T/WH+daQdnYiSuczFcSNmMH3GK98/Yzkab48eDicf8AH2Rk9/lNeGR6dOspGw57c8HHWvf/ANkO3dPj54NkIx/pOMcYHyGt27oyV0z9YfSl4paK5DoON+MDMvwr8WlRlv7MuMf9+zX4jXCt5khUD39a/bz4sKzfDHxSF+Zv7NnwP+AGvxj/AOEM1e4u98GkX8hwfu2zkfTpWtPQxnucZd7iRlMewrb8Gs0Vn4zYJnboFzjP0x0rqYvhL4p1SQvF4U1yZMcMljIf6UXvwy8ZeDPCPi/V9W8LalpWm/2RNALm9t3RCzcAc9zWmlhK58f2ZK28Y9IwKsFeMH5RTYLeOO3jXfn5R8v0p20dD2pGg0gvw3FSFmbg8gdKjEmVIXk9lqTkNgDJ60AJtOOOKXJHGOKGYjcOlIzAEfNQK4Mxzg9BTQDnO6l8w5z2FKrgjJoGO4ZgPuj+9SNnOeKFKltvftTADuGT9KCSfytuCRwaN2Ag+8D/ABU9HB6fiKTaWUD1oIIdx+tRsu5eMjmpWPljC8/71Qtnb70FijBbnilmORnqexpVX7ueM0mCxCg5/wBmgm41sE5xxilVVwSKQrtH1pdhY8+lBQ5AVp4YNJk9/anLJu/hpec8/Lmgm5GOBih1DDB4pOT9Kc2FwAaZQxcfjS7iT156UnHbpmgKWXd2pAHvtoxtGc/itK7Fk2EYpjRt0bigm4+PqSO/WnMpzjHJpI1LHGGPFSbdvy7ttAXHqoRsgbTUbSMOWHy0rSBVGTmog3GBQFiTcCp/2qCv38dDTONwHek6dKdwsSMu4g9QOm2mNyST93pShtq4qMEUgsSBjwB2oJG3LPREB82elOUK2M+vC0BcZu65GfrQxGW/WnZXOT/3zUbE5yTQUHBYhfmpwwqk/dpI4xjn5GP8NHHUsq0E3HNhjgc4oGODtxjrUY524P8ASn9QAOpoKF3NITkcCl3BuBtoYGPk/hS71Xtk0E3BQ27d1FJ1DD/PFObEm33pu5fly3zUBcaZC0nde1S+g3cU1pN3Cj/gVC4JUGqQhvXr1pOc/M3/AH1T5m+XFMbhd27tzSHcO/A60vylR606NfMXJpWU+VgUguQsAetITzy1LgHg801lwuN3+NBQrK/ynpS5LFgE4pruflB/8doyBxQQLuO7ICgmk2g896PvDijp0ODQAc4Ofm/xoVO4GM0hK8KD/wB80u4Dj71AB91v89aUZ70nsec0u49KAG/8tB/tU+PDOSdq0igcluVFJGo8w5+SgB/lkKGH3h+tJxtyOM9qcVG5QWzmmSbN4BbvQAu3cOX24pPu+1OjUMu4PihVLfhQA3HLH3pwkYHlqQjJxmjA+lBZJLt7fjVcMWkwOp/h9KkUdDTTw24/jQQDMVww4xU+5ZI8kcGosBvl3UfdOM4oAkb5OcMw77aFmVlO1ev50m49B1pVReoT5aABWRW4pd+4lT/47Ufl4GMk89acilW3egoHYe/yrjrn+9TWbexFKjBlGeopjqCQV/75oCxJ5O7nNIQvZc03zDtwe9OZgy80D5RgUM2Mc/zqVowzbs9KjXEecfepjXBDYbpQSTrt5J2nHApAyLnFV3uc7ajN1nJwP+A0AWtys2ScAU04zgNiqq3AIAPQmnrMGyB196CyYyfN70zeSGAqL7SN208nvTJJl7PQBNJIVYD5T6VEzLkdqrSTqvO6oGvQrBiAQaCDQ+0B6crIygk1l/bMHK85PJpn2wtjKcD+KhFm3H68VFKxLYPIrJ+2BcDpg/do+2ZUEHNMdzQL7eGP04pBc/wseKzmunYlTytNWdvlWmI0lnHenG5QY561l/aD0/rQ1xu6ACnZAaH2vcgKkmmNcBm9Mf3qoNI2OKRpmPtSAsvJvyAe9M8zcoBOc1Du77/0pjNuOai4E63BXoKkVyufeqvP3fenxSEZy2KfMBaUjo3rzU7SHtwKpw4K5xwRU8L7VZadgLkbE7SRye9WgpjX5u3U1Vj/AHigelTbiQfwApIExzbiuDiuy+D/AMY9c+CvipNU0t3uLNyPtlgScSKP4h6MOo9a4vk8UbQASevY0bgfVn7aXjDwb8YfhJ4Z8b6KkU2sfaRbzXUfD7SvKSD1Br4pi4YGtnU7iZdNMCyyLbNLuMKk+WW9cdM1iR53DAzQaW0N/S2w8ZNdNbkKuM5ye/aud0sDyVJ69q3rcZIJx7rQjMXUR/orsM9OB71ySqBeJuGOfzrsNSObVyBu/wAK4r5vticdXz81DA1fM3DowxTVfeGFNaRT0XpTWJ2/T1FBNhzZVfm+bNQsB0NO3HOTz9agYfMf4hQUO6ZPb/ZFRnOHwcfWnbtqv7D7tMXAzkZqgIWy21uppnJz+dLIMMwznmhF3Z5xUXAnhwM5H0arceSwJGc1Xi+91qzH0bPJpgG49No/KhyrcjrTgdjBSeKZKyr7dadgILmUqvHeqMhGMHippv8AWY7djVRmLYz60PawDG6UzPNLJTazNErBViNQy4PaoY87hjrU7MVjBNC0QpEDfepF+8KGbdzSx/epbsZahVV5PzelSzLlc/hTLdj3G0VJNwoFMzKcijdx81Fu21z24okG3PFRqx3ZoLWqJOwPqanjYjbmq9TxHfjPFBDJQw3ccH+9TAdvI60rK3U0Nn5cjFAC7QzEr/3zT/L3Lg9elMjxnr+FSKeuWzigBJF24/h9KbJnHB3/AOzU3DcN83FQcqMHktVgRMxUrn8aiYg9Bip6ikX+KoAZTO4pzZxxTOd3NBcRaKa3WiquUfq3d/GbxT9nlZPDUMATJPnS8gfQV634M1CTUNH028ljEUsyLI0Q6IT1Fc7dW1u9pOTApwpPT0FaPg+4kOh6eQ+Mrx6da/FqjUl7qsfpUZdzB8GzJJJrK/6sjU5kPPXmue/4WF4sudW1Gz0PwpFf29pcNB9qmm2cjnkHpV3wnIzTaxzyNTmz9c1T8JyGOXxI3QnVn9f7orqhZJto1leysWX1n4mXAyPDmjW2R1a7PB98V4r+038L9b8VeEZ/GmvW+jW+q6PjzJrMnzJYOm0+uCeK+iY5CFQ9civJP2sdTTT/AIK6vCbjy574xwLFnBcFsnjrjivTy6tKNeKgjysdCMqT5j4BumLHJycUQqwPDZzUj4MkgHr09KdDIkbfMd1fpNj4U+4v+CVNwY/ih40i5Lvob4xznGTXJ3Pwv8X3+r3bQeGNWuBJO5+WykOcsSOcYr0j/gkPAh+Mnix3A3jSBt+hk5r9awoVeAB9BXPCPLUckaz1ikfjDY/AP4halhrbwNrh9U+yMM/nXovwX/Zt+Jml/EzwzqV74L1TT9PtNQhmllliAARWySfTFfq5ScV0c7MIpIxbnxloFnkXGuabAR1827jXH5msm5+MPgWzOJ/GGhxn31CL/wCKr8dPilDHdfErxK0rzP8A8TGcBS5wB5h4ArnYtIsmky1sr896lRuTzn7NWv7QHw4vL6GxtvGej3F3M4jjhhug7MxOABj1NfHXij/gnv438UeMNX1WPW9KsLe9upJvKlLucFiR0HpXzh8E9Kgtfil4QdYkQNqcGAAB/GK/ZeqlHltYqMuZHwFb/wDBNPXZAn2rxnp8WOohtnOfzxXXfDn/AIJ8y+AvE+l65J4w+3yWFwlwLf7NtR9pyBnPH1r7QprfcP0qLsOVHyr4s/4KKfDbwrq95pklhrd3eWjtFKILUYDg4IBJ9a5mT/gqD4I5Ft4S1+c/7Xlp/M18MfEaEL8RPEhHJbULjP8A38PNY8EMTAbxn+lbRimK7P0R+HP/AAUH0z4peNtN8NWfgu/sTfzLB9oubpcDccZwo/rXez/sOfCa8vpbu70i6u55ZGkZpbturHJ4Hua+DP2alS3+NHg/ACIdSiGMc1+uv8NRUjy7DPEbP9jH4P2agDwfbykd5JXY/wA63bH4C/D/AMCxSavoXhax07UrGJ5oLqINvRgpIOSa9SrM8RH/AIp/VT6Wsv8A6Aai7KPzd8T/ALf3xYW+uLfT5NHthFIQN1lvJAPua5i9/bk+Ndxgf8JDZ25PeOxjH9K8N1+8kk1S429pWG78TVa3Z2jXe/P610Rt2M/ePtn9j/4/fEL4mfGC00rxP4lbVtNmtp3a1aJUQ7V44A9a+84rG2hAEdtDH/uIB/SvzN/YJ3H48advGP8ARbjCjjGE6/jX6eVnUsnoVHYRV29OK8C/bsuY7X9lbx80gXDWQUbvUsOnvXv1fMv/AAUXUP8Asl+Lz/1xP/j4/pWUdxS0R+F/9niVty8HH8R70LbNGx/jq3DNG7cfJnkemOwqfzFWTJbBIrpMeaRQMQyDjJNPMOTjP5VZMilmYJzjiljUSKSdtPlDmKclqdw2p77agSCQZ3Jya1TBtKn06UvltNx6UcolKxkPF8pZRyOQKiaMBs559a2JLE55PPX5qb/ZqyYxgOf4qVjTnRmBMc9cUMuMA9fbpWjJYqn3+5pn2POMf/XpBzIonKyEhsf71PWTbHuPJHFW5LMMMjk1Wa3ZXwelAtCDztxxj86ZwSCPXpUhhdBkrTmV8E7F7UBcbu28jikwNxYnGaBIQoprY5A+bbQFh4AVueop27nOaj2qeM45521NIB/C3OcU9A5gXG7FNb/WfjTm3Y2ryeny1HuYtkDP+7SESMAzcP8AMelBTOW2/wDAab5bdM8Z59qT7v8Aez6tSKGAHJo54ycDHFPbK4y26mM2V3YH/wBamA9TtwwPPpQHfdg1GrblOKVcdA3T+92oCxMrHbwacybmJPHvTS2f4frStIE5xz9aBWZGRuwFHbHFCoVOSM54oVjuJ7H+VO3Fm+7QUJgno1IzDbnDHHSl4x/7LSElhkdem2gBocFUIGPY0DnJpCAev+NOAA4xQBNztyWp20/3qh2sx65p+PLxmgghkI4GWpQecCmgHPpTvfPTigscuO/y0m07c7fxpNw2+pNG04zQQC5Y80q7e9NwM0Fd3/16CyaRuAcZ/wBqmHd1A5SgdCB9N3pTdz/daggcXPUcUxv8igj1oKHqeM0DsTFTJGpP3qa7fL60xcr/AMBozuXOc07iFOewbI/hpMDjODn+GkLJ2OP96kXLNnGaB2JWclcZ6U1vujHSkDYFG4Btvp/DSEIfTP5U0kng84pc5U54zSfdXk5xQO4ue/akZSzc9KBhlyRS/XmgQRsU4A4/2qVtrR5KseajXP3TS7vmwOTnNADVUlv7vepcdsY+lM/1i5FM3My8c+hoGSrjaMcCk5Vsdv7q0zrt9qFBHU+/1oEP5PGN/elZeCF+X60zzR2609Qmf4smgAWT5Qpp/DKCV+lN2rtAG6nKw6Z5/wBmgBVXcMgf8BpNx3K564xSbm2gZ5pGbuaABckkjjNHtuFMbDFs8j+7Ttobb/CaB3HcHBHpTWG1t3TFNbK8jvSs/wA2D9aBCxyJu2ucf7VB5HFMwSvHT0prbj93rQVYuRqNmTTW3KwJOAOKrrIV+U9KJZm/vdaCSVW287eKGcKuBwKr+ft4wM4+9ULXfzY6/jQWWhKSc03zPmJDYNVWumYg9xSNJjr607AXDcLnl8GmNcJ90HdVCaTzGK9qjX5mzu5osBc+0YZgDSfaPlOeh/hqssm1c9e1R5LOCaLE2J2uNrY/9BqI3J+fn6VFu5Ix0pVYMMiiwWHmc8VGszY/1rMB/DTS3Tvmom2/w1NyiZrhzkL/APXpv2hsYGMUm0MuQvNNYhuc8+lFwFyWYAnIzTc+lKMngZNNONv92qsArHnHP40m7LEUe1B9c0kA3hmwetC7sGjjdgUtK4CYP+H1pcE9KKKLgC/LxS80lFIBd1Kq7s84FNH5U/7ynIx3oAZRTkba2aRsdjmkAlLnFAxtPr2oDFelAEuWXAq1Cu7ILdPQVVjB6NVmORd2BwfrWiYFuLK5HvVnYdvK8dqihi4BB4zU6ADj19aSBDed2R1pHkz7dqlYYTAbmmNIvOaB2Rl6sg+yuR/CwxWNH97mtjVlP2IDsDmseP5cN1pXK5tLm9o+Cp4yDXQ2Kndkdv1rnNHVFcseo7CunsyJNhA96ZBLqAVrd/4M9a4i4O28QjgbuPwrurpcwsD3GK4m/XF0VHPcH1oYFp13MT7ZpuTnP50DLEEjdilMYkJPegCLJ678jvSSEnGOnWn57Hj3qNumc43dqAI+O5x9ajJKkc7P9mpWZs8kioZMNx/HTAY33j9afbqQchcimbTkZ71NCxU4/wDHamwEsP3tp796n2lWJxytRqy7gMZqUMeQvf1qrgBb5ePxqvLnd7YqRmw3THc4qGSQbjntVAVZpPm+vQVXwV46GpJTngtyKhashrUY3pSUUUjQfF94UsknYGo/pRR0AKdH94Z6ZptOT72ahbgXol3N0yKkkUbcr6VFD3HX0NOk7AelWZFablvSoF6471PL96q9D0RcSRamiY+vPaq9SR9BVWE0XF2yN8xxxTJOuA2RShWKdeKemF4796kkjHOCq09SWXB+X0oH3uEpQNrdMDFVYA8wN0b602T0J/8ArU9vYZzSfKzY4zTAh6fSmvlvbmpCC7Hjmmt371AFd8c46UFg3BFPl+8fcVEue1BSEZRng/nRSNjPFFBZ+yVwxNpL2/dn+VW/BTH+w7Dd2GR9M1UvQUjv0IwyK4wfYVJ4MctommnGd6g/r0r8Yl7qP0qKucx4R3edrJcbc6jL+HOeay/DDAS+IT66m/06CtHwe6/8Tc9f+JnL94+9Zvhtif7ZYHIbUZee5Irrj8LNpbI6aG7+ZEPSvmn9tKeX+09EtyV+zG0LHI6FWzxmvouA7iOM7Rmvjv8AbavJZPidp1sJ5jAumq3lZJQknkgdB7162UQ5sUjxcylai7Hz9dXRdSFH3j1psKjG4nBx0pssIZhnip7cL5g3cjvX6Lc+Iufoh/wR9s2h+KXjSRsHOlx/N1/5aV+sX+FflH/wR7uo2+InjpMDLadCRjsA1fq5uFc/MuZmktkOpv8AFRuHY0m4bqfNHuQfin8UIifiJ4lYn/mI3AwB0/eNXOW6ndkdRXvnjr9ln4q+IfG2u3+n+FJ5Lae+mliaSQJlWc88nvVew/Yn+L1zH82hw247brlQfyzS+sUor4kZeykcX8GpCPix4NyeP7UtwB/wMda/ZA/dr84Phr+xD8S9B8b6HrOoJp8Fvp95FcNGlyCSFYE1+jnnL/epSxNOaVmaRg4rUlpG+6aj84elMaQbSPWsniaS3ZfKz8T/AImTKvxE8RgqA6304wB1zK2OaxoZQeuOg6ZAye1fodqX/BPPwjrmvX+paj4j1J3upnmaOELGBuYse59amtf+Cefw4tFxJqmquT93dMox9PWksxpLYfsX1Z8g/s3zH/hcvg6I5JGpxHOPev166Cvmnwj+xr4A8Ca5Yavp17fJfWcyzxNNcK43Kc9D617/AHXiTT7CPfdaha24xndLMqj9TQ8dCo9h+zaNiszxJz4e1QdM2sv/AKAa4u8+PXgW03g+KNNldTtIjuUPPpnOKo3H7Qvw+laW3k8VaOI9nzGW7TaRjkEZqHi4LZMpUpM/IvWreFdWnAVndZZMgA5++famxafeSEeRYXMg9on/AMK/T2++NH7P/hOOF5NW8Koz52/Z4o5D+gNUV/bC+BdssgbWtLtkTlc268/QAVnHHVOkGHsUfNH7Cej31j8btOuLmzuLdTBOuZomQcpxgkd6/TL618qyft9/A/TZAYNd88jj/R7E5H44Fev+AfisPit4bg1/w1ZtcaVNIyRyzfIXA68GtI4qc1eUdQdO2x6XkV8zf8FGpo4v2R/GjPyNkXH/AAMV73a32rSM4l0wIP4T5w/Wvmj/AIKXzXEf7IPiVnj8uQz24YA7hjfWkKs5PYhxPw+t7gyK7dM8D6VIt07dTUDL1G3YDyBSq23AzXoq5hoW1nZWJ/8AHaljvlUrkdaobSpwWzTmHbr9aYnFM0kv8devoe1WI9QVTyv+NZO47iOG/wB2lUc+op3YuRG3HdrKp55/pTluF24J6Dp7VixSMqn3pgnbqcr2ouS4G9vS4yAOG6UNAzHIOMdQtYy3nlqD5nfAWpY9RZWLdO231pEOmzc8tOg4NRtao5O1OcfWs+O+Krzuz2/+vSSatJgKrbMda0uhcsuhcNiA3O7mmtZfu1BC+tRx6xC3LNyOtTtfRuEJVcUXQe8Ma0TbhUD9uKqyafvkPyVorfR4AEYHOcDvUyTQNGxBGR270xe8YTaUd2Qcnt7fhS/2bKGYY4xW4uxVVwMFqcGVsgAZB55pcqFdmAbOZcEDjv7VBJbSQnAGM10q4ZgV4zQ9n13OGz/epcoXObZWyN25T/WmyRtt6V0MmniTouD0OKj/ALJ+XblSP1o5Q5jnTndjeP601cknDfd61vyaTC8e1kIKjn3PrUTaSsK4j7/zo5WNTVjFGXXgLjt6U5Ijtwsi81oNpu1sZ2+tR/2fMvQ8dvpRyl8yKojYNjdwOOlDbo+2c1bktjCy8tzUZhf5yye3zUco+ZldnbjIGSM0F8cc+/FSYkyGK8dPmpvyg7d7L7NS5SuZDBLzkLmgSMWwafyuARg/0pnyhTnnt81LQdwL+lIMuQM7KCoH3DvHrT1wy5U4x6+tFhXJNu47RzTJGJbvimfO/U455p2Gxg80h2EwG4PAP86FQZ5OKVeGI/nSCYZ24yeaBg2PmA7tmhiT1pu7A6U7O7tx/tUC5RKQ8jml3E4pykY2jkj8KBibflzR34qQtv4PH+zTWyzc/LQQMJHI9KTnI70udwxT/ukjK5NBYkbclXGMU1pEZuuM1JJ91Sf++qhZQzFvXFBApjPU96Wm528H5qkEhZeOKCwYnPXNIQdxb+9SrluC2PSms3HJoIGttUdKSTG04/Gk3ZIO7YaI/lkweaAJGbcQM9qQAc880Me2cGmMf4T8tADWADMB0p2Ru6dqQsu7JpwHzc7aB2Gqp6/+O0vLH3pDhRzTS4PIGaBj92M9+eKSRtpWmj5uCD6U8KMZPUcUBykZILZAwak3buT96mMwJO0cUquFBxzQSOVivHU5pVzyV79FpruNq88U3zArACgZPxu+7k4xRVZpA24kYNIbjPA65piLOB8pxTN3y7jVVp/mw24Y5pDMKALbOSuPWmF1Y8rz7VVWYbec5p6zfLjgCkWWRIBmmPKGLY49cVV809+lAkIJOOtA7kkkpH1pvnDtzmmCQbcf5zUauG4oEPMz7lBANV5l5yPrUysG5xxUUh3H2oAQStuUMWal8xsZzxTaduC8KMnru9KsBvHfinbR+mabuOf7x70u5s7NuB60AI4HVuMdvrQDhgc9O1NXPOTu/wDrUirtblutACtnqOtH3V47UdOnNDZUcfjU3ADnvTHVfoKduK/T2ppba2D0qbALzziolyfl7Gh2DcjrS7iytmpAB83+NG0559KPu9PmWkT73NVcBjDcRj86c1DZ3Y2/nTGxt471QDqFXBGOtH+TQwHTqKzAVm3c0jdx2oooAKKRc0tACqfmyaerblbNNXJ4xkUqJu5NADwu7bn/AL5pjRHb/SpM+3GcUi+rH6VVgIaPbvTmUjr9Kbg/l1qQJl+9jbirEcYSTdn5vSqat6lvwq5CynBqkBehkG0AVYD7gAaoRsVYYq2mVbB+YCqSAlZSwwODiowh3Zz0qRXGM0w7lbjpQMoaxg2Z+XuKwo/fpXWzaPc6lpOoS24Li2CySIOTgn0FcpH8r4YY9c8VFgS0NrSVzzjnoa6eyOBtHArm9HeNuAwz1P8A9eunhhVUwTtzzVD5Se4bdFt6ntXFahGfNTHO78utdzdKrwhflAxgjvVrwP8AB/xB8TPE1hpOjaRfyieVVkuhbN5cSZ5ckgDAHvSROiOCRtre1O2lvlzx7V3/AMcvgrrXwJ8bHRNUxcW1wpms7of8t4x3I7fSvP8Adhvb/ZqtguM3fMR2Hemvyoz8tDZX7v1qNmOCR0pAJ5nOCPwqu2dxb3qRm3c/+g1E+3tQAi4DDNWoVO4fzqCOMOcbqswjbgjgChASqoZuRyP4qH+8CScgd6WNuhYYpjFdufw4oAi37ATnFV5GH4jOakkkDZB5qtIw2/Wm3YCJm3HOKYy/7NP+9TD7HNTYqIyilak9ql6MsKeVPA7UvQjHWhl21VhXI6dH96k3U5fvCkMtR5XHenthlHy4amR4KgU5st83akZPQgm5wKr1ZkYn6VXbhuuaHsXEVV/Gn1Gv0zUi/dzR0G1csrJujAx1pSRtGBzRCDtyKVvQj9aDMlRUZck/99Um3bgCi3w2Q3SpGUscAgAdqsBu3I9/So3+Vf71PZQSDTWY7gSNtAEXRuD+NDHcc4xTm3beelMqAGeWDnLZxULCrDdORmomUKOOc0AQUUuw0UGlz9i9cmeS51Jx/GXJq34M+TSdMXd8gAH61kalK8b37MeRv6+2RV/wf/yB9OAHDRjvX43V6pn6TBrZHLeDyZF1Nd3yDUZcAdPvVT8OkLb6pnI/4mMvXHA/CrPgvEi3+z5f+JhJgZ96peHZBJbamQMEajKPyNdC0TRt0RvwMY4+D1r5Q/bi0EQeKPDWrxlc3No0DL6MhznPuDX1UmOh6V4f+134Xg1r4ZR6jEGku9IuFm2A5AjbhyR9cV6uV1PZ4mL7nl5hDnoOx8WyMDxT4WLfQU11WReu7qai80quRx71+jWPgz64/wCCfP7Rvgv9nf4ja5qPjO4msNM1Gx+zrNDEZMOpzzjnkcCvunUv+Cr3wEsrGWSHUNWvJVGVhWwYFz9SeK/GTzt0eMZ/ChGKgltvFcdTDxqyubKo7WsfrNN/wWM+Gkdu7W/hjXp5FGQojUD8yawbr/gs74ZSzYweANWluP4VMqqv4mvy5W6XpjHFCkMu4ip+pUivaeR+kc3/AAWakZzt+GtwE7D7UP54rNh/4LKa7HcGQ/DuGW3OcQ/aiGHoScV+ecTKrZbkfWpGZVwR1PP0FP6lR6oXtnax9465/wAFgfiLqrf8STwNo2lIDy11ctIf6Vymof8ABV745I2IbPw8gbkHyS/H5ivjThVAHHenyMW4B3EetUsNRjtEz9rI+oNW/wCCnn7Q+oxusWraZZe9vZLkfTNcpqH/AAUS/aHmg2v43eID+KG3QH88V4RlgCPSs66kbbIDx7dq3WHpLaI/aSPZbj9sr46XknmN8SdSzIM4UqBz26Vl6l+0p8UfEe19T+ImuXLQkELHdbBn8K8OLnzOT9K0reQZTB+tP2NL+Ur2k+567oH7QHjuz8QRX2q+IdV8QWIyJbS6vn2SA9cEEYI9a2/i5428LeKrO3ufD3ivXftEy/PY3F3I5ibupyeR6EV4rHKytgdKmWRvM6D8qr2UFsjL2kjs/hP8Pbz4nePtG8K2V61vdalOIluLiVygwM8gHnpX3/4H/wCCV+p6h8l74xs3KjLeXakkA+pJ618cfsfzRQ/tJ/D9ncLuve/TJBr99fC+ljTtNzjbJMTIRjGM9B+FOUUloOMpdz4y8P8A/BLHwtp8KJe+JLqTAG4wxAEn6mu50f8A4JufCex51AapqpzkCW42D8gK+rzntQvSsrWHds8N0T9ir4MaCP3PgiznPrcu8h/Vq9a8M+F9J8I6TFpei2EOnafDny7eBdqjPXitmqd1qVpp8JkuLqGCIdXllCgfiTRbqFy1Xyv/AMFMpBH+yH4ryOssA/8AH6+jYPGWhXasYNYspwnB8qZXwfwr5K/4KpeO9M0f9lW+sZJGabVryGK22qcEqdx5+lXHcl7H4sbjtJfrjtTPvMCFoZg/Azsxxn0pI8L/ABVuQyRcAf3acG7H/wDXTN2CB2p6scBg1IBy5Xt70qsN2fzpcEHjGKCpbrQVyjix6BqibBGT65Bp7LjrzSqofq3FAhitnI70GPmnbfmPy8CnZXoeSKBbjQ5I3Y6Uxfmb73Jp0rBgUAoBAVcHBxQWlYWTbtI71EswWQZPT+GnMQo5qLB3ZPy89KZFyytwccZpTdSq2R9KgBwOfzFKuRyKQF6O8kkXEj8CnpqbbsEDHZqz2IGSKF3t8x49KZFjXh1Ixt8zVZj1cscfKwrnxlTkrupxbAIHpQm0LlXU6camkigjsf1qaLU0HA+bPT+tcmsjL93/AOtTo5ioYgYFVzEezR1skschbuCe9Rq0YYqRya5v7c/TOMUv2w4yzcVXML2aOk2qzDI471YjjiVcbec8VzMeqPGuN2anGsHbknnvS5g5Gb0kMe4MwGee1R+XGuARknjd0rNh1hJF25wRUx1dWPPIzS5kTyyLi2cDE7kBPZTVaSzjPbGfxqWG+gwQ7YOeKtLcQzRkCReDyP8ACtNHuZ2kZM2ixzKT9w89e9VpNDG4BZGz3rbe4EmMnYOh+lNbYrNjkjilaJV5GKvh9yMgnp+FNk02RVwUzjjatbYf5frSqoUEEk9xU2GpM537NIoP7vpUcsci9j+FdQmHjO3AHPHemNDHJnbjHQrVWK5zk9oeQJ82cfw+tIsbM3yrjB5DV1DWcW7/AFYH+739qRdLikOS/bvjio5R85zLIFkwdxP931qM9Nyjj0PWugm02PdgPkr/AHu4qpJpvykduzLRysrmMnpgn5e233pyNgnjbVuS1EecjeT/AA1BJDtYYTHpU2LuNWQsFNKrbeCQP9qhcdSOvam8j6dqQWBj3O7pxTdp5NKoC9Kdu+bNBREzbvwojwVNPbnnr/tVFtHBoIHxr5h2pyPWpfLJXnccfw0kcgjVif8Ax2m5duf/AB2gdyVpkU7SKrzMWZV7U9UVSWPAFMZxuWgQwqc/cp6j5Mj+Kl52/Somk7CnYdg68fyqVcxqcfKahC4Bwxx1/GpI1Y/L7UgsBYt1prHdUjRiJchetR5YfxcUFXE+Xgnr6UbupxRkenAqQOmw570AMDBmGM4NSH7vtmq/GeOM9qerHqeTTsTcPu5IOc9qarenNOPr0NIGAUg9TSEG8kYI+gqOj3pedvFMZE7noabu2tw3NNKDLHtR755qQsNZm25PT+7UbPnbnotSsisATzmkjjCnOOMdvWqKIzIFDHBIqQkNGee1H3shlxSj5l6daQDIW3Z5zUn3jwKQADpS85HTB9aADjB4pMdwvNLuwB83NM/iwPqaAFbhQAtROPl3D8qcrs3A7U1hgL9KdgEpQTtAB4PamljkU5VyM7sGi4CUbuhzx396VV3KcjjFNX3GKoBc44xgYpP1pzKMZHTpTGfoADz0oATcGUY+bNNH8THoadSNjbg1ACAE8DpmkZt0ZIo5Vc9S1KzL35xQBHjHzEcUhILZ6CnsDncOaG3OPu1ADMjbjvmjd8uDyKBkcinc9/lx/s0AI2GUDniot3Lc1L94be3WmSfd5qgE4YgHr1p/3eMUxW+YjNOqQCiiigAooooAUckCnqd2SWx+NR1Jt2/x4oAdznp9aJOVIz0o3c7fbmkOVOcZwKq4EbNuYmk3fw/jS89elJUgPjzuqdWKjpVZW2tk1bjw6Y9O9MCe2Zm6rirSEg1VXHHYVZz3+7WoEy52qSMjtQWXbjrxyabuzxu4o5O70IrMVzuvhJebdXvIElWKWWNSCcfOVPTnrXs9rpOm6lMU1Pw9pd+D1861UHPrkYr5R1BXWFpUdoyoyCDjH0xWloPxc8W+H9i2eszbFIwkwEg/8eBpX1BwufY1l8I/hxqkcYm8FWI3Hk28zxnPtzXS6X+z/wDC2SeMr4SuQMjf/pzcfSvlfQ/2pPHtqoGdLnjHO2a0HX14rtLH9sTx3Esa/wBk6E5/vGFhn9aoy5JX1PsDRvCvhL4XeE9QvfDvgOz1CWEectvNF580h6Yy2Tge1esWOtPJodldvYLp/nwJIbKKMRojEZKnGOlfno37ZvxQQZ099I0t/WGy3nH4mvNfE3xs+IPjbXrbU9c8S3l+bOQSxwqfLgG0527FwOcd6d7D5HI9z/4KJXV7qnirwdcy2bJbtaOsdwPuE5+4D6gda+Q5IhHk++M1+nXxi8H2X7Sn7Hdn4msI0fU7SzGo2vlffjkRcTIPwB4r8wQ3AXONwzg8/Wlfm1HT2sxG+73/AAqCZT16D61McM2Ov+1UTNjK5607GhDIucnpQrYU/wAdI33Vx96lK5VQKRNxysNxx1qyuOAfuYqOGI9B/wDqqUn+9k/1oRQEnqORUUq/MQOKkZlSQEHAqGRg3A+6etMCu3y59qhlb0x835/nUjKcZPy1FJtz1z9KlsrlIs85pKc33s44o4bpx7Uua+xb03GNSr+tKc0i8092BKijbmmdTilppbmmQJ93oaIzzTadH97OcVJZbjwo9T6UpYnqabGpapmUYA6U7Gct7FdhxgjiqzfeNTzN2quTk5qZbFIF61JHnkCmf5zUi44HQUdBluLDDGfpRK2WximxMVVT+lOkHze5oMwhPO1hwfSrG0HaQvtVVScjHB9alSTLc/r61VwHs3r+FMLbWz1DdaWTLSEbsUo6YPrTAaP3i5/KmtGFXPelG4dd3tTtu0Y6+1KwEJ69MVG0eTnpUjLtbFROx3fMtSA1oz2optFMd0frlqcwlbU5Cnl7vNP0zmu3+HHhcal4H0u981vP8jPlAdcdf0rpfil8KTH4RvdatLL7HKsLTSKMlJ07nHYj2rE+FHiWw0r4f6X9suFEscZGwdevFfmEsL7ObVU+9hWdSN6Z5L4HwtndtjGdQmxxjjd396h8J7Wg1MdP+JhN1789ad4HuTcWV7IwODqM5HuNx5qv4Tk3WeoOXzuvZAD6gGuPuer0R0DxhgMEAUun6TpWqNeadqtstxaXkDwvu7Aj/JquZRt2inQyAXSOzhY05Yk4GO9Ok2ppoxqJcrTPzf8AiR4JuPh3441bw9cBh9lmZ4S3/LSEnMbfUjrXPRxFuGI/GvRfjl4hg8WfErU7y2JkijYwrM5ySFOOD6VwO358nrX6jRcnTi5H53VSVRpDFAXOajmYMu1dwzU5Y84qHnOMV0c1tiCFU25xzUiucDO5RUrDaFA61F8zcr+TVJNyTjuOaevzEDuagJfkbeamj+U5PegQH94nHUUL2BHPc08RhVqQxlm/CnYoYrMpOQvNZWofxsQSCK0iCB14/u1lajhcDfnbWhBkbRuz3q/akRqD97NZ5/1mDWlYqpXrg1mVcuo20kCpFYrj86bGgU7iVzStG2c/LV3JNHR9QudP1awu7SRre5hmSSKVDscEMOQRzmv2h/ZU+J3jPXPH2n6Pqev3Go6O1j5nkzgNtIQEDd1zX4sWan7VbgkAiVDuPb5xX7L/ALI8Ij+IenyKQR9lKe/+qBpPYcT61+IEN5/wimrT2eoT2Fwlu7RyQ4yCBwea8p+AVrq+tXWtJrniHU9UMSxeUZLgjG4EnpXsfjiMyeD9YReptnA/KvOvgLpc2n3WtNKNu9YcD6A1mtiz0ZvCOnyD999on/66Tuf61xXxe8E6I3w+1YPaZ4XnJJHzCvUa5P4oWct94G1SCEZkkVQP++xUiPO/2a/Dem6bpOuLFaxKVuwBkZwNg9a+aP8AgshJ5fwR8KgDpq4wO33cV9c/A/R30fS9WWR9zSXQbj/dAr5A/wCCy2G+DfhJWOB/a2f/AB2qW5MvM/I9W2xZUHr/ABd6AxwRjmkXJXDf+PUuD1rexA5WXuv1qQsH6H2FQ71Bwz8d6cPmI/ioAmLAEAc0rcsRt5NR5OAo780MCCB360i7kgcF8FvnHPNK2wgnv7VCSd6nGc03yQvJNAiXzNy7RTN+Bzk9qUHGR+vrQrZ74oEP524xR97cQOe9M6jnnmjcTkhsY9aCrkWMnoR6049h2PWgbn5PSlR1UctznGKCBQQp557YpRtIbHSowd3GOtSLGMcHigYqkjBI60rMWGR0FKSXO0jjrmkYhQfWgLCjGTmnY+bIVv6Uhc7snp1o3ArnNBdhdo3YpSM/KaTcMHFCtw3qKAsRNuJPTOcU8Dbye9I0gXonP+etDZPFPQixIp+bFI2evpQpIGOpp6qzdRnPvSGRxybS2Dz/AHfarKsWbNVJVGRkYOakUgj0z0p6Ealh52HP3s1A106/xcjpUm4btm7zF/vdKZkIvVf+BUXFYVb6RT8zHufrTk1Z1bI5H+1VZss2T+VLjjgd6LsdkakOrFTubkjgVKuredwxZTWJ5p/hHOalZmZMB8mi7IsjWGqKX2tJjPWpVugxJLY21iRoUJLHJHPy1IJN3z5p8zJ5UbzXUTfWmzTptwHA9Aawt2FX726mpIVbJOafMLkNl5mEeHINRte7owoPSs5ZSrHecYprXWGwPrRzMrlLc9x5oAY9Ohqs1wGOep96glkJU57frUYPy4FLmNOVEpZh1pQDwOpojZWAJqQzjqBz71IrjGywB3LSSMW696Ny7cjjNRtLubb+FAXHMwXrQFHUUigBcD5qVWGfmPGKBBtEnzE05s5yE4pPY9KRlZeS2Mc0AI3zcCoypMgAo64P6U0Z3cfjTsOxLjKSeo/hqruyp/hqaZgsbetVwxVsZ+8MGi5RLH0IPzE+tTL93191qNR0x+VSs3+0tIHoDFG+71HWo/8Ae+UUuRjPpUbZUkkH0Ap2EtBgc53dKmQD5j1NQ06OTa+M4NFhgw3Tc9RQRjGalkYbgW796aSo6ii5Vhu0Dkmmsvp1oUkp8tC/ewaESC5JxQyhhg0M3otQtNt/OgmwbgM/J0pjHdzt5FDvlt3aojII23ZzzRYom84eXnHFR7gzMM5zSeYGyDwKTzBtAxjIosBJwOCfzpGzxt/KkzsUd6Z5jFip+WiwEnEin0ob6ZFCH5euTR83fGKQCt/rAO60m4c460KBtBz/AMCoHyrx1z370AIq9CfypjsGZyDxT264GelRuu33qwIzndn+Kpl9OneoalweNvbr71AB5Z45o2knIHFI2Fb/AGaQEg8daoB/mHpnjpzTGy3RelH65/nTeS6+nepAFyCM80xgGIGeP7tP/WmsCfmHX+7QAmQ3oG96N2eDw1Kuf+A9qFOzrH+VAERVmYjofenbuXFNYnG09qPMOMDj6VICDjkfezRy2B+VLtOARzTeevakArY3c7cfpSU45P8AtUbNx+XkVVgG7dxHrRSlSvWk2t3HFFgAc8UUUdOBUgFFCgtxRQAq43DPSlPy+vtTePxp7YUY6mgBV+aMAde9JuKnjP8AwKl42jHyCm7jtz81ADaKKTIboaAHD3Gamjb5sYwe1QVNHGWYL+O70oAuKfmUE9evtVxThjxjNVI42CjJz/tVciGVIJrS4CM26lP/AAL2qTB5G3jFRSfdHHyj+GkQVtQkElnJx+FYKdeBmty8A8mTcuMA9KxYTtZfepNlK5q6fMBjPPOMV01mx4HUdNx9K5rTh5bKeevSugscmUHHfFUQaTKdv+7WZc/6LbvIPkA6CtfcMc9CKwtfYw2rpnIb5QKWxUT9Hv8AgmP4nXxZ8FfEvhG6kFwNNu3UK3Xy5lP9TX54fFDwvL4L+J3ijQ5IyDYajLEPpkkfhivsX/glHqzWPj7xppYP7u606K547FWxXgH7bln/AGf+1F44VV8qNrhJtuMZLKOayg9WFlqeGtN2zgVG8xPB2mgctuz2pw561vcki2/xZ96kjG7haSRh0C4/lTY23NhjxSJsW4v3YIDZ96dcfKoBam7wqjcd2KikkbdhKChrMZHwx+tXtH0G/wDEF/HY6daS3t1KwVYoRkn/AA/Gk0rTZdU1K3srWPzby5kEUS5J5z1Pt3Nfc/wR+F+h/CvQZ57h1OsHa007cu7d8eig9APxry8djY4WPmzuw+GdZ36HCfDH9imz8mK+8Z3zTzMQy6dbybUQEZw79SfYV7hpvwX+FXh2GCMeHNKkaM4DyxGRzn1z1/GvLfiz+0TY+Cm8jzTPeMCRaR/e9ix/hB9+a+fNY/ap8X3twz2ItdOQ5wI497DP+03+FfN+xx2O95ycV9x7PNhsPo1qfct18M/hTrypb33hjS5UAIBW18sjPoVxXFeLP2A/AvjiN38JalNoeoeXmO3yJIXOe+TkenWvj3T/ANpbx9YXCyHV1uAv8E0KFeTz0Ar3X4QftgW9/qEen+I400iWZsrfRyt5IPoV/hyO+cUnhcwwi54y5vmTGphaztax8/8Axk+APjD4H609j4k010hziK8iBaCQdsN6+xrzUKe1fr1Pqmk/GLwjLoXiOKHVNOuo9se7k7ccOG6/Q1+bX7QHwTvfgn4yexLG50m63S2N1g4ZM/dP+0v/ANevYy7MlivcqK0jhxWEdH3o7HlXsKmhRPLLOM84AqPpHnHJ4Fdn8QPBUXg6HQ2S48x7y1Ek0bdY5OCfwOeK+gbseaczbWMU/U45AqxJoILJ5cuMjvz3xWbHM0bZB5PpVqPUGQ8Yf2NAFn+xbqNSy4fGQOeeO+PSoZreaP8A1kTA4H8PHNWYdWZV2jnIIwD+lSXmuNcb4yBk7SXHHQYximQ9XcxpccZFVq0DskwCMAZ/WtnQfBb6/Dc3IuY7SzgGWkl/pUtXCJzGOhp0fofl+tS3Nv8AZ5NqyCQZwCtQH733eKRRejQtyefT60kmBjP5miNegoZTu2igzeg3nIx071OyhuoquxI6DNWNwkIZTx/doAcJNzZPzUjqG60v3aFYlcsOBVgMyRvyKTO7JYf8CpTGDyOOaZ5bAUAKVwrAetR1Ng9uAv8AFUXO32qAI5Btb5OlFP3FeORRQB/Rn4kQy+Frm1mPnwW9nNGnmcHlD+dfH/hiBbfS7ZWGMAgj3r628caodLWW3jwfNjIII6A8V8vXNj9g1Ke2yDiQgKenPNfB5xFPlaPtct6nn/glzHYThhuJvps89fmqr4dk/wBFuFXhPtkpP/fdWfB8M91bvZ2cfm3LXsoEUQ7lu/0rotY+Get/DyGNNUCyR3UjzRzQ/cBY5KE9iK+fufQXVkZq7mkCqjSOeir1rE8eazL4X8JaxcSwmOf7O0cfnHYMsMDrT/EPjCTwPZwaolv9o2SjIXkj3rxj4v8Axw1n4rW+p2xt4YtLAEm1I+X2/wCPevRwdCU6qfQ4sXJRpN31PlO+l23srAH94xJ9jVVpAxGOM9abfS+ddPg/IGOAtMhf94AFr9Hi7I/O29WycrherfShD947ecVL5YU4P6VIsW9OhBq7DIVwyjg1Cy7T7VdWFhxUv2YHHy8noKdhWKO0elA9Kurp+5igb588Y5zUn9lu0ikjEeOW96kLFGNSOtSfM3J6Grq6W3y+UHdBwDj065pTpNzHg+U2w/xDmrQzNkTJAback1m3Uatu456V0/8AZE8kYKQGRD/ExAqleaFcsuViBwecEHincmxxghPmZ21q2sJEJDd+a0Y/Dc/mkeVvPVcVtWHhG7utzLFKMcBRGTz3+tTdDsc+sZVAw79qm+zyHoMGu4t/hnrdwitFpl1IuTjbau5P0wK2bP4B+N9SI8jwvrUqN/dsJM/yougsedWMJF5Zsvz7po1w3u4r9m/2T4Vj+IFuAvIt/wAh5Q71+aHh/wDZM+KMupWcg8Ca88QlVi5sGAI3A85r9Tv2afC+p6L45t5L6wurLMLDFxCycCMDuPWpbBH054oUHw/f+8RrkvhmT/ampgjH7uMn6113ij/kX7//AK5GuU+GeWv9UboNsYI98Ul8LDqegVgeNsf8I7cA+q/zrfrnvHB/4pu4+q/zFShmX8NlVYdUC/8APcf+g18Q/wDBZyQL8H/Bykj/AJCxP/jtfb3w3bdDqh6Azg/+O18Of8FoH/4tH4MGP+Yt3H+zVbMl6n5Ls24ZAp4X72OaryZY5Ix2xTo88n1re5BKPm7Y9qduCjC8VGcbt2cUZ9fpRYRY3FsChlIXPUVDkg+tTK28cHGKLFC8kgikOcvzu9BTQSwO480HJ4B6+1FgHbSM4OTTeC319KD1wKcoGeWFIY1QMGmbgVy3ze9IzbmAxgZ604gDJHFMQHDN/Kn7BjJNNVQTzz7Um0k5569KLCHlc45xSlARkN1phJznb+FPCjOQ/FIY9ogo5Lc0gBGMdf6UvXkmjcAcZoLsI0YcbSuc09Y1PQUiOvOc9acX3dKBg0fGKj8sEfMevah87s9c0mC3J+WgB21M47daFUCQYPFJ0+lN5L8LzikKxYwRx37U/cq9ajDZOQKGBHJ5emSKcOvPHpTFXOMdhRuG7Ld6RWDDKjnNACq2RyMYphcscHFPJ6+goYkMuec/pQAwqdxAo9z8ppA5LnI60oxuP86BCxruZie1SeVtyT0brUQPVhwKM5OCTQRYVZep6UHOeBSFQDT9yJweT2oCw0YC5wRikdgh5pzNuGf/AEGmLll5Xn/aoC4HLjJGMmk24znrS8bcHrTh93J2tmgLjfLyMN8/HFIq54zx3NNkb5gAe3SnqwVcdMmgfMSbVxlWz2zTVYMQBwe7VGI3U4Pen7PLGRzQKw5RtUCo2APT5aVhuUj0pNp2qfm+Y0CDbtxmpP4R696jyGODzinnA6j6ZoK5Rcds9PSkmJ8sc9aUcZApm7e3FBI0DFK33sj5iaNu1fm/ipwQdzhadx3I5mIjwV5/pVdGGcjIGasTIRESx4FVFmA4HIzxRYZcijIXdmlkZVGEpp3FQBxSZ4yeRRYYp+bJPy0j4xg8UxpMZIHFJxIvXk0wGY+fnqelNkVVZWHJH61Mq8gGhm7gYI9KAFy0i0nG3FHmbQ3H41Gz/KSKkQKx7fdpWbGD0pEb+GmuwaTG3mkxhuZuV6VC8gBwRSNLg460xmLYJ6H0qrAN3HpnigYzz0qPdyR6U7+LBP4UXAdwvPdqNhbt0pM/MM/NTmYMvPWi4Cr8xUHpTWbcxNJ0609cDIaqAdjcwJHahsLx/wCPUq/6xsdKMhuG61AARlRz0/ipWz22+9G5Q2B+lI52tx680AN/1jYPBxQ2WOV6KKFYlif0qORgrYxlKsBG+ZuOv0qRTj8e9M+Y9T14FO29ORzU2AczYXAH/fVMH3Sw6U9VLKcjjtRjbjPfrRcBqru6jFNAAbk/8BpzYBwOlNTcG5HOaLALSNnbwM0/aT+dCxmRiDwaLh0I+WwADg07b8uan8vy1AI4oEfUdzSAqtF5mQOq/wANN8nbnB3VfVflyOCKPJEjHIxTApLanr1oFuyqWUZq+YcjaA2KTb8oXofepsBQCHdwn41J5Zx6Z9OtWNvzdOaayn8c5pgV2jG4BqRozt2n86uCMtwRx7ikkjLIB1P92gCg0J3Yo8v3257VbddqqrUxlAIHelp3AqqoJxupVU7WzxUxB28L0pJFLLwtK1gIV65xmnqoVcnrTlTy6Rl2tuHQU7AN2jrndimEFeD0qXdwPl9qRk+UAdqLARZPTtSbvmA9aWipAKkR2TB7VGPvcdakVF27s7qALtuxZR/c5q4mGX61nwfIqY5z/DV+Njg4bJ/WtLAPLMvAak9v0oKs3zHpUbZ7dfSixNiK6YNby/K3Q5rBj+XHvWzMNwkB+4Qeax15xUFrQ2dLJLbT9dvpW9YZ354YDrXNWI2tzxnv6+1dLZsGjGOMVRJrqDJGC2MjozVymu3DXF0IgcALk/41uXVwYY9wPXjFc68JaRiBkmpY472Ptj/glXA7fFTxVIdpRdKUH15fgV5D+3oyn9q7xhngYhBB/wBwdPavov8A4JK+FS+oePNVkDPj7PZq3tyTXyh+1l4g/wCEk/aR+IF8D5iDUTCvphRt/pWcPiYtTxtiPMyOf4aQMW5/hqVz+8OOB/Oo5FZunStxkblpH+Uf/qqeG1YryOvT2ojU7sng1PHMO+VHtRYBWjCqAB1HWq7AswAFTSSJtwM1WaYx7znHBwVqW7DSufQP7LfgtrrULvXpTwv+jRZAIG7liM85xxxXpfxv+Jq+BdBbCF7u4HlW0eR6Hk+gHWrP7PugjTPBWlsqAStCszBuxbn88V86/tL68+pfEa4svMaSCzGAGGMO3LYx26V8nCmsZjHz6qJ9C5fV8Orbs8t1DUrrVr6a7u5nnuZmLPI3Jcmq350hBBz6U3knivqfhVkeE5Nu7Hlu2PzoC7jxwaZzQrFehp6bgfTn7KXxjuNM1FfC+pXUjxyfNYFmJww6x57Agcdq+mPjv4NtPi98J9Rt/IEmoW0ZuLOUAbxIoztH1HBHevzr8FX76X4u0a8jba8V3G2R/vV+jvw/16G70UB3HltI3mZP4/hXyGY0HQxMa1I97DVFWouE+h+ZUcLreJC4KP5gUg8EHOK9V+P1usDaAR/y0hYj3AwK5b4saOvhv4o+ILKMjy4b52THTDHcP5103xw1aPWo/DhgzLJbaepuGiH7uMvyFz68c19RF83Kzw2rNo8koop0fXP51tsSPCFgCKXyZExxkVIqj5AB7/hUvLfKKZBV3PHxytakmsyzaOlgrCNN2Tjjf9azps9e1Q7juJBp3GtSxM2FCKwYVVP0p/LCmdOKQ0rF9JBwe+Kcq53ZbmoI+nHSptxUtz09aCJDWx2z+NCqU3baVsbuPmXtShiF4Hy4xQIdH6A5pfM9dz02PO7j5sClC8AhqsBFYcZ9ak3Bmzjlqj2D7uc56MKXa6t6f7VACtkN8v8A3zUO89M89amWTse/GKHTd9aVgIaKKKkD+gPXpHv9YnnunWNFYgc9fzrxvxBCdU8ZPbaaPtMk0gEQiH8WOT+Fe/yeCrPVXMd3aMJWGNyuf89K67wj8J/CvgZTJplv512xyJrh97jPUAnpXxuNws660PqqOIjh9k7nivwd+CqeB90l3by3d/NM8plxhI9xz3r0DxR4Nh8SeH73TLxV8qblW7o3qPeuh1bxVbW/njzFhkQkbZOoI68VX0/WLfWLETLIrocg4Pf6V8+6NnY9WNSclzM+IPjL8OZ/C8h0m9Xz45F8yG5GQkq/0PtXy38QNHtfB3hfWbiDzUeeMRjzOcc8gfhX62+J/h/pXxI0eTRdQgZ1kyYrhRl7d+zA/wBK/Nf9tz4P6/8ABnQdPh1f7L9lvrmRYriKTO9R3I9SOa9XLYyVRRexy4ytGUGr6nw7s8lseuTz71BIxRty8EfrV1iu/wDv1RkBjyUG8+navulE+Osa9ixuFTjfMw6CvY/gv+zT8R/jZMw8K+F7q+gBw183yW6e29sD8q9Q/wCCcf7Fv/DSHiS58V+KQ0fgbR5ghhXIN7OOfLB/uAdT+FftR4d8N6X4U0i20rR9Pg03TbZQkNtbxhEQewH86L9Bn5WeG/8Agk38RLq336pqmhWEr8nMryEZ7cDFdlpv/BIfVlYPd+NdNjfuYrR3/niv03opAfnfpv8AwSP02FQLnxyznu0VgoP4ZNdNb/8ABKHwOybb3xZqk/HIito0B/nX3VRU2A+MtM/4JY/Cizx59/rt365uFTP1wK6XT/8Agm58FrHBfTNSusf89b04/QV9SMyxruYhQO54FQf2la/8/MX/AH2KoD5+0/8AYA+B1iwY+C4rgjtPcSOP5109j+x/8GtNKGH4e6PleheIt/M16wdWs1XJuocf9dBULeItNj+9ewj/AIFSA46z/Z9+Gmnsht/AegoV6H7DGf5it6z+G/hOxULb+GNHgHby7GIf+y1t2eoW+oQ+bbzLNHnG5T39KtNQBQt9D0y1H7jT7WIf9M4VH8hV1UVBhQF+gp9FABTOe9PrM8RXX2HQNUus48i2lkz9EJpDM7XNQt9Q8P6ilpNHdFY2VjEwcAjqDjoR6Vz/AMMR/wATDVHC7RtjGa/MuH9vDxX4dvb0aZYWttJLKQxh3J5gUnBfORz7c1H/AMN6fES1BNnLbWhfmT7OTk+mfpWsYvlsZt2P18rnPHmf+EbuON3K9PrX5NXH7fXxUH3/ABD6dI+gqAftufFXzBM3iH7aisG8ph8jgc4K+ho5R3ufqr8MZC0OqZOf3y/livhn/gtJLt+GPgZOx1Nj+S16l8Hf2+fh5NoyjW47rR9YudrzW4j3x79vO054HfmvFP8Agod4s8P/ALVfw/0S28G61aG+0WaS8ktr8+WZRt+4h6EnFNxd79APyvLb2B67uRT43G3B5FF1Y3OmsPt1rcWkh6i4iZBn6kYqNJFkGRyParIJuGA/2etOV1ZhUXytgEHFSMu1uOjcU7gPzhiaASxwOD/epgm+bCipfvH8KoB42565NIckMSfwpApCgD0peOpXipuTcdu4Hc0w8kgcc96ezKvJZaQN90A570guIvPJHHSljjwSTx/Wl3bV4HFJIzYGOaCh5UbuGpjEZwOMHtTfXJ69aFIj9/erAeGOTTsEA45pvmbVwooRvRun86kZIB+IoABzgc0zPGew60uQACFpFXHcDg9TQvv8v86VBgbjzTmxsBP1oHcaWAOSx9qM5UdBUXGelO5I5p2FccMngfnTsEGm+YRjA+tKqnALjGDSKHKc9KTaVPPBbvUrgxrn1/rUQJz9KCBzRA4I60YCkY5oyTw3y0xc5wfwoKsPJG4jO6mhMHp9PagoFp2csB1oCxGQACKTdhsZzT2U9s/SkGeD3oJBSAvPG6kDgjOcHpTQSRyOvakHXHegRICTkBqRsqRjgjjpTlwic9f71CsXbBoENGNuflpGPb+9SqoP+FI52DJHJoJsCqMsN1J937tCyEHD8+wob1A4oCwmAF4+8ac2evpTTkgetOXKnghh3BoHYXdz8z01ju5UYxRxuzj8KccDBLdKBDWywwP++qCAwYChY9q7jzQrbR8vSgQAFVUCkwTwTQsvbrTlw3I9aDQactJw1Krdm5NLtVjnvSLnovWnYzFPzPjsRRu2857cA0lNZhkZ7UWHYjupAIznnNU7f5ZF/vVZusyLtH1xUFqerDoTiqGWyxzmo9xZcA5xUci5+vXb/WkHytz81TcZKqhVx2prsDwO9MyNxJUkUyFeM5+btSAsx/dHNN5YllOaaeNrN1p3mfLuoAaxYHjgHilLqeCCKblRgZY4qJcqx5NAEu0K3HzU3OfrQrt9TSMvl/Mf++qQEbLuOM4P92mPtxgjbTsZDnHHWmM3Cfw54qrgNZVXqeaVVDNnOeKaxXo3UUv8JAG2iwC4OWpp+Xr0FAXAx3/2qKQDwQy/d/OlXhgTTUyzcU8Z+7TuAc7+Op/u05fm5P4Un3Tw/H501W2sDRYCZlDDBqD7v1qTd1BO4UjfKwUnIFFgFVfkwTgmo2O7Oeae2dy449BTdp4yOtUAn45qQLhTjnNM2blHrmp1JXnODQAxUDL0yR6U1x8xJ/CnuxXAAyW6tinDP41AEfLKwbgUJGcZPB7VPIDHxninMMcbcj2qwIfurjb+FSKuTk/Sl8stkke4qTaFwBUB0BEB9s+tGzljs3mncH5RyakUL8vOT0o1EQld3B4qeOFWBI57e1KEVzn9KcCFHFBRGY+WJqKSJckd6sZBXHNIy5J9aBFaOMY9aNoXO0cnvVgt27d6R2HQngUAV1Y7ee1G1t3A2/7VP43d8Y/WkkUv0NOwEEud7D8jUG3+6c+tWmjHH8NREDqe1HKgIMbuKR0wSGqdVC9BUTNuYk9aAGHCj0pQvqvy05ugJ/75po+ZsFuaQDGyV3A/dpGUKuBz/QVJt3L6Z4pp9zwf4qAIWxu4GKQ9eP1oOe9N3bWFQAvXvzUiZVtpqNW/HIpdx247UAWY8rx1weKtrIyrw2DVONg7ccVYVd3tWlwLCu3Ibrjihu5LEUiptY+lNkTbz60XAikyyORySMVjp8zc/KK2SAetT6P4btdYYRpqCW056JNjGe/NTIpK43StPNzZSz+YiCHgoep+nrWlbny48KK9B8N/sy+KNag8zTtQ0m5zhtskpU47c4wK663/AGN/iA03lteaEjZ+7JdkHnsRis3UjHcrlueHyM0zBiOFGKWzht2vIlu3MVszAMwGcCvoYfsU+NY4TNc6v4ft0AyWa4d9g+gHNZUP7Mcnmf6R4it5vmC4toSMtnGMsf6VHtIPqChJM+6P+CePhu3+GP7L+teJbhNiTNeaj5x4YooKrk/QcV+T/jLWT4g8Y6/qPmbhe3006/7rSE5r9cPjxqNv+z1+wPPo9u/l3M1lHp0R/jLuPmJ+pPNfjzI0aKRjnA+9696KXcJbAh3NihsdjkUzzBHg4BzSLIWZscV0mZJLhduB1qJ27574qbllOeKrysB97PFFxDZJuuDxUMjboc+tJNLuyKj6R9eelZy1NI6H6G/B+NJvC+ntFgvJZwsWU8fcAIP5V8XfHZv+Lt+JAP4brA5z/CK+w/2d9Rj1LwLoZRFji+xiMp1LsvBJr5i/ap8O/wDCP/Fu8KxmOK6hjmXP0APP4V8rlvu4qonue5itaEWeNlhk5p1IV54qxZ2NxqEvl2lvLcSYyVhQuf0r6pnhlfnP8qYy7TXQL4F8QtH5g0W9EeM7jCR/Osi40+5s8meB4ecfOpHPpSGXNBuorXUrJ5QdqTK3Az3r7S8D3tw+hhGlaQlmAz0IxwMV8OL7nBHTg9a90+Ffx4Xwv8P/ABHo2oaTf6vq80Ij0vUY5eLDjqQfzzXBisPKsk49DroVVTb8zjfjxM0vxK1B2VlYrHnzBgn5eprj4dZvoWk23LESqA6typ7DjpTvEkmrXl99u1eSSe4uAD58hBLjHtWQJCK7KceWKXY55Pmdy/eTJdRjMMSSDq8fGfwqk0YwSKRX29c5p24LxjirJDDrsx271I1w3G4flTN3zDjg0ZGOetMBzyblwBzUO0qeRUqsFLEjNdzpul6JoPgebVtXt2vdXvyYtNtTlUjUdZnx19hTtclaHBR/SmVeuIXZt7Jw2ThR0xVEk96Q07lu2YLjjA71I2MjHNV7c9c9qnHUZ6UEyEoVhxngGnDcy4HSkaPZwOBQSTK4bOKF+XgdqijfjB6d6lWPzBnOP61VwAZ4K0zjcR83f6U5dy8HkUY468YpgGzgkc8UxW+Ug/hUjAMuDTGBzn5e1ACNkt93FFIrN0FFKwH9LmtfZNBsRcy3KROwGdw5A/nXnuofEE3F1HBpEU13db8L5cRJzX52eFf+CjXj7VtGs7fXYtNlubePy2ubqB98mO5GAM1Zuv8AgoF49+YWOqaTZx53f6LaqHA9Oe9fI1pVpPlgtD6inGCjeT1P0i034can4mklutZRLOWU7vlILZ9wOK6fw78JdL8P3RuTJNcyHs5wo/AV+Z/gH9t34reK/F1ppdn4lU+bli00MZUAck9K9kb/AIKTXfgPVEsdesrXxJGpxNLYAwyR+2OQTWdOFOLtNamdSniJR9ySsff0NrFCAI4wg+mK/LL/AILDeJo7jxt4K8PpKC9vZSXDQ+m5sAn8K+tfh/8At1+A/iLdQJJdz+GIzGXJv14J7AsBgCvy0/4KAfFCw+Jn7TGv3WnX66pZWcSWcVxEco69eCOoFevhowlNOCPLqU5Q1mfOkZyz7jjaeKqXny28nODg1KW5k29BVa6UzR7fbFewcdz95/8AgntY6V4R/ZZ+H2m2u1ZLq0N5My95XJLE/wAq+oh6jpX5ufsK/FmLVvgd4MiimzNpkcmm3EWfuOpyCR7ivvzwX4ph1u1WEYSVVBAznIrmu+axo1pc6mikwKTitSCOWRYEeSRlRFGSzcAD1Jqnp+vadq1m11ZXsN3bqSpkhcMAR1HHepdQ0+DVLGe0uo/Nt5lKOh7qeo4rBh8C6boeiz6doFpb6Z5jiYLglC47sM5IPSgZNNqln4ltbNrORbu3a5CyenHUGtn+yrMf8usP/ftf8K57TbGbR9Ps1fTobTy7hnkisC0i/MD8wyAeT19K1x4gjJx9mvP/AAHb/Clcbj2L0drDGMJFGv8AuqBUnkp/dH5VnHWztytheP8A9ssfzNQSa7d8bNHvG+pQf+zUBZmRrGrT6F9uuLaONnlu4YAD0GRgn0zUd14r1Wz1aSwe2jMckqx299g+Wfk3MHxnB9+ldBp9l5qzyXVuB5zB/Jkw2MDHPbNaaqkahQoAHRQKY5WZwdj4l1K81bSreSZkiYyLcSrGAjuuMBGAII/I1em/4TNvHUbRfYE8Kqu142/17HH3ge3PauwXCqAOB6Um4+lIgfXOfESTyfh/4nf+7ptyf/ITVv7m9P1rmviNDHfeBPEFi1wls91Yzwq0jBeWQgfzpgfgZbyLI0shdlDysRu+tO85RwuPqK+xvh3/AME0bzxVZ3Woav40OnaXbAkNZ2u8k9doJPOO5r0Xwj/wS18C601wk3jrXrrydu4RxJHW6loZ8rPz13JgfxkelK14Iefw47+gxX6fw/8ABKb4XxxhJdd8RSgdvtCj+S1vaL/wT5+EXwtvrPxElpqWsXVnMskUOpXXmRF+xZMAHHpS5kCT6n50+Hf2c/jd4y0qPU/DvgTVp9Mk5iuDEqFx7AkHFcv8TvBvxH+DSxHxv4dufD6XCkW8t9GoR2Xk7cHBNfuJ8P7+W6s78Pjy458RqBgIMdAO2K+AP+C10m7wX8O0P3Wv5Sf++KfM9inofn8nxx1a6j8q6+y6hB08qYAZHphgRSTL4D8WH/TNOk8PXDHm6szgA/QZU/kK8qkjAjQZ4/2qsWN5NZnEUuyM8bG5H0xVEHba18IdW03TX1PSJofFOkICXmsc+ZEOvzxnn6kZriY5luEJj55wfUV1Xhvxbe6NeR3GmX8ulXiEAeUT5cnsQeMGuz1KLRvizIfNit/DXjFFz9pACWt/6CQDgH/aH40h2PJs9sUqt6qPSp9S0270PVJ9O1C1a2vITiSNvTsQe4PY1V28sN1UIkz6GkV/lBak3YHpTgB/Fx3qSBu0Z45z7Uq/M2BnIpMjknn2pxk4xnmgBQBjJpzL8pxUfmHoF4pwbdHQO5GqsOO9O8srx0FSA55OCRT929cU0yhqquzH60hwSo79acxB68eopuRu96AFByQCMYp0jDgdKYXCAke+PakjGMA0hltY1K9OBUcnP9KjLFQwJ/ClUsTgAYoGJsCgD06U122gAHrTy3GDTATnB7incWhMh2n2xSOwzg80E8bhxmm7guTSNCRyQcEn6Uu75ccc0zJZdzcA9BSjao9/WggUNgentRn5j604kd+opsg+8f8A0Ggq4IR0zyPSklYKfr6U5Mggj86cFGzJNAXIWYtwv5t1NLgkcVF97JHGOKkBKkEGgkAuNu7g0bR2607G5txxz/So2Yl+KBDzjaN3HNKdqleKjLBnwelHXA28dKCRxlCrlR04pjsQcZzQ3Ckjrml5BweSaCraj1bkkjrTWxnnrSY74GOlNLDkHmnYLjmyB7+lOZg5x071Ep3DeOKXkjjikFxSrcnv3pxkwNpFMyW5AoGehO/FAhBnODTmG37x5/u07pg0O27pxQPkGLgU/wCVjw/txTMHpn8qaf4vloAl5+9TFYqPrRhiOPzpMkL05p3IsODbgo/nTDjHt60rZHOOajPPHeqKGTcIQvX1qtb8LIuG5PGakkJ+fbUSs23/ANmoAkkkZyqjaO1GTtwTmo42/hpeCpAOfrUgKzhcelSqiqv8I3clqrjc7BTk+1WnB4HT/ZNFgIi2ePxpPMOdvbrSlS4bHFFIBXbaDs79qavCgU7hBk7TQ2VH65oAaxC4z9KYyjdknin/AF6Dmm8+Wd3WgBnmY4A4pjU/AWT2prN1bpTsBHtVv4uvvTlbcM0fhilbPpii4B91c9zSccc5o/hz60q8dRmkAK23jpTv4s9v71RphnxtwafIv8PTd/dp2AcI245z705csoG+mBiM/TFG8jv7VQChd+R/DSySBTuPAA6e9RtnacU7a3TvQA9I227lP1p3O7OeKRNyrg81JtO4L0NTcBhiYy8ng9NvapCu3HP40/y2+7nj6UCMfLtFUAyMbs8nmn+WS25vwFO28fWnbm7JmpAj2jdjLfWnspOMHilZh+FCyBeMd+oqgDadvfNPELM3PANO3Hk9PanbjnAqAF2BcYpgU9Tx2oDfLk07AOR94/1o1KGqvHvTmVgckU3/AGqeCWxmgBoYsSSvHpS8cjuKkY4XPAzimkAsfegVhowfc01kBzg5oHy9OtO5VQTTuBV2lcoadzjg1K6sV4PNRDBA5zRcQ1lPGTx3qGpmXzPlI4FNMYDcD5aoCA5Y/wB3FDKcHI6dPWnAbmPy/SgqVXOMVADG+6ajk9hnGBTm6glfWkWP5dw4B5Ap2AjHBzSyL0B71Ko/iNRyfeNICrRUkmSenFR1ACbS2Pu/8CpaKVcbuelAFhFSM+9WYXGMtVGNizE9qnDHuc+laLUC5GvmKVP1FOlbZ8veoYi4BA49acoJkx989vrSAZM3ycLVWFIWZBMMgkZ9QO+Pet2XT4pLZARsfH8NGn6fpElyI9V86JO9xF19qmRcTr9D1b/hF72O+8N6ncXVujKTZSSsOfRq/T39l/wf4X+NXwRbxNqsUcniuG4KXcMUpjkRAQFwM5II7455r85fB3wT8L+LFCaZ8QVtJ5TnySm88fkcivrP4Y+DfFvgHwpBpeg/ECwhu4A5N95YE3l4yEPPQHnnvXBVinLU3i9LH2fonws8LWvhq7hbw3Bdyrki4uCzueOnWvC4/hLoFx4/0p7TSIrf980shycfL8x6+h9K4O1uPiXcWNzHqHx4+z2+3LCGOJM+wJOc16B+y94DlsZdX8Uah4ov/FDzf6LFc3RGxFB3PsCkgfWrdmrJEarU8F/4KofEZhH4S8DQXI8uNWvryH8tmfrX55uxbmvd/wBs7Xr/AMRftHeJbu9nM8chWOD0SEcAD6V4VLLxtUDFdcFyxsZPVjVYLkdaN23kPzUSt8uTxSM3cHkVVySZ5jtBJqF2DNkHNDNhfc8VF7VI1oKWB3D1powcg01s/hSxg7qNS7H1x+yP4qF54fl0twoeynxneQSjncD+BBHvWj+2/wCDRf6DpHii3hL/AGdxbTTBvuI33QR7t3rwX9nvxcvhP4jWaTymKyvv9Fl9PmPyk/Q195a94WtfiV8PdV0O6cS/aIjHn0ZRlT9QRXyOJvg8dGp0Z71K1fDcvVH50+CfAOpeM5C1umy0jOJJiQPwFfRng/RU+H+meRpNs1qXH7y4ZMySn1J/kK8f8DTQ+E7y+0zW5Liwe2uGQvECdjA4ww64PavcfC+vJqkUcVprFjdbScL5o8z6EHnNfVxfMrngu97E76pLcZE4M+/qT3rm/E1soW2ENotz5jN5pljB8tVUnP4mu7mtJowhksJXRs5YCuZ1q4tJlMFtGXDK3mE9uDRsSfNl18TdcuI2gaWBIslSFt0Bx9cZo8PfECfw7peo2CafbzrfDEksuQ2K5OfiaT/eP86mhja6lVFGZG4AHc1e+5TdkRzSNNJlixXsMk49hmoipOD616npPhLw/ptzo9hrBLy38yRT3aAkWisRltq8kgGvRPjD+xrq3gOy17XdBvv7Y8MWAWaKaXCTtCwB3uBwB7daXUnm1sz5o5z0pWyeSDV6axMOMP5gIznoKq/Z2GT1/wB2qsWRbfmwSBTtoX+P8qRlbvSsp6/ezUagLuAbkZG7NdT441x9a1C1DJ5UFvbrFFHnoPX61y0Y3SIT0yBWxq1swunPXA+9VIkrLqk1uhEI8sOpjJIzkHris5htwO+K17m8+0fY0uUUWsa7EEPpnk/U1fj8M6fqVvG2nazCbpjj7Lcgxtn2PSmNaHNxVZrU8SeB9b8IfZm1jTZrKK5XzIJmGY5V9VYZB/OslSFXrRYmWw9W2/SpAA3AZs1FS7sNkcUiQYbWGOR60+GTyzz0pjHcSaRf++aALT4Kgr8vpUSrtbB9KVVDK+fWnsfvEjFWAzj5cU1s7RlcDNOXDMSKDhky2c0AMDKvQZooZju5AopXA+79B/bC+GnxT0q00H4reCYtDvYzkaxpcIZOe5AGQD3ByK9q8A+Avgv40mtG03XfDmq6dHIrY8lUuNvXaRx/KuV+Iv7KnhuO4MUl75dyQGjlithsI6Yx1FfPmt/sv6hot1I2k6xajUIzuXzJTA557Hjp618zz056x0PonCcXqfcOveD/AIW/D68uNU0m2s9M0VwTcAgbhLjjyyecH+6K+PLPwSNX+PEUESCXQXV9RDXPHm22chceuetZln4R+Jl5fW+n6jBqGsxW/wAqRG6WZAccNnPP416RJ4Uk+GPw7j1LxHeC48X3BeO0to5MmCNv4BjsOp7VErQvZ3bLheL20OX/AGpP2rtRt9DTwZ4f0ux0t54zDeX6WwEmzooQgYGR3618jyxiFWP33HBPcnHU19D+J9Attc8O3Mtyge4tVMwJAO8Dnac/pXztqjfvAUPJPKrXs4WKhCy3PMxMnOV2U48ssjFe9QswEnXIxwtTWrALJkNvJzVS4xu713HDfWx7Z+y18fh8FfF81nqW7/hGdWZRdFetvID8so9h0I9K/VzwH8UJrSGw1fTLlby0fbLFNFIHSWMj1HY1+F0h87INeu/BP9qLxr8DVaHTbmHVNDJ+bSdQy8WfVD1U/Tj2rOUeZ3RUZWP6AvDfxg8OeIrdC98thckfNb3R2YPsehH41s3Hjzw7armXXLFR/wBd1P8AKvyAsf8Agph4duLBBqfgO+S7wAy2t0jxH1xuGaguP+CjXh58tbfDy/8AM6hnuUH9DRGL6j0P10uPjB4NtWw/iC15/ukn+QrOn+PXgmFSRq3m4/55xOf6V+Pl5/wUXvvMP2P4fWo54869JP6LWRef8FDfHEyYtfCeg2gXj97vkP8AMVpyoNLXP2Jm/aO8JQ/6r7dP/uw/4mqM37TOgKpK6dqBA6lowmP1NfmZ+z7+1Rr3xa1C907xJf6Bo1wsiCGBQIJJFP3iCxwcV9d6J8FfDPjTYL/xDq0hl2B/sOphBg5zgDoOKiTSKikz1jVf2wtD0zO/TvIx3ubpEH4+lc1N+3ZoTNthOkj3l1Bf6Vzv/DAPwUvNl1qUGq6k8oUsbrWO5J6jNWov2Nv2bfCa/aJvDem/u8nzb7UwckeuWFF4kuxsH9r651TAsH0FN33SLsOefXniodQ/aU8RRxln1nQdPTqWeWI4/Nq8M+MnxC/Zo+E/hfUodKl8MDUPJkWK20sfaJ9+0hRxnv3NfkW05vpJJJ5ZXLEnqW6n3raNuqJP2+1L9rJoVIvPif4csn9I5ogf0Jridc/bV8MW7Ml18Z7Hcp5FtKSfw2LX46rbx8knPtUq28Xy5Tn2rVTS6AfrM37cHw6vrqO1PxR1S9uJmWONYopSCScAZwOpr3P4SwwePPiJbWNxdXtxDaqZ3W6JPmADIGCehr8QfC8KDxLomz+LULcY/wC2gr9wP2bcf8Lcu8f8+jD2+4tZylcrofSPiyGK28K3UUEaxRquFiUYHX0FYPwu3faNYZgM5jx9AK6DxkxHhm8wOSMD86wPhWR5usAY4ePn8Kx6EX1PQlUda5j4iP5fh8k4x5q11KjaoFcn8RyBoIHrMtTHcZQ+HJCaffsO91z+VfAn/BayQf8ACK/DtMZP22U/+O198/DlwdLvwev2r+lfAP8AwWuYp4Z+HTdvtU3Hvtqr6kvU/Kzd5h+alXB2hRgDmoeYgC3Jq5C25Rn5a2RBLESuAFyT1q9a6k8eyOUs8eRg94/cVnKxXjHenlmDD60gPREvrXxlYxaRrtwkV3CCNP1juh7I56kH36Vw1/p9zpWpT2N7H5dzbnDDsQejKe4PUGpLC6EYMcxIibkEfwH1H1rqJIT4o0+KwuXX+2LSMrZXB489OojJ/lTA4zB/Cj2z24p/zr8r5jIOGRuoI6imHBzmkTYWnNGB97k+lIcdqYc+YCPmHfPWgQ9sHPQYoXuPxqNsFTmkKHauGp2HYk3H7w4zwaereWoJ5qMq23aNxzTlBUfvGpIdx+fmyV5NHljoetJ5ntQG3ZyoJoFcCpUZHek4bk5yKduC8/pSA457kUyhwHzc9/Wn5UcU0e9NbKDrRYZI2F6jdUa9cnimswbAFOWQZyyZAosF0SSPjgdT2pD6HjPemC4jPHT/AHqcPun+7SKuG/5MgbwKfwc+4pVIPBqRUHTv/SgRGwLHI700AqcEdanK9x36CmLzy3agBi7vz7GnyMCcH+GkYEMB+NIzjp2HegqxDuClwo5704qO9ORSpyD+H8qXnrQSNMeV64FL9OM0wrk5pQRt54NAricNxS559hRu4AB6UwYZ/XPFOwh5IC4oXDBc9KYAGbb2FKUHB6DtRYdxWGTjpTONwwac3ypz9eaRWDZIw2MHPpTEKMt0/GkJKjntRu49aY3zZI6HvUgPxnd39aF7jv6UK23tz6ik+6M9Ce9OwEnHejaQOvtTGI2Yzn60MxZgAME9qRdxwY5wR070gBJx+dBzjBOOaQHd/EP+BUEhkMOPkp27eUI7VFtKjpTxhTn36U7CCRSxP8I70xlPXtTixPPOKjbJVsL0PWqAikwy5PriquQvTn0NWpWPlhumKpMRwM4zQA/ftXgc0yWQDtSthec5pqxmZt2cBeuaQFm3j/d7vm56UsjCQhckkU03G7gDCdKWBhnjkmmA5Qqjjg9dppSDgH1pW+ZQT1pq5yeeDUARspZv9mnMx8vO3HH3afx2XgUzcd2McUAKMcDpTc4yMcj19KXHTHy+tIxxvGWoARn27c85qJuF4bH1pfXHSnM27tVgR/8A6qGbC9N2PyoMYbJz1/u0cnnp7VACgs3Ucf7NIeOfxNKvHse9JtHPvTsAZKlWX/Oad0460i8KBSuPmO39aoBVYrnFJ16Dr0ped396nooKg45oANu0gfN/Sn87cZpPlHy5zS9M5Oe9QA5cNtApVyzcdetIFLHGcetPAK9F9qdgHrlvRvWlwSflCqKXaY9px+FHzcZGN3AqgEXnoM+lDMRznjvS52/xcUmOg6UgEUMckjjFKAGVTnPvTh83BNO2j6AUwJI2+XmlAOSe1KqjbgjAprDc3BIx3qAAgSAjpupyopJHTNAAHPX2o4I5/GgoGh4LDpTVjCsTk80jEg9eKVWGCRQBKAWyMdKaGBJ4wMcUzO0je/elVhvOBgetArix5Izj3odCeT+FPBOfvUn4dPWgqxG0ZzyoH41AVKsenrxUzA8Z7Uw5YjjaPWjYgib5lxmm9VyDtz1qRjhsbOe1MVuMH71O5Nxiqy5xUcqYGQecdqkLFsEHn0qNmxzjdSKG7TIBn0pPm6EZxTskKT1zzUTKWZfmp3Am8vjHf+7Ve5yo55z0+lL8/vTOWyScgfpSAjkbcoY1HUsm3GM7ahIDcGoAAffkdaftbb7GoxjP3M/hT9x3Z70ASI27GTwOtSLlsHC+tQK27k9fyqxGx4H51cWBMkhIwTium8G6Gus3e+VsWcIPmH2xk1zKuNo/v13Hg+ZLfw7qAUckAZ7+/wCdKQGbfMLqTzY02RnPlr7dvxrkZLq5gunnXO0kEhuRiuzhmFvHE/y5jbIzz0rC1m4t5ZLiZR5czNwo6c9az3LPQPgtcW1l8UPC13N5SWf2xWllIwEXByT7V9xan8L9P+LFlJqd+h0PQHkaS3ht8RzXKLx5sj/wg9h3HNfD/wAIdBj1rxNpcV4He0gHnzKOhC9M+xNfWnj7xDcX3h3SNDs7yZNR16dYhbrkBLZeABjt3PsKicVcuO5c8JaT4B026ubPw94Tsb+OFvJl1S/3zBznGEBOCSa+k/Ektn8Jfgo9ppyJYS3MQigiijxhpBliAPrXkXwj8L28ni7S9HigKafp/wC9bj77L/Efqa7z4x3X/CZeNrbRPt9vpGj6TEJr3ULr/UwFuAMDl3PZByTWK30Cb6HyX4++D/hv4kSm91MXFvrIi8oX8MhB4+7lOhxXyh8Svhnq/wANda+x6ji4tJjm3v4v9XKP6EdxX6W+Ovhx4Z0K08621+5S4aPMVrcRg3MpPRjGnEQPUAnPrXhPxE8E2fjTwjqmhN8955ZltJpRtImUZH0zXTG71ZnzJnws2FbP3s0r7WzntT5YXhmkhkGJImMbD3BwagaQt7VYgYHPLU3G3g0bt3WlK9MmiwyMsPrTkByDinxw7zxW3pfhO8voxK37iA9JW7/QUBzxW7MeG5e0uIp4n2yxsGVl6hgcg1+if7P/AI4u/EHhXSpr2OW3vZox58bR7clRwQD2PWvm34P+HdB8KyJqV/odv4lliYSjzpcFCOgCngjPPNdr4b+JSr46udTuUlthfTKFi8zKRYOAB268V87mUXXjotUerhakaLV3uR/tWeBR4V8bDxFBF5dlqki+ewGU8xhwM9jx+NefWeg2GpRxzJbxSnnPkkCQH3wc19leLfDtt8Vvhve6bK63FwYW8tj/AM9McHnuDxXxRovhMRXUthdxPHeWbtFLskw4K8dq2yuu61LkluiMZS5J8y2Z0VnHrmkyAadr17bjORbzSF0Ptg/rViK41OW9kW9ihOVY+bFkZO306VBBp+qWKlLXVyY8EfZ7oB+PqeauaTNqDX0cd1aBBtZDNCeM467a9hnnHzRMv+kPj++R+ta15opsrUTrJ8+R+7HqemKz7iP/AEqUZGPMIz/wI17/APAnw3Y6ldXN7qvhNPEMFmEmW9lumjSPHQBDweeaYPscnpPwx8Y6XcWF6hW4jISUxs2TtYcgg12HxW+OHxMuPCx8F3Vj/Z/hyNfK/wBFhbNwmOPMfkke3FfYtv8AAGz8TaFZavHc3OjT3sPnLZXGH2bumceo5rldZ+D3iHRCBBJb6iI8Exkh3z68/wAqdyNL3Z+dMmoCZQrp5ZUYA6UsM0Y/ix3r7U8UfDe11KOSHXvDEXH8UcWw8nOcgV5zqn7P/hC7m8uD7dp0jAbQHyBjrw3XNHNcvmH/AAN+Bvgj45fDaWyaS50r4gteHyLoy5gkgUcIsQ6k/wB414n8WvhrefCfx5qHhi+mhuJ7XaTLAcggjIz6H2r3bw54D8W/DnRdQh8GeJEt7yTO2eQAOidCobB259RXkuq/Brx/qNzc3F5YNqN0rmSRvODySE85yTk5pasi5wmk6HcaxeRQWo824Y5VB7HnJ7AetfQ+i/syX/jaSO8knGjaV5IxNMP30hHUqvoexPWtT4AfDa18N6I+qeIrJrfUHb93aSj94dp4JHYeg/OvefC8lzqmoeU84AkbywDnHP8Ah7VVmjKUn0Pn68/ZT0a1jVEa+uJBgeaGwDzySMcewrJuP2QNV1rP/COfbpZEyWW4tSwzngAjgCv10+Cv7L+krZW2s+KLb7ZM6Aw2kn3NvUM49+w9K+gX8J6T/ZcljBp9tb27KV2wxKoH5CoUrstKR/Pxrnw1+LXgDwy+jeIdCuNV8JRksbf5ZxBn+JMEuhHtXjesaGtupubNWksm7Sffi9iOtfsz+0ZpPh74e6pIt94k0uw3ceVcXAD/AIoMn9K/Pn4xfDXQ9dvrzXfBmo2s96zGS40+EgJcDvtB6E+neuvl0uTGprZnyorfKPTpT6uatarFcStGnlDcVaErh4mHYiqHXGeg/vVhY0JCwb0I/wBmk5X2pT9c0cYHr3pAP3svWpMll+b8arRyZ2gnpVlYwuOck1VwE27ujbRS7RgEcVGMqxY/KKeGG6MLTAjJOfmO2inSbc8/pRUAffepfFbVvBviHxBqGt+J5fFL+YDa6bbyK5jQnpjsBXi3xO+JXi3x14otp7O+OnxmE+XbRRjEeOmfU+9eE/DzxfceF/Ei3ZX7RHMpilEnOVPv9a63WfiV4onEupadbx2WnwuInaKIOEOONxPTP5V56w8IvY9N15TW52/h39p3xR4N1J9L1OK1S4QCNpjGcEjoTyMZq7r3xHvfE17b39zcfaPL6leQR1wtfOmv6vd69qs95eSCSeTBJxgdOwre8P3Emj6c8qXx+ZNywMMp71p7CmneKMfbVNrnqXiz4nW+tqLPS7a4tItp803Axk/1AryK+O+YsTv64Nd3rmrW9/pYKSxSyCNCdmOvcA1wN9N83yrgZreEVHYxlJy3GQ4EcnoCKqzfe+ap4X3WvYgmmyYY9K1Itrcolm6/eJp62pmt352BMsaJF7ZptyxFumDznn3oatsBXRv3ifJ6Yx1rcjkeSMFkAJFYkOxFLkfSpLG8aG43sSc8VNkM13Vtud+KdHJ8xU85NRGTzFx1B7U5drNwKokdNapMoZl5HQ9+Petjwn468ReC9Ut73SNd1C3eMgtHFcOA4B6dam8F+Btc+JXjLSvC3huyN7rGpTCKCFenuxPYAck19sx/8En9Z0K1WTXvGFlcXGA0tvps0cYB7oCxzx9KJPYpX6F77DfeJvh7o/ieK8v4L2/lUTQ/a3IAx1xn3r4u+O/jLVdT8darp76ldNZWMvkCLznKMV6nk1+l3hn4W3OkeFk8PQ6ZeSDTWxBiIzB8DGcqMGuYP/BL3wv8ZtP1DULXVNa8JeJPMLXTaiN0EjNyNiEZx+NZKTKkflKqjr1qeNh0AyDXd/HT4L6z8APilrPgbXJYbi/011/fQHKSIwyjD0yDnBrgtvXuK1voSTNkHj86FP8AF2puTuUY4qSLD5UsPpQRc3PCe1vF3hsEtzfQf+hiv2//AGZwB8WNRb7ubdwPY7Vr8Q/C6keLPDpJAzqFuPUj94Oa/b39mkA/FrUSHXH2dyo/4CoNU9ij6Q8aOP8AhFbz3x/OsH4U8XOsgdAY8e/FbHjZ8+E78ewH6isj4T58zWOOC8ePyqLaEno9cd8Q5GOigAf8tlP4V1in5Tn5q4/4iOf7FBHOJVFKK1KuVfh3htJvSByLrr+Ffn3/AMFrZB/Yvw3UjKefOT+Qr9AvhycaTfY/5/P6c1+fP/BazDaX8NM9PPn/AJUPcln5ZctGAeDipl3KoIbAWqkkm8g7uB1q1CwkXB5OeK1QmSMzjnduzU0cuedvtUSLtXFOjVjkE0CLGcKc5NaVjcSXEYj37JI/niPfisg4zkvUiMFbj5TQBs+IGGpQpqIj2XGcXW3uezfj3rGYFl9M1t2M0czozEeXc/upPM7e5rNvLU2czwSD7nG719xTuBEPu4pvI56+1G0Aeh9KOOtFibDVQSDJFPClcLSNntQoYNtP60XC44EhRkmn4DKAOR70wttKAD8KT6ArRYLDpEHU0bfL6d6VWLe1AI+9nNIQ1jtPFG7oSMmnN/FQMFQB+C00WC4xz1FIwLClbKq4ByewpN7YyeuPu0wFCjcCRyKUYYAH8aYj9eM+9P47GlcBvkquQOcU5oyOfak5PA4pFkOMP8znpQMmxuHuKUMwGM7+/NRRkjJPrQ0nzcD60hlkSB/vHB60m7HB71D+H4UYBbA70APMgPG3B6Cmjrg1Ex3t8vH1pVypHrmgOYl5PXIpRhcg555zTSdwIxikLEDjr6UALnsBk46Ux87v8KVW+bPr2pN5YcjGelAhvTGV470pwqnB6enU0uQfwprMfSrEBwOMbie9GMggHPtSGQMMhaRX45GN350AKxOcMd/+NG4IoJ596a2M4IxipN6D5TzmpYCF8fjRHyvOO9LwzEEU5GVTSJuRHnnGM9qcudwyNoPelaTgA01n7jOKoofz0pc5Cj7pzUe7dk96eCOe1SMM4yo+anbRtAIwB0pik8Db1FI2T0yRTsIGcrnH4UjMRjB4pGA2kdzQ2OO+2qATI7nr2psmMlV54ocnbhRSbQE5POOlAENw3ysofJqmvC/w5qab5mOeahZvm3DntQA9fmXr1qTaPLA/Go48qpz3qwiluNvPagBqlVbApkeF4HHPDVIVCDeT7AVFtBk4LEGgCZZv3gA5XH607zF6bck9cdqjWJVxRtDIBUALuMgB6GjJ3YP3KVVCg87vejovC9aAGMN2CfTrRtEi8DJ9fendxj7tKqhegoAQKFBIHHWotp475qelOM5244p3ArkHuM7hTSPm5G7vVhssqBRtzUIUs2DRYAVTtUgZFKy7W6cU5e+3r/tUittUhlznt2qgE2n7wHHak24ySM9s07e23OPxp6fMPmHf0qbgMVG3fqal2/KG+72pfcdaOWweuaLgMZA3Jp4xt+XtwaRhtOKM5bA+UYpAScgAhc8U35o+1PWRV7n8aVst/BmrAepPJPNL5ed2PxqJfMXjqKsL/nFTcBgVeD/dp2wsevSkPyjOM5p2S3HQL0ouAfcZsnPFG3zOh/KlXLPnHXrmlcYIIouA2SQ9DS7yQOOnWg4LYPej7rH29KAJ1BKKR9cUGHeud+z+dMVuBmjzRnApFAQOnJHbNM3DoKC53HB47Uue/Q+lAhD1yaFxjjn0p2T940c/NjimIlPJ445pCwHA7ioFlK8EZo8zccDiixXMBPr/APrpc9gaSTAUkcgU3zAq9evakzO41hySBzTGXjApzN8vAxwaiL/MSRx2o5QsNbDLuHQHFNcFW246jrTvur6hqRpDtxnAoKGfdbk/MfWmlt2DtJpstx83+eahaQtk/MMUASbfmGajZgGAqHcWz70NwxFK4Cu2T2/CmccGnMxbrSUWJuNZgqjjcKdTW9duad2GOlFh3CpYZR0z/wB81By2eP8AvqpI13kc4pDLiMNpzXR6HdCHSbhBuG5h8vauZrb0xiumOOykH605AWGuY5AYyfnU5PtXOXUn75w5D5bjHp2qxqGF8x9pw3JxWV8gICk47e1Rc0se5fBm48iHULhzkN5cYOccdSK9s8B66PFnxOv9QCbY9KsTDCoOfL6KCPc89K+cPhTdi50+8tkffKhDGL8eCPWvYP2f5pIdS8UvJHiWXYPcYJx+ZpSGtD7U+BcAs9P1HW5SXdjsDdtqjn9etcRJqln478f61qFvefbNN0W4S3s4RzHd6lJ96U+ojHA64xVv4r+Kv+FR/s06jeKfIufIjt4/XzZTz+PWvn79mnW5I/A+oXCO++LV5pCzHoxXg/WoprXUzldrU+hfGXiCw0O6Om6IPPMWf7Q1yYb5Luf+IAnogPArx3+1HuNReaaTe7Skhm5cc/rXrPwXtvCvijVbzSPFt3FB51m/2P7SdkckrH+90BHXJrhPil4V0vwz4wu7DRLv7fZQCNRMORuxzg91z3rpUk9EYrQ+IfjN4dXw78SNVSFDHbXMhuIc+jHkfnmuCkUbsda9j/aUm87xzp8ZA3Q2KlsH1YkVxfgfxR4Z0O8La94eOsxOOcS4I+g6Um1c38zH8N+FdV8V6nHZaVZy3U7kDag4GfUngfjXp9x+yz460VBc3mhvewABttjKrkg9uOc109tr3w/8TWzw6VrR0Ikr5dreAxgEdtw6j8a6TSZPHXhVEOh39xPaS4O+2m8+E8deSeteph6OGnH35Hm4mpXj/DR5H/YKeGWMV5pVxphI5W6t269CMkVbt7qzmhCpLER/CM8j8K+gLD9oHVreNLXxZ4bhuVzt85QEyB1OGBGa6OHUfhl8QrIvJbafZTxsAVvLZYdmRwCVwPpWjyyNRXhM8d1qknaaPmOOTaryef5A+7vB4wfTFTXc1za2fnWqyyyKRysLPz1BPFfVun/s+WK2rzeGNP0+3RiCL/zBcueM8FuF/KuL8TfBrxtC/mWfiu8iHdbi3VEBHb5RzXLLKqkNbXudVPEKMk29jb+AfxKGtWMVvcRyRXCMI5Y3+Q5HcZ656155+1R8MofDnii28UWSTR2l7lbhrf5BG/ZgR696qaf4v8XfC7xsml+JJ7adG2ssssIPmI3R0OM47c19L6wB4m8LmxuNPsJL02n2qGK5QyRxPtyhZe574r4apCWAxT8z9Co2xmHTZ8YWcurx20bW2oxXwwf3V6A5I7ZIGa29L1i5muI1vNO+zfunPmwyZjyq+9X18ffEzQruQMdB1WzjJQwmxjMeAeh2jK1Pb+NtC8VXDW+u6BJ4Pv5g3l3+nyGaydypA8xDyi+4r3lO6TPLdGPRnywymaSTb/FIQOcdTX1p8C18Sw+H7az1HVYXsriZLeO3IRwIxycMvIPavlzXPD954X1ZrLUo9jH5t0eHSRD0dD0YHqDX0F8FrjRLXQ9L/s7z7iSK4djNPHsw5wSCASMDtW10cri09T741Pxtp8dpZ23lSSxhQuIj/qlUADpzxSm80vxCnn2mrxAwDyfKmjyeOcnPPNeAaL8Qr/RZiYStw5yR5o7+59K7ey+L8d9Zx3Fzp9gb3HlyHytm/HpjjP1qjLkPUdNeK5uPs7yW9zYFScjBAPpiuT+M1h4O8LfD2/1zUtMWQ27IIVtjseR2OAuf1pdB8UaNrKl4p5dMlkU7QQChI6j8K8u/aQ8Uana6P4X0rToLfV47y7kmuBLGXTCABc+nXNCG0czY6/4Q1S3iPl3/AIflbnbdRkp83Q7hXQ+IvhH4r0DwT/wlz2f2nw40nlxX8Ug/eAnAIHoPWuA1LXL/APsue1vbAWxI8rcmHQL7Z5FZOl+OvEVn4Z/4RtNduj4faTzDYNKTH17A9OfSqj5HOdDa3LXEodslyO/oK+q/2M/g/L448VJrWowb9GsT5xDdC5+6vvnr9K+SfDdx/aF9BbKzRyySBQV5yCea/Yf4I+B7f4f/AA50nT4Y1WV4VnnYdWdhnn6DAom2VGN2d3gKoVRgDjC9BXyl+1z+11B8L7O68K+E5kuPFbLi4uhgpp4Pc/7foO1esftM/F8fBf4S6tr0JB1SQC2sIj/FM3AP4DJ/CvyMP2rxHqdzd3cs0t5dSNJcM0mTOx5JP406cerKqScdEc5q15d+KdYu9S1WSa9vZZ286a4Jck4yGBPrVbU7GHT7W3llt/s91I6iHyhl5Gz2ArpdSjtZLT7NAP3jgA3B7Ee1Zt1BvkQtei2SJSPOPL5IwQg9TXRqYHh/xg0D7Hqy38QBeYFLjb3cd/r615yqha9+8X2tlI1tZKoRGUyLEx3uV7sfTPvXiGuaTLoupSQOeG5X3BrFo2iyjtwM+ppVBY4HegcNyuTUkabSGP5VBY1ocgMT9frT1b5trce9P8sMPm6Um0Fjj/x7pVWAcqlunAqOQNxipVYFtp5FPYBmX7tVYCpJIGxxRU8yhWwPmoqbAX/h/wCGZPFXii0sVYpFndK4zwo6/jXr9l4R0/wnLeTWWrNcWEsZivNPvI98c6jtx0I7HqK1vCPgfRvhfq2qA6i14WUNFIRs+VTnketcmt1Z3uvyLp1z5sd0xkZuqDJ54rjbcnodyhZHL+MfhlNbrHqugWs15pNzysKjfJF7EDkj0P51wTebDvjlDRNtxtYEHH0NfSeiale6fCsN1LFE8UhC+Tx8vYmtn+zNO8SEw6jZ2t/HgZZoxvAJ6bhzTUrbmcl2PnjQU+z6HudFPmMWBxk4FUdRYeYCDzySK7v4maNpnhrxLd6VpQ+zWceGC5JxkZ6nsa8/umDc5+tbrVXMyaPH2dCOD/Wq5cbufxqxCcWyD8qrSMGbctUibkMmApA96rMzNhSc81LLIPvDr3qPH7znvTluMhmYg4HT0pI2w65xilkyTntxTY/venFIDWtnMy7gvK8VajuoNwUyAv6f54rP0OP7dqVtaEsEmlCnHXFfT+p+LLbxR8O7LwBpXhuzt7kqIVuGtkOSxwm1gN5cHq1PS2orFL9ge8urP9pSwvrOVo5bWwuJVbGdhwOxr9g/Afi++8RRwT6lZ6bezjkyy2qBzk9zXxr+yL+w7D4F8F6l4tvPEKn4kpm0m0dmCw20bEfIQRlmI5yOK+xPh3pH9nhILi4VZ8DgRkgnPrjiuWbu1Zm0EeuWWvTrCFSzijGOkY2jP0rhPiVqmp61/Z1qJBHELyOQwwjl9p+6TXpej6TJaw5ldST0288Vw/xJ8J3GqW3l2QuTIrbgYoeOOfv54+tWRLc/Ff8A4KbQvb/tkeLTMPLZ4rZyOuMxCvlztjPX+Kv0e/4KffB/w3DocXjtpceMxLBbXC28plV4cbVMhPAYe1fm+uGjXHFaLYknXPZulN43A7cEUoAHPapIzt6jPNWQ9jb8JxhvF3htFBy2o2/yj3kWv2//AGaWLfFXVOxW1kHI74XpX4h+Cwf+E28NH11K3/8ARgr9uv2ZefitrBwQBbyDJ+i03sWfRPjLA8K34PfAx+NZHwoyBq5PTzEH6Vq+Nm2+E70jrlT/AOP1k/CvG3WAW581Dg/SovoKx6GzAAY71x/xCONDye8yV1ucIBXHfERj/YiEfL++WhbkkPw5Yf2PeE4w12SPyr8+P+C1zn7D8NB/02mP6V+gfw5IOg3J24/0xj+gr89v+C1kn7v4ar1LGfr06ClID8uJEUngY9amiwuKjkA2Alvu8UkcmeO9aJiloWY2xxUyrwSDjFRRsAqgEYp27y8cZFVYRMSWj9TQuCWAXgmmKAGGe/GKFkC/gaQF/S2AkkikBcOOPYirGqwtcRxXAKl0Uxnd1655rLSdoWDp8hHNa1wpaF2xzIvmBfp7UAZYDZwD9BSx5IGaI23DBODTuT1H5VYDl+Y8D/GnLypBXL1HkYz0PtSqzAgk8ipsTYfsAxt+lNbK54yKDJjgdaa5Lbfmx61RQ5c9RThg546Uz+Agc4pQPy71BAZ/hHGaFcj6/wBKXyxIoHpSbdvP4Ux3HYDH+dCr8rZXml/h+79KbkMxI/yaQXEVhu4HNOHJxn8xRHncWJFSbQABng96ChmMjhc5o2Mq9sjpS8Yx/F9aRsk9GFIA2tyR1pFZlGWpQwXggmnGQGTiqGIGDnr0ojYscg59KZsxx1PcVIoAUGkMQZJHGO+KQ/LkCh5mz93FMU7uSOtOxI9eh96U4yB3qLzApCkcH0p6tg/NSEOAyM/dpo6ZHIpW3bT3pBgAg/kKEUKGDHnvmmdG4Hy1K746DjFRthh0/wD107hYbkEZIo5A5pUx3GaRckcjZzxVCEZs9KOBz09KOGX60oyMfWkAoIznd/8ArpcjqKQEH+GkqSBzBl/EUxgoyNuBTll3Zy2aaW3Hnn1FWWKCE49vzpWwTk9euaQEAHNLtUjPcVNgDlWzS5ZlAL9OoFNPygZ796cFyMhaoBM88Ck9fenRsvOfxpv3uAaAIpGChsU1htwfzp+ARkp1NEiblHOfrSApTsCxTp6VWPBxmrU2WYkjd/tVWba0g5pXAlRcZOc1KJdqbe9Q0qgrg9cd6LgPDcHvmko3/wAOPxpRjbz96qAXcdwYilVi0nPFMpwBdchs+1TYB7NtYD+GlJbcAFzUbEg9Nv0pyg8EtiiwDxhiCM/LTgxX5cfepjttXNOUv0Y+9IBeNvvSY+XPanLjo3enJ83A6/7XSgCOmKvOCPrmpFUnpxilkVvvDkE07gRMpbjj61GG555+tWdv7smmqoCjjt+dFwIolPUjFSKu3r1pd3zAdz0p+4M3K0gDcnpRuAbA3DpQqjbk0KpVskcU7AP5OWYe1RsgWTOOtHmBeduPxpfMY59KQCqu/k96RVG7HqKNufutnvQqngj8adwHqMNyeWqUN8vPQdKj69/pT1bPHFFgJCAVBoIK9RkHqe30pmeSBxTuD/DQAYLZP60nJYY9adtCjJ6UKw3D/IpAOZdxJPTrSKM/w8mmY2nnvTlUHaRjPr3oAA5IxnpSlipzgcU3y8BgRj1pdoIwe3egYFuc/dzTTw4z3p2307c00fN0/SnYQEsS2fXinbducD8aYzKgyxx71JkMMBs47UWAYu1mx607YoUAHnOKGjPfB9Ka3BOTjPSi5NwbCnAam/dxxuo+TjdyV4zSs55A5INTcRGG687h/dqNmUuRjmiTLMAKNoUjAzzVXLIXYrzjimSSHAyrYqaXPOflprD5TSAqujcEcUcrgKuamKNgDrTGymccEU7ANzkkHk1Dztx2NTFQQpxzTXQ9vnNTYm5Cw28E5pOBlqHB6bc/Wk6dOv8AdzTAdTVXap/lRu/2W/KnUrhYVj8qinRsFzmmVLCvepGTLnpnFbluMaW6jsQffFYWBGuRnOegroNNVptIdwucdcdqcmOJQul8zjqKybq3CHKfKT1WtdpF2EZ46VnzSAYGOak1JtBs7yZpZrSV4JEHWI7DX0l+yfHJr2u3ltK7PPcywRybuvByfzrwDwrqi6Ta3Fw8fmFZNwA/jIHA9q+mf2J5n1z4hS3kkSw5UTyLCAACoOPw9azkwPQ/+Cg2sGHwT4V8PxSlDeai92y5/gjTAz7Z6V4D+zv4+h0XUtQ8OahKLaPVMTW5Y4H2gcFcnpkdK+h/2tvC9v4y8WaFZXE7RvZ6aZI+/wAzMcCvlG++Cev311IkNhc74MzGVeiKP4vX6U4sGro+oppDZsUaIkqfukZHP1rRkvLax083t6QkbEBhx85xwqj1PoK+ZdH+MniLwLNHoes6jb6hZ+XuguHXfInYKT6D3p958Vn8WfFrQpUzJplgqRJGZD5bO33pMdM9q3jKyMeU8/8AjZO9x8UvEEjMQPMXCnsu0ED8K86r0/48WN1Y/FTXftUCwST7JlXfv+Vk4II9a8x2n0NYLc2E6VsaN4u1rw66vpuqXVmV6CKUgfl0rJEbN0U04W7lsAc1YHsfhv8AaX1qyg+z69YWviKLOfMuFCyY9Mjg/lXqGl/Er4c+M/DTNfImhPJcBHim+XL7cggjIwPU18nrbPu5HHeuj0exGoeF9Yt2cb7bbdRcc8cN+GDVRqTjqmRyQluj6p0nwrquk2/2zwV4taSB+f8AR7oYyOmFBI/MV2sH7TvjXwdaQWviG0s9fMYHmTPabHQDg/N0J9yK+Sfh7axaTYy3I1OexvZoZJVltzh4kQZPHqTWl4e/aX8TaUq2+qRWviG0B5W8TDkd8sK9CjmdWm7N3RhWy+HLdI+mfiR8XPD/AMUNN0R7HT203xHFfRRlr+FJgIWOSEYDBGccV0fw98eXOreLNVhvLvzxFO0ePLAyq4UA+nHFeGeB/iv8OvFnizS5Z9PufDuoLdJ5UR+e3ds8ZI6c+tesx6VYWWvanrvh9rafT1umh1ArMSY5W6Lt65OM181ns4Yj95BanuZUpUIezkziPjxeS/B7xyZI/DdrPpGoqJITHKUd88lTjg4PtXntl4o8O+Mr7yLAXOkajIGP2G6+eF8g52sOn0Ne/wD7RXh3/hOPhCl2pX7fpKmVGA5Kjn8sDFfFPhvVhqGpRQsDC7q22VeoIHrUZbV9vRVwxcfZVHYdJ9rt1HhzXYWt4Y5T9lmlGfs7E9Ae6HuPxr1P4S6prGkrc6bPp9vaWsB3rLbjAnz1I6547ivIbTxNLqcP2HUZBI6/LFLccg4/hf8Aoe1b9jfQahpaW9vqEuh67p+RCjSNsePuA3r6e1ejY47qS1PptLlGkR0dWA4wDn9OtTyRI9v52AQDkFexHqK+VrPxR4ktZknaFb7ZyZYSVf8AEg/0rptL+N15priC4mubMHrHeReYufqMHFLl7GJ9DaO3ktPKD84OQGJ49xXE/EW6/tHxh4f87xJNpaRWxxEJSnmEueQDwayNE+MkV1EX8q2uBn5jbTAZ/wC2Zwak8QahoPibVtK1BUlnltY2i23EJ2ZJyOe+KcbrcVzR195mt0P9rnUYi3G4APkd+OtYgJHJ+oroBaW8kQSK0EG3JO3oc/yqjPYpFyy9D/k1qnYz5Gdf8F4U1L4qeE9Nf7lzfRZXv94ZA+or9uYdRs2xBHMg2jG3pxivxC+D9yNL+LHhO5yRsvVOAPfoTX6J3HxSmjvPnMsb5IJB4FD3uOOh5N/wUf8AHz61488PeDoJGNrptu17cAdPNbhc/QV8krbwmIrHK3yxc56lvQY9a9X+NF9J40/aG1jUGt21Qgwxx2YkwJAEG3J7AHk1574i0HetzaadcWp1XzC13c52WlkmeVGfvkdOO9dO0UkYy1ZgRRww2sctysqSkBlt/wAcZNc/rMI86K7gtBLchyWlmkxDbRnq2O59K276yaW4iWK9KW7YQzTRkGRF6uB6HsKpXl/BZ6pILeRbi3CnbDLyHHTcw9BQQeeeIrX7HcLcIkUUdy2WuZPnnuT/AHQD90AV518TMf2rbZ+QmHafrnOa9f1W4vrq2t4ZHhuLl23T3TRYcJ2RB0ryX4xbB4mt4lIwlsmfXJ9aiRpDVnFJNk/Mclaljm+XPfrVZs+ZTlY7TWfWxqy9HICqgnmiT7r46GqtTbiycvTuIcpCsQBUyY+X7uPSqe3GQfUVIsmeccj+GquBM2e+00VD5p7DiiiwH0D4gia+nniuMlzH0k4B49ua4f4e+DtH1LSZ7i8la1uUu2hMzTiMBR0IHtX2N4i+DEXiK1S400293PGMNFDIN/XPTrnNeAeMv2dIoryVZLN7KSWXzOJeOfvcV5cKiW56TjqeZeMvF0/hLWEtNL1S11W2CAN5fzge2a0vCPxiSTUIo7uyMJkP3oeRnsMVW1T4H3Ont5UKXF2zqxXy4ickdK5LTvBWv6TqvnXOhX7W9s37yb7O+1B/e3Yxx9a3Tiznkma/je9bUtcvLt/+W5579Olcfdx7VBxzit7VgZLgnd061h30gbBPBxW60VjEmjU/ZY88HFRP90jGKm2/6NGA3GOKruxVsUwsQtCWFQyr5bLn3qdlLgDvmq0wIYKeTVdBld8t0pm75s1LzUTfoaQHQ+CWsV8QRPqKF7ZUY9SMNjg8eleneDfFei+BvHWheIVvGlgsZjOvlZk/eKMpuB7Z615P4fkS31CMy7AJAU/e8Jg+prrPEOmS2Niiy2ESI/yhreTfnjjNFk0B+nn7P/ijW/Hd1qPijWb3z9RvrhWM0MnG3aMAewHAr7M8D3kywxKskgdsHPrk96+PP2a9GvNC8D+Hobq3EEktjCTD3GE6mvrzwm3lxW7cnKjp6g158naWh0R+G569CS0Kk8nFcv48USWaR7mXd6E1vWt9HuS33l5AOSBkfnWD423yWW0AjqBx14rqWxzS3PzZ/wCCgmnRSfBfxAwQfu5YGX1GJOtfliuccdOu0elfsP8AtbfDvV/iR8P9b8P6PCsupXkH7mFnC72U7sZPHOOtfkHLZyWM01vOnlzws0UiHqGU4I/OtU1YSIkUbadHuXp2pFG5jhv++aevDev0oHbQ6PwKpbxp4Xz1/tO3x/38Fftr+zI3/F1NbJGd0Eo59AFr8TPA6/8AFceFflz/AMTS3/8ARgr9s/2Zc/8AC1tfLDAWCVfoPl5pDPoXxpIV8L3h6jKA/iayvhUxxq4PUzp/6DWh4yyfCt7nsVJ9+azPhThY9Vzk/vl/9BppaE7HozHKiuM+Ih/4k8fP/LYV1+8YFcZ8RH3aPGV/57pQIh+HJ2+H5zng3jcfQCvzv/4LWuftXwzVRxidv5V+h3w9OPD849bxvzr86f8AgtY3+mfDRCefLnOPyqXq7AfmNIxCgDnPanxLtGc5qKViVOTToT855+m2rJepYiTsDnNSeYR8vHpzSL16Zp3Ekg9K2AlHtx6U7YdxHekZcRjHX+9SbmAHHHQ1AEgyq56+tadjI32WOVjzGcfnWYuW/LFXNPk+WSFu44oAjvFEdzIqL1ORUTZB67R61Z1BQ0iSBdmQAT6kVU3BWxvytO4DlPALfLSM/facnpQPu4/A1H95sjdRcB7fOODSxqWO4/hT16Y20LlVx396oByr0YHqacrleaZuGMngikGeo/KpsTYlX5Rz0/2abuZ84HHU0xm6A0D5iedtFgsPyfvUgyq4AHNLt/vUL94Z60hC7SOhpwx1yM0gOBgdu1BwpyfoKCxdhb5u1LknnPNRknkjr0xTlyPvdKCbjjt25+ak2qcEcmhQ23GfwpGbkEDp1FBQHnOPyobJz69KXaOgwTS+WecHvQMjKjd/FihuFx0px+U+vvTJZMDGcZ70CEUAybW4Hepgo3ccVBuy2etPVm6FasB+7t260gO7ouD1pu48AClkyvX8KmwCuQDkLSE4bHY803JLE9zR2560BzDuDwDnNMJGMbaAD1HzUyU8AFsVQDgD378igjHofXFOClsmm/xelTcm4vbjr2pGUd/rTdoj69MZFPb8hRYLB/nNJ06f/XNJyCPSndG75qiiMgsxGduKk5ZeMdMc0uwMCfXmhPvcNyKm5NxGBCjHU4pxYgYBzTedvQfSnOdqj5ecVRQwLjnHHpTmwhIUYxR8y5wm0f3aRvfrQBE7dW2cVHJlmx09Kk3bm4b9KSRAOB1pAVJFyxJzUG37qk/XbVqaPKEfzqqo2sR2qQFhztPoKU/dXnH+zTf+WeSv0oZizBfTpQBJFnODwetO3Yz6mnQrn73Jp+4csBzTuBGVIUHtTCx3DA4NSlt3B+WhFHOecUXAYrHt09alC7eD17Uu1WU4IFOU7mzxn+9VAIvTn5h15p7ZZjxwKAwDHjg09Rj73+7UARlcFTtp+WU/N0p2R0xkdqYzcZXj1oAUyZ56DtScs2B0707a277gp207f7uDTsBDv3YUnr0oVSy47/pTmjO4jt60m4qxxRYBWjbJ4z70fMvoop/3uhz2qPaO574pAKFaRsE0YG/Gc/409vujBxmo2U7ZB0NO4AynkYBOOKTy+3IGOabt29+35VJlth/vH5aQAi+W49OxobIcZ25pVY4CAfWl2Oy46YoAZzw2ctmpo9vULUYiOMbqkVWRasCbcP7p4ppfHHSmgE85+lO8sdzU2Ad98fezScK3t60gUKBjsfzFMkbnkYzRYB3TbgZp4Y4JAGfamdcYpeVG0iiwDi3mMpIzSZJwMYpVPIO6l5PXmkA0Buwz7U0KdzA/Mfan7iOv/fIpq7QxNO5NxpXoeooUHdgcU7ny6AoyQBt9aLlAQQuc5peXUe1OwAADx601l3E7emfpSJsNI2nj5vSkGW56etLs2/jUhjCrk0rCK4h6k805YygAxzQ0gVsAcDmoXkZZN2cc4GKosWXOcfjULHC/LycfnS7WGdxzRsCn5eaQDWyqqPwqNsklc5qbbuU84waZJ93I9adwK7IM8jmmS449alf5v4fpUDEs2PXtSFYZgHBpG7kfeqQQs5zThYnd9/8AKlcfKRZz0p3FSfYVB+/1pjwCNsDn61Jdhm4LklulM+1BWqXyVzgj9arzIscwUdOKVx2F+1Sc4OBXo3w41jSNP025/tyMPBIu1TICRnPfFcArIBgn8hW7Zxr/AGZ1winnvxnnNJ6gd03w/wBB8RR+boeq7HcblXIcIPQjrXLat8ONa02MSiAXsHrEeT+FctdA2d0ZLSQoQeGiJFdDofxI1zS5AGnF30wtx2x71Qjn7hpbKSWGWOW2JbOyQEV9b/sBzCTxregnEhsztGOuM5NeK2vxS0XXFEXiDT4ozja1xHH5gOfTuK9l/Y/17S9E+Mif2Wn2jTLxlso2Gfk3A84/Sspr3RnuPx+jH/C0rJAP+YbHg+xJ9PSqf2K40H4c6hq1pBCNT1WX7Pa+b/zzUHJx1x1Nbn7T9lc6f4o0PUYAsazWTQedjPzqTivFPGHxB1y18JyX2s2kMup6VpstnplxayFIzv4LunqAeMVEdUV0scL4FvPCPiDRfEvh/wAS6LFb3t4W8jVocZedThEQnnk9ga5Hx98KdR+BvjDQrnxX4bv7PTptnn2mdiTLjPySdAT6dRWLfyJb/Duzvra4K3lvLBPFMoxsdX5P1B5r7Ii+Lnjj9pL4deH7PUrf/hJLm4hZZLVYUICRjBkJI4GOc+tbJPchysfD3xg1SPV/iNqd5Dbm0glEZhgL7/KTYMJnnpXDeYzLXo/xc+H7+E9enu4ZRPp08jKEEod4GHVW9h2NQeC/gP42+IOmRXuhaOb5JpDHHGGAkcYyXAP8A/vdKnYroee7m7dab5jhuuDX0H4U/Y/1zxFD/pev6fpk8Z2y28kMjvEQeQeB0/Ku50/9iHRIVH9peLNTuXHDDT9M4/NjV3FzI+S7WGS4kEcQLyEZAzjpXr3wp+DOs+Iry7V41geSwkAt7gMh+YYTJIwfXA7V0Pjb4X/Cnwvb3dkmueKNK8RWm7EWo2KmOZh0HHQH1r6K+EvhPxN8QPgzqHja48b3+lQadbjyrWztYscHYBuPJzXZh5UKbviFdGNWNWUbUdzwJ/2ZfGGj+GxHbC1uLvVFFos/mECNAckcjI3EYz0xXj/xE+E/ib4W6hHZeILNYJHICPHIJEJxnAIr9DPjRo9zp3w1SXQfFGoWHiPw/FAslvb7C+oGYBt8iH3PUcCvjnWPDvxX8T32mjU9IuLmexLTQxBVCbmOS78kbz/KuStWoXvT09TqhTrSiuY8Pt/NhuEkhZ4riNgVb7pRs8fSvpr4AeILCH4a+IF1eK+urnUNS883FvKOJVUY3A8nJJNZ+k/AG88UXFzJrOhapb63IBNPFHcxRx7SeCM5P1rq9L+Deq+GbeO1sLa4tYvM84x3GoK0bHuTgZya8TF1qVSm4XO/DUqkZ3se3xqdT8KT2s5T97aMpPbleCfxr87dJuotB8UFrrcYoHeN9oz6j+dfdt1r+v2Om4NhpvyRBMxXB6Y6cjGK+Odc+GV9cX9zLEJEuJneVYpANp5JwGHFYZVF01K5tj2pcp51IdzMR0JzW79q/tDTbe4jA+3WOA3H34x0PvjvWRdWctjcSW9xGYZoyQ6NwQfSkt7iW3LGNthYbSR3Br6FHjnfRa3Bq2njUEt/LngI+2LbkhsH+NR6etaMeuaRqQSCS9t5AwGFuo/03VwGka1Lo+oLcxKryKNu0n5WXuD6g1vapp+ianoj6rZNLYjzQslrjeI3PofQ9qi1nYu6aNu88E6XfSZjia1/27WQSD649Kbb6Tr+jlBo3iAyCM8RTHYPyORXE2v2qzYmxvyMf3WI4rTt/HGqWYEdysV2i/8APVeT+IrSzMj1Dwl8UNZtdcis/E1mrWki+WLq3T7jY4Y4yCD0rptU8XWtw/8Ao7h93A/DrXj9v45sLiPbLHNaOeuxspWf/wAJBFDcuUl8xB02cZHvR6heR7f4e8YLY+KNIui4/wBHuEkKA8j5h37cV96394s11G+/HmhZOvZhnP5V+VlvriyW7mKQxP8A3q+3fhH8WrXxh8OdLuLif/T7Rfsk3ckr0J/D1qJrsQvMreM7yLTPi1dzXAuDBdxiQC3Ox3429ffFUfEVqbLUraSWC1jBwDZrzHAM5XzGHBJ6mrXxWuV1g6ZqVtIplslKSepXOR+VJZ67Y6/otvFJbmXyMGLQ7MZe4k/56SyHogNdEL2MZaM47xrqVitx51tcTahcJ81xcMmyMg9FjHoK5TxV4bh1GVNStZfsZmsXt5IhyHY8q3B4rb1Vb7xpr1wWe3spYyY/JUYhAXjaAOv171wel6hq2r6zKY48SYkhuF6LGUOFPpWtiXoL4Js7vXb2NbosqRwjIPHzrwQa8X+JWrx6z401GeL/AFSN5Kkd9vGfzr2/4heLP+Fe+D54lliOtagpiiUD50U/ec/0PrXzKzFjkknPc1jJ6G9PuPT2qSNRux0FQqflxT1YFfp1qOtzYlDKOARVgSA+1VVbb/dxUm7cTzk0jIsdeKj299y+1Isnzc8CnowwdoqriFZECjccUUsbKZDnk470VVxn6v8AgHw/o2paHbXhszbTTx83EJ2P9c1y3ib9nmDXNc32+s3UdnuXzMyZfBPOK3fhNfNP4E0yTr+47cDr6dq6K48Sf2bPFCIGneQE5HTPvXhct3ZHqyko7j/D/gjQPBVukWl2bfLnM1wfMc/ifWvHvjd43n0b4S+NHd0jEimCENFgZY44rvW+KlrNr0WjzaZcwST5jE3VM+lfOv7W3jS+uvDttob2f2KyurjeHjI/eqnHI9Aa2jRfMrkKvHlaPkmSZ5LWNF5AHJNZl180gUc46+lXbh9ilR0A5296oyfvF25wM9a9KxxGlndCiDoBVWQDqT04xU7HbhQeOPrVZiSvzetMCJuMGopsFUI655qWQFuFGMVFJGVjwRxVWFcrSL2HWopG3EelTNgnjpUTdcbc1IyzFd+oznj5q6H4e+E9Y8feOdF8P6HHJeajfXMcUSZOOoJJ9AByTXLN8uSK/SD/AIJx/BNPCHgnVfixrFqP7S1JTZaEso+5Hn95KB7kYB9BWcvdVxxXMSyftrRfCDxpceDvGXgm+j1jTZFtmm0+UOkgUABgDgkEenFe52P7al+TocWgeC7nWY9RG6LypMvFzjbIADt5q94i+BXgv4vW41fxnpAudQtT/ot/b/u5/UhmHUexr7O+HfhHRfCXhTR7TSNKtdPgitIgot4VX+EZ5AySetckZKo7Loa6wWp8ofEL9uK5+Berz2HiLwuI5BbpdSy6eC4Ab1DEEkdCBXiXxG/4K/xDTYn8PeC7m9kkB8tr7EcfoM7cnk9uK+v/ANunw/4ZvP2cfGGp69otvqT2dm0sMpjAkRx0IfqBntmvxD+Dd94Y1DxxoumeORNFo12dnnW0mzymY/Jk/wBwng+ldsdrGT1Z9TfCb4jfG79vL4hPpOnzjw9p1uwlml0+MxW9pHnlpJDksewUdfSuJ/b+/YqvP2afE2m6/pc8+seGtWXE15KgBjuv48gcDJ5Ffo58I7vRvh3oOn2Hg7SrfR9LtQFltrUBGkBGCSepJHIJr2z4jfDvw5+0V8H9S8L6iPtGn6jbmNZZsNJBJj5X9mBpeg2j+boLkEEfOKWNe9d/8cvg1rvwA+JmseDNft3juLOU+VcbfkniJyjj1BFcPH8ygj5varJN3wHub4h+FBj/AJidsOf+ugr9sP2ZM/8AC0vELEctBKOnP8Nfij4DDN4+8J4AJOqW35+YK/az9mFj/wALQ8Qnrm3m/DBXilYD6A8aSB/Cd3jgllH61m/C4fudYB42zIPzGav+NpP+KTu1X+8v86zvhYw26uRnBmX73sKcdhJHoQ+7jFcZ8ReNDjU8AXCHdXYqwrjfiM+3Rbces659OhqVq7EkHw9LNoE5Ha7avzq/4LTv/wATb4aL94+RcH+Vfor8PcR+H5SV63jd/TFfnL/wWmY/258NBnA+z3B5+opdQsfmZMuVXHNSQ/e/CopPuKRzTh0AqyS2B8w471JGTgjrUNrMF5Oc9qsDEbYxwf51sA7rxS8qvsaRlPuB9KNx6dqgBy7e/WpLaYxzIdoQ55qLdubk0uwBsFqANW6hM0EsSjeU/eDH61mqyn+Hk1t2LfaGg4wVHlE/hWPNH5bNGVwUJoAjaMk5FC/u2waUHavzBuaVW3MOOnNOwDww2/dxSMxXpzTF3sxwcD/apdxx+OKoBnPLNwOhqXcEbaTg9RTckEAc+tLtLFs80AOZQRx3prN94dD60SKGwM9P4qXyxkHnpQA4t2PU96ftG3BNR/jS559waggfuXGAvXrRu+Xpz6U0ttwRz6mlB2nkc0DuOz3/ADpOVPJoONxPtSdVI7elAh3mY9vXFN84jjH50LjqeaP948daB3F37s8DJpcn+ppFI5AFIFIK+9AXEHXIFRyYb5j2pXZumM0v49qdigVQrGndBgUpwoANLwu0jrRcm4wcqTnkdqVsvJnbSli2Cab1XINUUB9vrThluKcqqwUE8ikGSoYdFNSybEbZ7fnSbum7pTmkLZGKax7Dr3qiiR2woI/Gmbm3cjjHBpvzcDPAp2MAAt781NibCFxxmjjHTbSjGTxn0pWyBjHNUUJz1o5xik4ZhjqvWlz1B6rQAbgq80qsC2F6D8KYqncMntSqgj471NibArYYYO7I70N8i8/nRz0pGXd161RQqtuHHNO3H/GkHp1NC46nt+tICNlJ6HGD0pzKynCrS/oKSSTbwDyKVwK80ikH5ue9VedxyvFTSA7if1qNvu+5FFgG8Hr0pW2q2BRwvB5x/dpyjcfu9OtIBwuOwXJBGNtPb58fntpqY5zihn8vgDNACyR7oyD19aarbmKN3FG/zCMHA7/Wk5kY4FOwCL+7I4zjtUvy7wV9O/agRlchu9KP7uMAjmi4Dxjd7U5ZF3fxD+VM6GikA/h2AAxSx8Mw601MhumTT9pYL2xQA5stlfamZbGB9Keq/e+bmmd8Z+VasBgJ3ZHWpPKBJJNNXmTI6U7c3XK4oAZHG0e9Sd5pV4OTxtpz/dDfjUWc5HUA1AEiyDABFEh+6McCmcbR3ajIPLNigBjhmz6Gnxuy4B+agkbQAOaSgB8fX7u6pvOHzErzVXzCpxjO7vThlmoAlVyXyVpFYmT5jimeYFVRn61H8xcnHyU7gXASvFCt75psZO3HX0p/JwMZ/Si4C4HI3UbNxwV6UnAb5utHJOTk81QAWIxgZx/dpWIb5gfwpdvqufSjaFHJqbgNZ/l4HP601tzDhuam8vd3pVQ7zxmkAwRkj3oaFl5xwashVVeQtMZiVycdfvU7MViFVx1qSRwFx600R4PHWnKO56UgG8lgM4qZolXBL8U6NkCn5VPakZQc8qg/2qBlfzCRgCk5bg0reXGcmVT2Cqe9SravINyx5Dcg5pXFYqsBtJNRN+8bKpxV2aykVc8Dn0rB1C4l8wxM+NvHy+tK5fKXuFzuIz6VXd9qgbqztzY6k0e5pcxVi61wURskcenpQbj5eJB7VSpVJ5B+Yf1oCyLLTR9CWNMFwitkL2qDaRwaKYyc3R7CmNcyMOtR0w5BTvUgSS3kzdXyKh8xz/E3506Tlc9Ki9qAJofu/jUW35iBzSjG3PcU+NSrZYfQetAEkfynJGT2X+tWo9SCw+SeBz8w7/WoAsu3ODvP4Ypq2c0jYCe1AFlfLkKkHketJNbjnHXrVdoWt2HmbcegPNaGmkTXkW7kE8809GFmUPs7N93pjrX0B+y/qmq6DJeXmk6Y2r6gixGC3iPIPmZ3V57b+AbzVJJBpI+2SpCZmh6Egeg716n8A01n4f3GszyWk1o8loFVghOxs5APoaxnJcuo0tT738ceEW+Mfwyie0gEeswqJ4oTICY5wn7yInpz0r428YWkl7p9xpdypt7mHdHLbzcOhHGPzr2f9nv4ueKPC1/FYaxFLrtxqRaeewsYcvbp2OeADXuWu/C/4cfHa6a9hcWeuoBHP5JVLhGH8MsZPX371zU5dCpRsfmbpvhbVYLqXRpUiudLkH763Y8he7L3BBr1D4f+G9U+HN3Z6bp3ji40u2v2MUcIGyQo330B7g+9fRep/sM6hYeL7nWbPxDZ3Zkh8mKO8iZBEPXjgnFYl9+zLrcvxK8L6de6zpNvdPbzSW+oRQl9m3HyBWOC56+1bqepjJc2h5vr3hHQPBl5Pfaxptxd2F1F5ENxNgokrHDeZ6Z9e1XPDWl+J/hj4tit7F7a40TWNPa3sdUMuBH38ssOAfQ96+hNW/ZbtW0D7D4g8c6zqNtCfO8r7NGIww5+63X6GvDPi58FB4Z8L3Nn4Y1m48QQXUe60tRMIDBKDne6E4I7YGKu9yFfYxPD/i7XLDxwdU1i3uZdKcfY7uZgfJideAAw4zkcdzX0L4P1f4X6ld2kPiH4kL4YMyGZft1pJGDjqodgAT7Cvmjw7+2Fo9hNp+ka94Xi0PT9IsWtI9Ng3zol6hBFxISMlyw/AV43+0p8Zrn4tXmlytO/2RpJLoW+P3cTNgEJ7Y7VSTbsVZH2z8QPjP8AArSdUn06DTbjxjIVeGHUNQCCCTsWTIyQOx/Kua+D62Nv4U1DQ7PXo30i83NJpcJ8uRMNuCsDyQOxr4EPjDUZvsS3KpeCAosXmKD8q9AQOp969O8M+K/EvibVI4rXQ/tN+2BbsuYHT1yc9KitQ9rC0XY3oTVKV2fUvjj7LoV9aeKElm1FbfFrfW08hcvAeAQT6V6Tp+g6bp2gxeIvEMsujaJcfNZW9tHvvb8EAgoh6IO7n8K8f+C/iLXPCei6xefEbwVcahcwZW1umljkjii2nJMZOGI7MeK8yuPivqGj6a/jO9t28QaZMxhs7W/1DY5j3fJuReQB02ivGWX1G3zO57tPHUIy1Wh7h4o+Inw3XXtOGzxJol1cK0IupDHdZXtvjTJAz3Fctpvjez1fwTrPiNpV+yaPqP2G4iiz5m09JCGwRn0rwPW/2qvGOqaxFqGnWmh+GHiiMMZ0+wWR9rHn5nz+deaat4o1DV7y9uJ7mbzL+Xzbr95gTv13MowCfw4ro/s2Elruc8sxtNuK0Psj/hYXwq1JYE1nxS2mWk8RLJ5JeQN3UgZ2+1eO/Ebx18LdPuJU8H3euazOrY82aLy4fYc84rwz7QZDuxn396iEM082FOcnAVuhr0KOHhRVonmVcRKpK513iLx8viK2EFxounmRSFW4ePMmB03N3rj47WzV3P2dTg/drStdEmkYhgQg/ujvSTWEdmu+WTYBz1rqOVtsoLb26jC2ic8dM1ZgHlq8aRDY3VexrLutfiVv3EJPu/Q+nFZraxdtnEuzv8vFSUkzp5LVZOkQU/7IxVWbT+eEU8c1z0mpXci4a4kI9M0itcTMWDscd88UFWJbq3Csyjg1SyVPoatLDubBkLv6LVeWMxtzSeoIlgvJIeFJA9BXcfDH4lz+B9WO52bTrkbbiJf0I9wa8/oqdQsfUdx8QfPtzcRXC3Ec3K7TkfQ1NofxCsJpXilmNhKylPNikIyO4J9K+ZdP1i700kQzMqEYKnkflU8niGab/WIp9ccZrRSMuQ+srKbToVM0eq2eMDLGYDGO/XvXLeKPix4c8G28y2csOrahIxlWG3/1Yf1dh/8Arr5mmupJsAscDpzTEYrzWntECp23NTxL4kv/ABZrE+palN5tzKeewUdgB2ArJNPjXzJAp6UkkflNjrWLNUNU9vWgetJQST1oGS/Wjmk3dPel9qDMkB5bdUm4nBqNc96VWOGPTNVYtkqv5fO3fnvRQi+ZznFFFzM/VH4Gw+d8M9PDON6/uzjrx61q+J4b611a0FvH5tq8eJeO2f51S+CX/JMdOJGCxYnHQ812kzfLzzivJvyyuenOPMcBqVoLW+tvJgZ3WQFLnHKex/xr5P8A2u/EBu/E2jaORLHdafbzGVZOnztkfUEV9n3zG4vIoAcbmx9Pevz6/aA16TWPitrks84nMUn2VSD/AAJxjH1ya6qc3N69DnlDlR5ZeKVXGABVJgDsPYmrU+Sc54NVVyrhDXWYlu4UCTgtxVfgqcCrBkO4HpiofM3N04pARuNzdeP5VHcNgqKVuhAP4UyXDNkD61VxWKpz0NN285PWpmUscY/Go5G8tcdzUgem/s4/BW/+P3xb0bwpaB0tJZBNfXK9Le2U5dyexxwPc1+xDabY2q6Z4d0K2FtpWmwpZWsKD5QiDG4j1PevBf2GPgjH8E/gifEepx+T4t8XRrKAR89vZjlF9ifvV9H6UsGh6JPq9/8AushvLJ649vqa4K8nJ8sTppqyuzK8Z6tHYSaB4etnxPf3UdvgdcZ6fjX2HawC2tYYh0jQKPwGK/ML4efEg/FL9ujwn4TtQbiHSGbUL+VTkb1TKp7bQRn3NfqG3FdMaappLr1MpS5j5B/4KleIG0X9k/X4kcqbx0g4OOCRX4S6gw8uJR/CoFfsR/wWT8RC1+Dvh3R1k2yX2oL8ucZA5P16V+O+pY3cfifetY7EH6JfsI/tGr4l0WPwvrd5v1nS49qmTl7m0AwGHq0fQ9yOa/Qz4e+Lz4Z1BRI/maXdAb9nQHs4/rX8+XhDxXqfgXxLp2u6TObe/sZlljkXo2Dyp9QRwR6V+xH7NXxs074s+AdM1Kzk2JNmNrckZtph9+I/jyp7g0WNI6+6d3/wUU/ZJi/aI+F769oNuD400OIz2rxj5rqEDLRE9zjkV+H8lrNY3TxT27QyoxjkVuCjKcEEdsGv6Pvhh4sa6hOk3j5njBMDH+NPT3Ir8xP+Co/7HjfDvxI/xT8J2fl+HtVm/wCJpBCOLa4b+MAdA386n4WQ1Y+HfAcJb4heEh2/te2GPbzBX7SfszsZPiV4kI2gLBIp7E5Yc1+Lnw9ynxE8JDfkpq1sTt5GC4wa/aP9mNd/xH8R+hgm5Psy0XvsPoe8eOG/4pucqOPMX+dZnwtbFvrIA+b7QpP/AHxWj46JTwrcEZGZUHH1rP8AhUA0OsAn/l4HHr8tXH4SLnoQYMgAG2uK+Iz40e3+XP8ApAz9MGuyJIjzXGfEhR/YtoR1+1D8gDUrRkjPh3IP+EZYkcm8kz+GK/OL/gtVIx8RfDhOABazn8yK/Rz4d5PhlztwDdPge/FfnF/wWkUN4r+Gynr9jnyW6cEUnuM/NE8oB0FPpOFUDtQpIkA6mtbDsWY41yG+XP6VKwOeD7Z9Kaq+WmR1FSRyDdluhFVczHLIAhA6Uq4c5B9qbjafu5FOXHYY56UgDy2ViQdtOhLZcN270m4nFLvDBvegDU0uTDSIOT15NR65H5Wobjx5qg57E9CKi0yUx6hEPU89/wAK0vESiSG2KdV+U+lAGKrAryMkU3+Lbu96lKhVxt+tMVdoyehFWAjZK/N17UquAnuKNqdKCgXILH2xU3AcuOo/ipVxjHf/AGaaqjqTuoz83BWqAl/Ak96GbJ4pq+jfNTvlzkZoAU49MGjlRnbmkJAOeR/Oj+dQQNeTbj5sDrS7W49aQL03DJpxbecelOw7C+Xzwck0R524AxnrS/N164o5GQaQgDdOM0qkfMTxSHscelIz7cZ/8doAcACue9BIO49KAwDcZ6cE0xhuwG6DoPWgBu7k56UsUuT1qMhlUAU+OIr846etO5ZN06jjNBUHAJ200/K3Hz1CszM3p1pEE7bYlA9ajdizHBzxwKczFlz19KRVG7Jp3HcFNSKxwQF6dPrTOCcflQJBhhnFAXIdoQc+tKyjqVzmhkXJJoVQvQ44qihV28dyf1xTmGEJK8moWYDkdTTlO5sfeH0qbgPaRxGpGOlN6qCwo52qNucUjBt/AyD2qgEGFPH96n7huwfl207aGHytupHXjn5qAGlzux27UqsG5LY5puOM+o4FBjYlNpqbgSDaq84FNVst8uacqFV+Y/nS84wDRcm4meaRPTK89KXBPX8cUm7C5Py88VRQrEBmAxz2pjYAyRk0bgwyOcU1+MgFcVAFV2+Zu1N3ZPPOKfL8vHWoh83TqelO4ChWZs5qRIznOcUxcquT3qVRhcAUgARrwOuf1pjKFHX5qlwfoaazBeM89aADaEXOPrUcknzAj5B0xT2wetRM3y4Ip3AlWTcpOMY9afzu9qqryuQdnb8Kn8wfLjpRYB6sCcn6VLGRyPMyag+VV25pybguM80gJ9qo2TzmhpB0HzUxc/OC24UN8hBHQ0AOVvN+7t/rT5IxEuRyDTolVBnA9KjbczE5+8cYHpVgOVflx+tJyq5PNPVTgDnFLtI/hwPrU3Agz5i4/iqOTMWDU/PGfxprL8uAO9ICBX3ZyMYpvOc5ztqT7hNN5xk5HFAhPMG4AU8ENznvg1Dyq8fNzTo3xwVyM0DJlhLfMKftBwOwpVbd/sjptpzL82A3NOwDPLVk460u0qrDgHvtpxYIpIFAZZvl7ntSEPijCYB54p7HnJ7d6h8shSMEjpRweTwM9zQMn2jgn86VQO/WoluIh95kH1qOTVbZY9vmjj+7607gWgvUGjyxjtVBtatlY8O/0FRSa4G+5DjPXJqborlNTjPt7c05ZEXkK3HXdWF/ak82QCIz1wvSnRyE/MerdeanmDlNj7dEu5WPT8qhm1q3hUBnEhPUJz+tVFgjkWRGHGOeapW+mxysCWfZnoKXOyrF1tfgSQlIyR706z1Sa+uY4Y4kAPVlBJApi6LayMSPNA7A1e0uEW906qGG3GfT6Uc4WNyPwy8mnpcm5bf5oBXGMqe9SHS7eEuqwY55zzj866OGz26HBdRuWRSAwc+9ZviCM2uoGRT+7J+7jpnpRcR53qEaRa9OEyEDYG3iuss8G3iwCvy8K1cpfL/xP5Azb9x6/WuzhgC26ZPOMj6VE32KK162Icvxz+dcVqCkXTKfSu4vo0MZU8betcbqsareEjJBGamLAok0hJyABUm3H3jihY9wJ6VqA2hQSM4qdYwOnGKdtO7A60wIvLaRcFfnA496Psr+wqxt+8Aanjk+0fe4kAwR6+9AFRdPaTglRnpTvsBXhjn/AHatKu3ntSK2Nx60AQNYoFywqhMg844+761sSENGSRxWRMD5n1FSBcVU8mPZHy9R7NsiEZ3lzx9KkjYmRV+X5RnikjbbOhOeWPy0wLy/cGOtO3OsblV5AOPrQy7Wzj3p6uv4ntWYrn3X8Ifgz4H8bfBnwdFrnh+0vJLy0Uy3UQ2T7ieu8c5rm/EH/BOGXVrO51XwN4jVNs0gi07Vo8cKcbRIOv1IrxP4Y/tVeLfhnodjoltp9hqOn6fnyVuNwYAnJGQefb0r6e+EP/BRTwXNajTvFui3mhTtMzrdWp8+L5jzuHUY+lcijVjI6JSUloeIaL+zv8VfAepJfah4aur/AE+CQxTXOlyiQYXr05xmu80b4peHdJ1iU3uk6hFG8e2SK5tWcF1PBOPevW/h3+2XHpN9qFxFpB1Xw/HfS/Z72xJDvGeSSh61oeD/AI2fDH41C/im1nT7K6nvZB/ZupRrBOIyeNp4BP406kJNXKjJbHgGpfGLV/8AhY0l/pVhfQQNARutrcxlQB1wev414p468d+Kr7xFc6np0mpWdzLJu+2AmB8/UGu+8Q+OtF0v4uapojx30mkRai1rDcxXGdgJwD7ivTfF3wktbO3lml1LS4tMUhgt1IU5PIOT1/CtYwUdWZzZ4x4Z+PHxtsoI/snj7VJQMZgMf2gqvv8AKat/Eb4ofEbxFJp8t74u164msSLiO4W1NuI5CMfuyAD7GoH8UaR8OdTn/s27a8O4MwhlxCDnOMnnFct47/aL8S+OIhaXEwtbNZDi2t4wOB2L9TW6i9zK4681Lx/rLG71LxhryEjP+lXT8/huxj8KwtY1jxBaw/N4ruJHyMrFckk/iK5S+1y4upBI9xI7NxhpCRiq1utxLN5jcZ5Fa2Mrl+PUNQufESTxq1zeucSLKMmX1Jz1ravrG2jbfqFuEKyeZ5LH5B6gY7Vl6td3F1HBcRp5d3AwPmpw+PwqFtSe+hfOmxSXZ4M3zkj8OlMDQ1XVre6KCyEFtAOMW8eOf55rOsdQvbC4dra+uYn5XckpD4PvU1vYFYf9Tywzz61Zt9Pn2u/2MnaevFCEU7i71e9jMU2o388cnBWa5cgj3BODVZdLZNisu3njJyBj2rrLexuZofNVERFHOTxU+n2omTzlg+0YOCy81Nw5jn7fR5mjRmJT/dGeavR+G3Mi70DD+83FdJM0cce7y/L9RjpVS3R2uSonKEnIBXIB7VWg7kln4QjjILHGevfFaTaPBaQhQFyvILYzVuOa5hhPmlXk7MPSuZ17VlhsXEb/ADnI3Y5H/wCugkj1bxDBpsLqhBx/zz4Ofx6159d6pJdE7jwSTU0yT3Z3SoT355q5a6LFIfnO/NBRW0uxhvA6uuCcYb0p15oqxTbUXIbp7VamktrNnCyqOcEVnfaLjVJgsYKJ6+1AxslrDb8MNz+lVpJiV8teAOcVbuIYrGEL9937+lQWabpcuM0rCL2j2I/1pHP+0Ko3iDzpRxjPFa6SFfkBqpcWZI3DqTzRYDI27jwOtDLzir01iYoy7duxqn9459elAyPb0ppBNOZjzmkTvS0L6Btpw6cc03nccDrV2G186PI6gUC9SvbttmWpOJFMZ4dTkGq6qVkUH1qaZvLugw6f0oKK1FWtQtxDcHZyjciqtSA7du4peTyKZil3Gn6isSq/PTk1L/cNQL83FSopXNWKzJlVl6UUsTHb6UUrC5T9VPgTg/CrSMuH3bz79c8+9drITJwK4j4Hp5Pwu0QGMpuDn6ZNdJfatJDO0KW4KKMls8/lXjvVs9GTYx4xHfXE5GI4IXkLn/ZUnNfl54guX1LXtUvZNp8+4klB9VZyRX358WvH/wDYHgfxxLCzPOmnGOEjgIz8EZPfmvzzVBDaoWzkKBzXZQi4q7Masr2RQkb94QepqsrFbpB23fnViRdwcnqf5VUjYG6T075FdVjnLsnzbmx/9eoN3vtwOlSPlvu8VE2AcnnPagCKRSDkjPFRSdWxUxbkD1qOZvmG3oKAG7RyTwe1e9/sU/AM/HT4x2n9oxN/wjGibb/VZCPlKqcpF9WIx9M14N5Mt1cRWtuhlnlYKqqMl2Y4AH1r9gf2dfg7b/s7/BHS/DpRP+Ek1hVvtYlUfNvYZWMn0UcVnUdkVH3j1XafEmtbI4o4LNMRxoOAkS8AAV5V+1z8brX4X+Ab+6jCy/ZVEFrDvGJbhuAvHYfeP0r0+51CPwr4f853H2+cHgnn2Ar8of2vvjAfiX8RptLs7pp9E0YtEjA5WWf/AJaSfn8v0FZ4eOrqS+RpOWiij6N/4I76Vc+Jv2jPFXiS7Jnlt9MdpZW5Jklfk1+yrc4r8tv+CJvhtl074i660ZCPLBZq3bgFiM1+pS9K0k3LVmTVj8of+C0PiJpvEXgHQQeB5l0fwGB/OvzB1Bt02c8nk195f8FcvEJ1j9pbTtO3lo9O00Hb2BY/1xXwbqQxcPjGM9u1UtEhEMbfLivdv2T/AI6y/Bvx9FHeTsnhvVGSC+GeIm6JMB6qeD7V4NH96rUeGXJx9KoD98fBfiQahZ211E4FxCVKsr9QRkOp7givbbjT9D+NXw91HRNato7yxvoWtby3lAOCRjOPXuDX5PfsE/tHTX1qngTWLkvqlhGW01pTk3duOTDk/wAadR6jjtX6PeB/FY0e6S/tX32s20Sxeqnvj1FDXNoX8Sufj18Y/wBm/V/2bf2pNJ8MXUTNpbaxbz6bdfwXEBkBBz6jofQ1+o/7L2T8RPEbdvIlOf8AgYFehftT/s96X+0J4IsLy3iSTXtGmS/0y5GMvghmjz6MB+ded/sryPN468QCePyp/s8m4Yxsw4yD75rMXRnu3jgD/hF526nzUGD9azfhexWz1PnA+1AnH+70rT8csP8AhF5Rn/lsh/I1mfCxd9lq7/Ln7UO3+zWi2IPQc54xXGfEYgafagHjzxxXYZIHNcp46tnurK2AGQJsn346UdSSr8O1VfC5Gel7IP161+b3/BaVwPGPw4UgkCymJ/FhX6R+A4WXw6UAJxdP27nFfmz/AMFpI3Xxv8OWYEf6DN19mFLqHWx+bTP8o4WlX73NI37xs7etLGpbORWhVyzFls9/XNTrnBAXAx2qvbgjJ+7VkDEf94CgliRtkYJ5p8aFeSfpSxsGYY9aVgFwM5NBI3nucn1pcd+aXhgM8/7NIfmLAAgUAT2LMtzEwJAEi/TrWzr0e2EMHxiTofesWNt1xDs65GBWv4g/eW77T/EvXr70E3Mobf7y5NNMgXIqAfKOvHvRnaxByQMU7lEzSLzjrQkiKSC26ouppUVec8UgJtwbn71IzHPGOTQF2544x27UuBnNWAGQcsoxnik+0HsOnemsu75lp53bVA60AAlLMRjB/wBqnqeM596Z255pHYg4HWoJsP3BmyOaTkc0wNhsn/gNHzbj8/NWUT7j1I9s+lNZ/mwRj0pQ3y4PFKy9y30qbE2Ekk2jOPbFLuV14Hfim4B6jikXJJGMYqbiFb5TndTDF6Uqt69CeN1Lw3XOM1Vh2Gxr90HrUrEquD1qDcqt6Zpd23aOpPFIok5Y/pmj7q5NQ7X3AE8CpOo25/CnYmw773Wk4VcdqaW2rmkZjnA5JosFh+0svPY02TIbA+8tI2c/Kv40eUW5Y5NILDfMDdBn0pwjyDn1oI+bn/vmgE7jkcU7lB5Y6Afdp21dp4pPlADHk/zNHmHaAe5osAvt+NN27cc8jpmkXHfnbTty7DkZHai4CkHJy1N8wbsZpWYbeGpm1VYHdVAOklG7jkULOGbaOoqJnLdaXB4OcA96gCfeWUUcMqkj/wDXUceS3DdePmp23GPUUE2Hsx6dKYy7sZ+tIoLM5Hyjr81KrfwladyhONuOmeKbL2pzEEoSOAfxpski7WBOPeiwFWY5OO9NaPaB3PpUgx8x2/SoFkMjN60gFX5pAasoxXp0qCHO4nHU4qwfl68U7ADnPRcc81C/QBfXk1MxDDA5Wk244xSAh2OUAPJHWmPu2/K2alZ/mbHQ0w+hFOwESYZjlvpV1FX5iD+FUXUFvT0qzbyMuCe1FwLG3dxspVUbcHvT4yxXPbpUflsW5/OkAx2+f5QeP71SLu7/AC8dKcqZDFupp2BuRc0AKsZ24anIuGGOgqQY24IyO1ISi/xY9qdwsKsZ5I/CmsOxAY9c0xriJFbL1Uk1SNW2jG6kBcEeeW6Gh41U5Lc9qyZtWeYfLk+gxUZmu7ggbJXP+yhpXHysvzXEW05PK9xVdbxVPPNVvsN23P2Wc/8AbM1J/ZN+3Asbg9/9WaVyrDzdQswAQ/hTftCjAUbRUyeG9XbBTTrg5HpVu38F61dMEWxwR/ecClzC5SpHfwqQCGAHTNdV4Z8D69400nVtU0fT/tFhpcfmXVw0oQJxnHPU49KwbzwXq9q1sktuqG4O2P8AedTX0S3h+8+H/wCy3B4fh8qLW/FV21xOUb/livQE9uBiocmh8p8yf2qzKTt5681CNVnX7pAre1vwLd+HdLa6up4nDcBbc7x+Jrk6fMOyLE19PM2WkP4cVCWbqSc02ilcY5slvX60LlTTaXo2DVXAVXPQ/NUituH9ai5zjvUqqVXFSwJIyFYcVYiUK2Kqjr6CrHeNvvjoakDThbdgY+tMtVPmYCcbqsWdv8uW6U+3tGyQBks3GKVwJVUrjHrU+mxtJfFG55FPW3KqpY4PcdKXT9326Qn5wvdQaVgPQdLt1k0eeHaESQE59DjGawtQZxeS2c/MscasCeN644Na2g6brOrafd3FtdxafAsXCvEJHcf0zXM3epXlxqAlu5Elnhj8rfjBx2rSzJOOuoVj8QSKh53cg+9d1axE2qEAA4+uKxl0GO81L7QTvlfnlq7HTtJa3s5ALcvOhHU8ECnyg5WOZ1DYFILqM+tcdqYH2rH6+te36TJLaTRrcadpd7ZsQZ7e4iJLqf4Qeorl/FXgbR9W1i6urZjosbtmOytxvjjHYDJzR7Md0eWbG3ey0+u0k+GO7m21iGR+4lQioJfhrdxDIv7Zxgk9c/lV2FzI5P5e+acq7WzuFdFJ4Nkhk2fbFkHtGaE8KsqqXlwKLBzLuYKgsOBinNDuXIOH7V0h8Lxrkfajz/Dgfzp3/COw7TuZ9/aiw7o5+JTcR7lGCv3l7fWjyjtyeh5rprfQ4LaZHSQg4IKk5zQ2iw7sybx6BO1IjnOXusLE/b/69ZdxGfO5GOK7N9Dt5AY5EcjvjjkVXk8L28zc7g/1/pV2Q+Y5SRituCp/i5plrMY7hGyetdNJ4Xt4/vO+M5xntVaTRLKBv3kxX2Y1nYfMiXZ6mmOhClgvNNkvLZYwi3AB6ZrKuJpFztufNRjyBmpsBoQSMIZMBi7enNWdD0C5GoW9xNbPFbRtuZn4yB7U3wtqgs7hsAOTjKt7eld02iLrFr52o3ssVvnIishyc9iTWlkO9h+l/FoeD9Lk0u1t4JP3zyl254bggY71zsui3fiiaO7Wx2xSHP2hx5Yx9etd1pnh/wAPaHHFPb2Stnn7RcsHcn6Hiue8XeNlhxbWxXHdu30AqjO7uVLiw03S1/eyNIc4ByfvDuO9dEZr3UtP+0X1xLcRopKi4lLjj2J4OK4vSdOl1CaCebJgWTefmx+VdHr2sta+H9Qn+bMpEEI+o/pSaHdnB3Mlxr106RDECZHHQ49avWOg98ZP1rc8P2McOlxCNVDkZce5qTUZEsFVCeX6LjmmRcow6LFGqs2Ac9hTpLGFAQ/3/wAqs2k4kjMsnSPqtY6SS6jqaMcAA8D2pFGlDYm3UyEh0AySf5URukn7yNFGewFTa7dFbeOCEY3/AHl/xqO2gVVjx2FMm5OJMModMoecVauLdfsoSPILEEsveqrgvIpAwK0dPbdJtJGfT1poodGkltpckBJO8Ht61Q8I3DR+bah2RA+4cY571sXShB83y8cc96o6TbLarI75L9eT61LRBpzRxSttf52PbpT9kUg3kLVD7R7fQ1SuNTeESNH8mfx/GmgJtQ1QWshjEnLDNcxqF2LggbeAc806YmSTc5Yn171lzOFckcf40MolutQCxxx4xtrNu9Wk5RP3e2qtxeGY89c1qeHfD/8AakjzS5ESHpj7/rSuMTSPDMuo28l3M/lxgEjd3NWLdobeEgDJA6LXT3Lpb2/kxfJEowPbFcXfHZkh/kPI20wKF1K9zIHxj0X0qzZjbjPHOAveqaY4Y9P6Vr6TavcSoERjuOM+lK4F/T7JtxYjgetW/soZvm4QVrx2It4/LPTPzVna5efY7WVY2AkI+Xjr7UwMHUmN/KILdd+MEkfyqjfafLbsOOO+2uv0jS5NOsDNIMSzAMwbnGawNeuo5JisK4Shgc9Iu3g0sablOOtK2WbHXtWzpNkskPmMmcdPSpKvoY20rnI5HUVraZjy3X8j7VSvF3SMxGBnj6VNpsh3Ht/s0iSrqFuIZuOlNlXzI0PcDmr2rW4aJJF61Rt2/dn/AGT+FBXNpcesizWZic/vFPFU2z3qycKyODz3FRXEJjcejcimVcYue/Q0feJx3pv8qevbPSjfcY4KeoHNSYCcgULgcnv2pNoz/ep3FclWYqozt/4F1ophUemfrRTGfqt8G5BF8NdGQdDGSv0J6VtapHLLeOyDA2447mvKvh/8afBvh3wbp1nqGtw2ksUOJIX6o30pmsftXfD7S1dUvLm7lx8oSE4zmvJ5WpXOy6ZyX7WSyaP4auIJbjYmqGL9zF987BnB7Yr41u5GZUAGD0r3j9pD4yWXxVm0Y6VFLFZ2ofc00ZTzGYDkZ7DFeCXUjeaOc7a76fwnPUldlWTcwy2M/wA6gjAe4AbAxn7vWpXztJIwKZaxiS6AB6g5FamZNJlmAHOOtRMuGxu5qeTEeDnIPFRswjjJzn0pAVpDiTgcelCkLvJH3ugoOWK/LxWl4c8Pah4w8R6XoGkwNcajqE62sEYGcsxx+nU0rgfUH/BO34E2/wAQPiLP461628zw54X/AHiCUZS4vDzGvvj7x/Cv0T+3jUtWlvJyNhJbnoK5XwL8PbH4L/DPQfAOlEObGEPezRjaZblhl2PrzxVrxJrUWiaXJEJVg/dmSaY/wKoySfwzWag6kkkO/Krnhv7ZfxwXwP4Lu2tp9ms6hutNOVeqZGHk/AcD3NfmPCreU5ByW6nv716N+0J8UpPi58Sb7UoXzpdqfstgvbylP3vqx+avOnbbbv8A3zXRO2kY7Iha6n7Q/wDBHHw8dP8A2adS1Nuuo6xKw+iALX3ov3jXyv8A8EzPDP8Awjf7HngrMflyXolvG997nB/KvqWaQQwvIeigmucs/A//AIKMeKP7e/a48XkSEizEduuOnHJ/nXyvfOGmP16V6t+0nr3/AAlH7RXxD1Ines2sTAE9flfbj9K8mvc/aXz61oIjjB54qzHioYVLc5qyse35aYGnomrX/hrVrLVtMna11CylWeGdTgoynI/D1Ffrp+yj8fLH4ueB7PUl2QXZbydQtVOfs9x/EMddr/eB/CvyBjyDIDuIxXqP7Pfxkv8A4F+OrfV0d5dFuiINStB/y0iz98f7S9R+Vax3sEZWd0fvd8OPFQtrr+y55c28nMBb+Bv7v0PamP4CtfCfxMuvElnGIINVtzDNEq4QS5B3cdM/zryP4a+MrPxho9pfWVzFcwTKs8VxGeJImGVcf54Ne66PrQ8UabJpl1/x+om5X7SAdx7ionBp3RrL+YzfHTf8UxK3/TVc/nWf8LGxpuqH1uR+e0VL4quW/wCEZuba4/4+IZYx6bxng/41U+F7D+zdWPOTeD8flpXsjM9DI+X2rNvgs81vbmRUklYiMSd2Azge9aAYKo+avN/jLPNa+H7O5tnMdxFdh42B6MoyKi/Yj1PTPDLMuniJ0CFHOeMc1+W//BbL/kZ/hxzt/wBFnGfq1fpZ8O/GVp4i8I2WpO/lTTEiWJhyHU4YfnzX5hf8FqdUW68dfDqKPOEsZzyODlxS6g9D822G1VpOVwQaRnyg/hNSFh/D+lbCHwyfMAepq2snp8o71QXO9R1NWl+8AwpCZMMqFGM+tIW2Y7E9aRW3NkdcUv3STu+YCmIcpO0E0qjb04pvBwQM0LnH3cCgCa0AF5Fn5iZBj862fEDHyZsjjzB+FY9n/wAf9t85A3g1qa237mTk5aSgSVzF64NKFO0E80Z5PFPQFXwRQMYrdeOc8UrZ2nsGp29hyRxS/fk/WgBu793t/WhQ3RtxFKoDMx/Cpd3SncBqscfcytPXaVXnimsNrY/HOaj2lgoLZqgJZFO07eQvc0xsKuPmXFNlzxjp0pVPzbW5qAFbBXI45p24ce9N3Bg3alY7eT0FWAq5x1zSqfMU9jml6qQelMbk427jQBKvAXcRShgcmodw5GOlMb1G4elZ2JsStJ8uMZJqvk9M8U5m+bI/ChVLthutaFB5hAHoKerRsR6H2pY4g3J6470BQvIqbATMDt+X9aYsZ3ZDZpjSeh3Zo3ndggf8BqgHFCOT344o4X+ZpBlmximM2/vgCpuA7ccEjkdqY2fl5z/u00L3I4p6xjqG/KkAquQP+A5pWcLx6jvTGPYr/wDqpOAG4/xoAXhGBHIpWxuznaaNyrgHp1FJ+q7qdwFXLbivrRyF29Mc0hba/wCg+lDNlfvce9IBzyDoBzSBVOMfKx603y0U7vWnbnDY71YCjluUp3ynbzz6Co+V3EcdhUZJHTrUASt8jZxnHFIJmZsEVF5h3Ywcd6du38LxQBK2HjPpTsbvlqOPcq84WpR0Gf0p2AYSvVwD6VEf3q/wjnHy1Y27mcMPpjtTgozwFFFwKtxGI48g/P8Almqqn86nmVpMKenWom+XAPHpRYAt88DOKtbTtBBzuqKLav07mmTXsSyYL/8AfNLmAsbfk+7zUbQq2CHx61D/AGtCn3Uaom1ltrBYlG7ueaB2ZOYzjIOaaVKk5qi2oS9AQO3SoftEnPznmlzD5WX2UqQwWpo5hxmsjzG9ad58n941PMHKb9uQGAJ4Hv3oMiZI8wD1qpoKrcSSrJzxxWsmj26ghjIfVc1VxWK6qkjAYJzU6wv/AAIo+tWIbeK3jCIDj1zQ0aICR3ouMjW3BPJJP+zU8dvArfvLdpO3zn9aZHcgKQB9MUouCOg56FaLlXL6x2a48u1iUDnHWpR5KsWW3hDnv5YzWWLg9hiqmoancWbIyxo46Fie5qLc2wjpI5Bt80BE2/3QBUy3p3D95z+FchZ61cXFxtEaeX3GcGtKGbc+Dx3FTYZ0S3jD/loT6VMLx2XHmN69etZNvlWBPQirStkf3aVmBqRTSMP9Zz3OavwrIyglwR3zWTbyIu33rWtbzd+7IB4qdRlTVNLm1PxB4XsbYHzLq8WFfXJPNez/AB5uov8AhMLPRIgfs+k2Uduu71I54rgPBECah8WPAMEoUxf2h5hX/dBP9K6b4rzSat8TtduAN7iYxqQeOKroB5l8Qrcf8IrPxvJPAHGMV4lXv3jXSbseGL1sEJtyABz7814XHbOwx5Ts3ToaEBVorSTS7raM2bgMMjIx+WetXLPwpdXmcutvj/nrnB/ECrsBgjPanLGzdBXf2XwtNy2TqBlGfmWC3YnHtnArd034UWiSSiezvp/3eY/NmSMbvfHajlZPMu55OFEecmpo4vPYKmZZOuFBNe66D4SstHEjXHh7THKR4jly0xD+pzxx7Vr2Ml3DGAbiEDoRa26RjH1Az+tPlFzHiui/D/xFr4zp+hX90G4BW2OM/U13+l/sn/ErVbfzB4e/syJU857i+mEaBfrXoa+JbyHRW0g6jcDTDL5rQxOEJYepHPH1q9Nq9xq9vHHe6hfX8Qj8sLdXTuAv93GcYqeUOdnKXX7OsfhfS9KuvEfjjR9P+28RQ6eRcOR3OQeAPcVsaD8MfhPYXcceo+LfEGsW2CZDp9iQm70GQM/nirdra2dqmYbK3jDDqEBNWmvogmA2O2FFXyozcmy3caV8KtLIbRPA2va5JnHna7epAhXvlEya8y8YXX9q+In+waJa6BZMAq2djIzxoBxli3JJruLjUA0ZQHCYw2O9YdwtuZXfy8DHJJ4+tOyDmZV0iFbTT3RXJ3HLH1Irm9R8OyteSS712Nzz6dq6CbxBDHDtCICMjjnPpwKyrjxK7qQkAQYwCTn8xTKGafDHp+SyopPU9atyahGq7mfIya5qRpZpXZn5Y59vyqysh24JBOe1SGncv3GqOy4iXA4xVN7hpJQSvX+8f51Ezbo8Ac/3aRcNJuBwTwe4qxWJprhguVYp6haiV2nbLcCmttfk5YE8e9Meby/lByOfrQFkTSJub5eoHFV5gqHmT/vqk+1s2f09aqvICw+vJqUToW/OWRcDmoFb58dfeoDMFb5Cc/SobrU/L+U8nsKoqxqxxxxtuOCfb1pGvI0DH5uODxXLTa20TAo6+pNY91rd5I2FfCD/ADmpsHLfY7HUNehtYS7FSf8AZ61z194puJmP2eNY0Htz+dUdJ0G81q4CxRs+7+IDNemaF8PYLWENeN504HEK9Poc0AebW9nq+vOPs8E0nbK5xzWrb/D26aRPt90kBb+AHe9en3t1FpsKIgwiDAC44/Kuda78ybz25wf4qB3ZXsfC2j+HrWSaa3/tG4CnDSHge+31rX0m8iOnSyyWkL24O0osSj5T3rMKy61chYvkjbgseRitDXPJ0PwzKI2xIo6Hp6GhoWp5bfzQWviaeSBRHbrNlVHQCvRpr57vwTJeWqBIraZfNwOit3+leQ7i0mffNe5fAvxi+i2dzFdW8V5ZzBoZYZUBDq3rSiVLRXOA1TxVN5IgglbyzkAjp+FL4a0KXV5vMkRvLUk7pBxkVueJvAMeneLB5EEsenXBEsOSHB7kA/WukjC2NqIIxsI5wPeqFutCksaRxpaxjPqSOprk/G11uvoNOikMkUPLbf75/wAK6u+vI7G3kuXz0OAPWuEt/nneZ/mLncWPWhgdPpj/AGPTYmk/gHzZ4OP8ax7q8bUtSLyE+VnCr6VDd6g7xkZyDUelxsWcsvA70rkEusXP2WBYk487jbU9jGttDv5zjpWXeOb64yeQnArWt1aSHaO3A/xplhOWvLkELs4x7VrWcO2PbjBA+8etRWUIj5I6GrkjYff60EEO0mQKx+Q/zq5AVHKkZHeqrBiq5+TPVqetwtuyqO/tUjuXLhjOVyw2CqrTIrOo6rVdrht2QeKiuJtqnJGfrVMQ+6vTGCpPFZE10VLHqT1pt7KoUM2fase6uwjEh1oQ7E17qyiM7QePWse4vJJGHbPYevtUM0zXD8d+1beg6E91cRs3rkE9KGUN0Pw7LfTJLKuyLqPU/hXcnZawqrAb1GBgdRTbWJYE2rgADBx/OqGoagNpCHqOM9frSsBmateB2eJTgg9K568f5eBx3NXriUNcYHzn1qG8tmjt2ZlBJGaYGdGA0gRBkn+GvRdB0RbK1R8FHkGTk1geC9IW6le5kQEQ4IDdK7SR/wDRyQOFGAKgm5napcCGPcTgqMiuW0sHVtYeWf8AeWkZ/DNP8QX0l1eJaQH52GzrWxpVuun2kduu07erY6k9aq47l3UJhDauR98jgH0rgNWkLSbhtA6dK7fXB5dikisE6jb9e9cBfSGRuTz60wRUrp9NUiyBznFc3CoaTk4966bTYxHa+Xu4BJ/OpGY+qKWkXFQ2cgjkwe5xVjUlbeSff61VtyI5NzfPSA1riNbi3I/GsT/VtjqDW5b48vp78+9ZF8giuGAXHoaqweQzO5Mlc9qdGhuIWj+86dKjjb5iG4zSwyfZ7gEeuDRYpIr9dopVU4qS6i8uQlRxUcZGCO9Iskz2NPHbHzZpOnIUVMrblDBadiBnT37UU4KWYmii47n6MSfsm+Go76U69vgPljAhP3yfU9a0/C/7OvhmLUUgtI4rnzBtMUyDJ9Bnt9a+qPGH7MJsbqJ01y/uP+ecNxIMuc9/Suhb4E+GfDt1ZSi9vhceWZJl4CBlGSCfSuRtHTtufkV+0zbxaD8UtQ0ezAgtdNxbm3TGEYjP5814zeAbsBf++a9A+M/iBPFXxe8Y6ikhkt5tTlEeepVDgHP4V5/cjdL0xW8TDqU5t232pLePzLoHIGAfrU7KRTLWP98cjAxwVqhD2y3zH6VBJiZsAYFXZF+ZdvTvUTIWPApDKyxqkZc8V9xf8E6fgqtv/aHxc1m2HkW26y0SKUf6ybGHl59OgPrXyX8M/h7qXxc+IWh+ENKj33GoTrG8gGfLjB+dz6ACv13j0PSvCfh/SPCmiRCDSNEhW1hVeA7KOXPuTzWii3oieZIc94sUkt9dv84zITnqT2r5K/bY+Lj+E/Aw0S1naPWfERIISTDwWoPJ45+Y/L9M19EeKfEdjZWV5eX9yttpFjC011cHoFXk/j2Fflr8XviBP8XPiNrHiSYtHbTSeXZwt/yzgXhB7cc/U112VGPmzJNzd+hwcMRVMmnSq/QL97j8+BVsW/zKT84rT8P6Z/a3ibRdNjXc91eQQ7e53SAHiuPlZtdXP6Kf2YvDq+Ff2fvAGlgf8e+j2+fqUBP867XxlqH9k+EtYvC2PJtZJM9OimpfCunjS/DOkWajAt7SGID/AHUArhf2lNTm0b4FeMpbdWkun0+SGGOIZd3cbQAO5JNYxTk7IbdtT+c7xZqz6x4812/dQ5ub6eU/i7GsW8jJlLEHmvV/DP7LfxP8TTOtt4Q1GKbcQZLxRAg+pYiusj/YV+Ks8oN5Z6bYRd5Li+TaPyzXoQwlaptBnO8RSjvJHz5CnzYPTqa0IYk4KnnvX1dof7Aax2cM+v8AxAs7a4PW2sLRp8H0DEgH64rsNB/Yn+HFo3m6nrWvavtAyq7LdCfYgEj6V6FPKcVU6WOWWPw8d5XPivy02BicY9TjNNSM6g3kWyNPJ2WKMu5+gANfoxo/wZ+E3hnY9r4Etr2dQF+0arK05yOhIY4yfpXdaFqEHhkxjQtD0bSNn3WgsIw4z6HFelTyOf25JHHLM6a+FHiv7AfjTxvoMc3hzVNC1aTw/Dmawv5rVxHAerxEkfcPUehr9JPAPiUalHaahbndJH2PB91NfLsPjDWrpZI5NQlEeOYhwh59BXb/AA/8YTaHfRSS/JaSH5ueAfX8anFZY6UG46m+FzD2kuSeiPrTxB4bsvEtj9rELXDL+88mN9pc45XPYmvm7wx8bPE3h3x9Lpt7aGPwe0/lrZ38QNxac4OJAPmweec8V9FeEvE1tcW8ZVv3cgBYjoCe9eX/ALTfgHVru1i8T6Jm4js4z9ts1A/1fUyp6kdx6c14mFVONT2dZaM7sTzqPNDoevxyRXFuk1vIJbeQbo2HQj1rz/4tKJtDskx/y9bip/3a88+Dv7RXh/S9Dj0fXxPbzI2VvxmRHz3OOVx0+lehfEC8g1Tw7p1zayxXlvLNuilhk3I4x1BFZV8PPDzaa0/MKNeNVeYfCyPy/A9uoH/L3L8vfGa/N/8A4LNfN8SPACL1/syb/wBCFfpF8OJAnhGFlOf9Ik/Q1+av/BZLMPxO8Bluc6bK35uK45b6G8t0fnrIoAFCqcgbaCpCAnn1pVI3cdBVXEHfmrSH5QP1Wq23cPvU9CVfhvSkIsxruz69qcc7sH5t1IMhfl596VpPlCg8k9aoQqx7cE9afsKrz0FM64J6+lG5uADn1oAtafGJNStiOcNnbV/XHABXdz5mfbFU9FHnapAvUKxyBx2/lVrVwdwOMbjj8RQC0MvOVpQ/zZIprZHGORTG5YE/KPT3oAsAllyq80Lg9tveod+7AB4p+89QBxQAq4VSD8rUNuVRwpFM479Papo/uigBFDFsntTlx1FL90cmmhnU/wB6rAXaWbKmlMbqvLc/0qP95lc5HpT9zYx6mpsAcA5NOz6CgYfOOaUgAjPy1QAy7eh4NNkZo1HGKGb0+Wms3y/Md1AC855x9F96Nq8k0qqFxu6e9MaQdP5VNgHL83K9O9KGVeMYNNX92Cc8UK+5sCi4CMxU+oPSm7h36AU8Kd5PambNqk96LgJuXdjqFpyjzGJ+6RSqoVvufrTuFbJ/Wi4DmcbQBnJqNot2SOtO3hsAru9WpWYLgAkE0gIgDuKgN9KUo3zZHNTbu/ekKo3AfNAEOwsxyelI25QATxUu5SOucGo2y3dadgDymXByBRgbtvzUrADAHVaTBPzH5qQC+UHYZ7DFOWLbySCKFwu35uvSnMwUZOAKdgE3KOn0qJmZkx+tM+0BlwBxUir5mCRj1ouAxmCgls5pqszMBtqwsat6nNIqsPlGQAenqKLAM8oIOTjNNRdshOPwrQtrEzHjn2qf7Ap+UnA4/GgRQXDLkA+9NZg2Qp5rp18G6ydLk1GPRdQnsU+9cRWj+Wn1OMVhLbtMpkQbw3fH9KLgRxglQO/Q+9JNIIhju3SpYYfm+bc1M1JWWNQTwe1IZmtJ5inPXNRzSKOG6qMgdzTZLiOPIU5Y5zntUdrYXV822C2e4fsIoyc/pRzDsQTXD3HXj2FRshHUV3/h/wCDPjjxRgWHhbULncBt8q3bn07VL46+BHj34a2FtfeJPC99pVnOdsc1xHgE+hHWpBannDKRxTd1WLhfLldDw44P1qNSd3tSLI+aTJqRlz3pjDbxnPrUIYlFSLbyN0jYk9OKeLGdukTUwL3h1v8AT9m3O4flXRtk53Vh6Npc8Nykz4jj7tuGRWytrEzEBmJPbk0aiugdmbo309KazDawY4qRbcBwFs5MjoPLPOatR6He3PMOl3D556YquUky2KICFK7xR50Sg5cc1sp4J1a4UP8AZoYlJ582QcD8OatQ+Bb4Eq8lsg7OPn/SlZgc2l1CWOX6VBqFmL4o6OUOO44r0CHwKq7PN1NT0GVhxj86mh8C2Mikve3I/wB3H5+1Uo2A8xj0tluUk3qdvUYPNalrHN5gIjfA54Fd5H4B0ssFknvXA/h8wDOPercfgvREyFtpSCeN0znFOxNziYbzacFWBP8AewP0pE1SJZTncTjkAZ4/CvQ4fD+naa3mW9pEJD3l+c49BmrVveCBdpjUD/pmgz+eM0g5jhLe+Myr5OnX1wD02wmtaGbUnZY7bQpyT/y0m+QDHrmunmvJAoRGIA560n9rTRkLITjvjvSKujLt4/FNvqmnajbR2WmXdjMJYGz5nOMZP4VpTyeKtWvJZ7vXrKOdyWllitBvf/69Nt9Q+1K46HrgnmhmnjcspbZjn8apJInUr3nheDUmk+361qVw/TAkCJjuMU/T/COgWKlYrJiT/FNMzmn7juBb64pyyNzyxOc9KLC1LS21nZoqLZxOE+75o3lO/ep2vgqtsRUQ54EYAJPtVBXKjGT6805GWT5S/wCI70yeZmh/aWRhgJPYdR2p7TGQ5VcH0FY8i5YAAjPUg809pzGQq5GB2p3DQ2GhZRhpMbv7vrVSaJ0GSc/SoF1FRgyfcApj6knX7np70gsOa1R+Wxkn05p6ExsCHPsnqagN0zLlhx9etQSapFDj5ST29j70BqbJvJtoBdkHpVSe8ji+diTtyfpWRJrkrLtL7U9T6VzuqeI9wEUDr8yneR3/APrUFWOgvvFkIR/J++DjnlK56TVLvVl3Syu0WSVGMACqFnby3jl5BiNcYxxmtFV8sFQePelcE7EqgdRyfWnM3AXAJ9f602e6EKgYySOB3qDzGk+5wKkLkm0vJndT/L754qrEw87JPIq7Hho+V/DtQSRMuVORx60+P5eDwOwxUu0KvPz+1Pi5IQcYFWWVpM/gapzsrRyA58xSNuP1zVrULz7KuQm/1auUvtaEmUHr27UE3L95eBU2o2XqgdQMcZyefSsdtQeOTCnfVWSaa4bCjkihFGhda0kaggt5g7Vmz6hNM2XOc81Nb6LNIqmQFB/tVrWPhtfNR5m3of4FqR3MK3sp9Qc+TGZO59BXZeHfAPmN516WKLjCAce+a3NN0+3hhxHGB6+/vW7Z52jk/wCNUTd9C1a2sWmwiO2QRRjn5RinyXf2dSxf5z+JxVG81CKFSXbkdvXFZHnfapC+eRSET6m3mzlwMhvTvVAW5kkOF4Hatq6lWCwjIT94oHJHOSOar28ItYRIx398Z5FUMtaLZi1t+QA5y2R6VxfxG8SLPDFZ2sm9Gz5revNaPiLxhBBbPbwsY3dTll6/T8a8zu7yS6kyx47UmWtSKEZkFdh4bvGuIbfT7UiM4JkZuOp5/SsHR9Je+kI29uPeo76zuNG1BoJhiReRg9QelStCtz3Btcl1ySz02OISPCoihht+S59fxqnqVjqWg3KLq+nzWSSH5GlGMnHT3qL9n+3j1zxJdRSv/pVna+fbheu7OD+ABzXZeJPhb4h8TSLPLrS3siMdsNxKUx6cY64qjNXvoeU+Kb/dGIlfhcH25rm1YmPHeuh8Z+Eda8L3EUOrWjWwkJEc4O9H/Gshl8tFBUeYP7tBZCF5yf1qSSQbMLkY4qHdn8as2lr5jAn1/ipWMSWytWzgKPm6mte1hCx4Jz7mkhj2ocYxVhWGASOaZQv3RgP1P8VJIw3AsOhH3TTJG+Y56E1GxCr978KRJNJdFuF+U1F5mWJJye9UPOEjZz+vapWkEa7j0H50uUB7SiHJ+/kdKzLq6LEZIJpLrUGbJCcdPesi+uFZtyn0HvVDsPvNRLZz0rKkZpX6cH+73p6RvO20d/51vaLpflyBWQb3645x9KCiPR/DpuGQt36n0rrrW1jtIwqfJJjGabCv2OPYB3+9UF3cbQCxwO31oAZfXjrIVUkxnv0wP61zd7cDb+7Oc8fN1qfVL+STEQPB6+/+FUoozcMUA/4FQBLpUJmui7pkL+pqxqlu03QEAkfNWnp9i5KBRs5/OtdrOO3UDZvkBGPY0rk3G6XZiztY4QojVep9T1qnr2qG1yFdSCDhc8cVsMqqoUkIR61wviSeS6v0tlwDkpkfXFFhE3hu3aSaS/nGT91efXqa6G0QNcJzkA5x60Jbizs4bbAGwAHb61Jp8bpcDoR/KiwGf4quN2AOO9cNLId3PPr9K6zxhMHk3fMDnGPcVyDsWbpQWPt18yTaRkmupslP2dCVwSP4fWudsVDSplsAc10tsG/hK4osBj6wuOcnAPH/ANesleu3tmtrW2+bb8vXn/CsXB38fNUgbmnyo0aKeeKq6tGWZ2HXgfgKhsWMLggZ55rWu40mhJAycZ4qwOZ3bW/GpJvmw2PrUdwmyQ46VJD88ZXoaVzVD/8Aj4tQSfmj/WqnQ1Ys5BHNtbo3BqOeMwysh5wakAVitWI5BjBqtzxUi/KuT1PWrFYn3fKB6UUijcvFFQRZn9IV98afhxodsya74y0KSQZBzdI/H4Zr57+On7Z3ww8N/D/xbbaDHDe362ckNlLGzFZnxgAHHHXg5rxv4w+LrD4cLc2+jeDfDCeWhZZJ7BpGB/F8fpXx/wCPv2ivFPxH02/0DULbR7PTXxlNP05IW4PHzcmlGmr2Npy6nhywyOxmmIMkzGRl9CxzVe4SN+hXrg/WvTvBvgax8TO32qe5XaVx5TKP5qa+nvhz+xX8PvFunw3mpTa1LNIBu23aKD+AStoU7uxi5WPg6a3KqD+FJZMnmSKzxAqOjSD8K/VK1/YQ+D1i0UUmg3N8wb/W3d7I7H68gfpXSaf8Dvh14XtVTTfA+hQnH+sazWRvzbNd9LC8+7MKlfk6H5LJatM6RRxvK57Qgv8AyFbWk/Cvxp4mbZofhLWb5/8AZsnA56ckCv1QbRNO065ijsrC1sk/u28CIP0FdR8P/M1rxtoOmXFxN9iuJcyxxvt37V4Bx2r0JZbGEXK+xwxxrlKyR4t+yn+y+37Ofw9TxX4mi2fEDxFH5cdtKPn0+3P8PsT1P5V6TqF4YF8tDl+59/Su9+IWqT6h4muvPKv5ErxR8dFGMCvNLJjcaqqyHcGkOa4sPTV7s66jbPO/jZ8Pb74leCZfC0Gtp4eivJhLdSmEyGWMchMAjgnnrXi+mfsK+D4Ix9t8Y6xdleCltapGDx2zk9a+ofEFw9x4il06TDwK4UMQN+PrVrXPCdpoultJFJPIxufK/euDhdvQYAr6GGFoySclc8mderFuMXax8+aX+xZ8LLW286Zda1dwOk935fP0QV6F8Pfgj8N9L8XaONK8DWcVwt3F5d6xeR42DA7gSeor6/8AhV8APB+veHLXVdTtLi/ubpASJbhgicfwhcfrmu0t/COhfDdrSfw/pFtYy38iwTN8znbntuY4NcFbEUablShT1N6XtJWbkerxrsgRevygV4x+1deeT8NYoTn99eJkA4yBk17W3yqcV8+/taTvFY+GEU4VrqTI/wCAivn8GlLEQv3PWru1Nnyk2r3DttkmeRM4PJPI9aq3Ek1xHLDv37uBjqKsXiiPVpEX5Vb5iB61DLEojkccN8vIr9SjFWR8PLVu5BHobxjbM4ww42nnJ7e1d3Z/s5+ObnT1lXRLpEwJc+dGS4PTC5yeO1cgs73NmFkO4beff6177+zPdX3jbTNf0rVtU1Cez08eVaLHdPGYVweAVIz+Oa83MK9TD0+anY6cNThVlyyRzGm/s6eKLrI1KwtdNslZTLNfXCgImM5+UnOPrxWzH+zvoMb+Q/jXTxeB90trCPM2xkcGPB3E/hXpGm6Pp+m/DuHUfsUV3c2V3sQ3RaQSAtg7wT83Fcf4s8a/8K9uHk8P6DoumzqglE8VofMyeoyW6e1fNPMsTUlZSt6HrfVqcFexzkXw/wDh/od9PaDxHrGv3MkJ2W1jYEAyL2ztJ69u3c1hWPw58c3lrI6eEL7ygM/vNsZK+wYgk/Sup8P/ABM8TeNPFFhbXOqNZRySFgbGGOJkIHY7See+c171N8NNM1PT7WS7u9UuHjBclr6Qb2I5JwRz9MUPG1oRSk737ijRg5XWljyf4a+INQ8N6lHouvQNZP5SNtlx91unT9a+gdHlTULH7LOVk4O09cqe3+e1eA/Ejwbo+h+CrnXdPszaaja6ibZZFnkYNHzwQzH9MV6X8K9QnvvDYkmfe8coVW7gYrzK0VNc6Pcptygkz5z/AGivhHH4N8Vf2tpULQafckvcQRD5I2PR1HYHuOgNcz8NfH0fhmVNP1GeZ9CaX975Xz/ZyRxIF/mB1r7S+I2n2194Tu7qeFJJbePem4ZHPBUg9QR2r4U8Rabb6L4u1extY9ttG7hEPO0AcAe1fTZXUWOoujVW3U+fxkXhainTe59dfD5YG8JwNY3tvqdl9odo7i2IKkMcjj+E+oNfmn/wWYcD4neAkA4GlyHP/AxX0p8BvEF94a+JmiW1jOUs9Wm+z3dq3MTj+9t7N7183/8ABZTj4weB06r/AGZJ1/66V8zj8KsLW5E9z18JW9vTu1sfnjyVDY7ULlR7NUq/LgDp81N/hauCx22HRr8uT1x92hv3bZA4pVY+TQPmkOeeKkxuWVYMo6g+gpzFyTxkj86gjY8VZVjxWlihHTd7GnAkEc/X3qP+P8KkVirYHTFIC9ocYbUPMUHKqxP496NScsRnnPNSeHxtmlwT80ZzUF+x8yL/AHaAejKrEHoMU3d1HU44FSj/AJaVIsa7elAinHbgqCOued1PaM5wPlPtU6oNq8U1VHP+7TsMijz/ABDNSKpjOSpqSP7o+lPZjtFFgItpdstwKkQhQMDil3HcaQKFzj1qhAX+UdxTBIhUgp+VPx+8z7UiqNzfWpuK4ecdp+QDtTfmdtzNnHAFI3Qf71L90nHtVFAcMpIGaONqjbgUL95qd95ufSlcCPceo6H+9TlXapweaib/AFyr2zUkbH+dMA3beG9KQxr1zxSSMWUZp0f3m+tQgE3bdoP405se2O9M+91/u01mLdTQBPJIFXp9KjaTzMAjvTZPur9KdGvQ5NACdG/2elIyg/MKQ/K3HrTlHz47c0wIzjHPSmtIOgfbnvTm6UA5AoAWNiv3gKUMNxHtRGxZip6UfxBu+KLgHnFgABn1PtSjdxxmpI4lznHOKUMdo+tIm5C3y7cjrTPnbOOB71PIo5Pekj+8R2qyiKOMAgY4/vVKrMe2RUsca88dqcsarnA71IDUwOfv54qXBh3MRwvoKZdTGzZdiq3++M12HhDQ4NW8v7Q8h3OQdpA49OnSi4HuH7Dfwt8HfEjxJOvi3S4tRia48oLNKyiNQuc4GM56HNfYmn/sn/Cnxb4stNd+H3h9v7R8N3AWW1UbLWRgc/OGzn2NeYfsveBbDUbG0SCW40pXA3f2fsjLfVipP619PW/wp0DwLpF5eWUd1cyud0guruQrIf8AaClc0rEHQatcaZ4Dthp+o6jpdub4gtp95sdIgeGACZOPqK+bP2kP2M/hj480LUNX8DXNynjOY+bFDo1pJ9lnfuGBACj3GKTxF8ZNX0XVprbTdO0fTwvSSGyBf82Jr274J+DJvi9pttc+IPE2vMJCd0NrdrDH+iZ/Wl0Fc/P3T/8Agnv4/nt4n1zVdH8NK2N32i4VHTHsCTXZ6L+wf8NNPdD4i+ItxrFwCN1vpMTSZPcAgd6/THUv2f8AwF4Q0OS8Tw/Dq9wo+/q0j3GfqCwFeMa/8ZdV8KXps9C0nQdGiXKg2emorY+pzSg7jtZpHjXgv9jf4aafGToXww8SeKXJBFxfReSgP1I4/GvY9A+AuoeHYo0s/h94L8GRdptVuEmkGO+Oa4/xl8ZPGk2lrLL4hvZN0m0p5hRcfRcV8ifEj9qDx9ZeO49Ph1GFbdo+QYQx79yTTcdiN3Y/QDUNNs/DtrLP4g+MFjpFlbrmWHQrFURB6bsdK47W9Q/Z7vLeC81vUr7xnFjIm1W/VY/wGc/pX5V658WvF3jqW6fWNcurhZJ/KaFX2oVB4GBWHHbrJMVkLSorsoVzkYq3FIpJI7H9qTWPAfjn4z3118M/DkWh+Go1WAx2zs4mkXO+TDdM/wD1681tfCMs0wAs5SB13HANdRZW0Nuv7uJE47D3roWjCpkDB4qTW5wP/CE7XDfKmSG29ce1WY/De5tnnxReuIq3biZvOPT5WOKYzHb+NKyFqRw+B4NoMt47HjhRitO28G6LGoWSNrknjLSY/lV1UCwggc1Jb/6pX/ix1p8oalmPRtMt0TZp1uETB27T/k1YjMUSMscUUZU5GIxn2qr5z7V57U9OC3f5e9BJIt5J0Vth/iFNNw7dZOD6+1NJ2rwBUTKNobHOaBEkkzKcq6/hQrB1wch/51Ayj9aeh/db8Ddu60agLz5hx0X14qVHLYygGfSl8tWWNiOW60h6Y7YoARmMmc5yPTpTt23+PZmq6yN60N+8Vd3PNAEksm5gN59dxojfC7mPHTJpVjUHpnilHcdsGlYdh+POXceg708QCZ+oJ/2u1MZioRBwuC3401mOY17c1IiC608RbiHB+lU1fY4+c5ArQ+7IEH3cdKjmjVlXI9assnjuwYkwFJIoa6OOEAK91qmv8A7bqcGO78CKALcczMMsgB9McU15FxnoAcVWYlenFRux2nmggsLMSw/hFCssbdGNRL94fSiT7pHZTxQMlkfcwGc459Kiab5gTJgDtUU0jcc/d6VlSXDqwwaYF+bUjExUEnPNZt9rSKrM7sSBwq4zWXqEzrGcH73WsdXMlymTnd1oKLsl9cXX94k9QvpVqzsTKgkI4P8Ae602xt1+0MOcfWtlfljTHvSQDWwqoAAP9kUsa9C7fRqFG5jmmTfKigVIkrkc0/2iTKr7VYijCoRx69Kht1HHFWl5A+hpElKSQNMMfwn+Gp0kdck/hWbHI3mLz3q5cfwnvVWAvqcxqxUYJzS+dtV88g/nVS3+eMAkkZqWdQtsxHWmizD8UXDx2sax5G7hueR9K5QRuwyAcZ/Guk1z5lgz6Gs9VCqcUEFNdKBTGTjNadppcSqNifVjU8Lew/KpPMZYTg0IslCgxBv7p2mrscfQev51n2ahncHpxWnD86wE8H2qQeht6bbDaCeOOeKtn92hVW2FecGnxxrHuCjAwKzNSmfcEz8rLyKoDOu7hrqcEk7B0q/axqi+nHX2qhGoXOKseYywHnO4c5pgWtUuF8gAOMjk9q4/WvE3k4VMntgHr9ad4oupIpE2Nt+lcfJI0hLMdx96m5NyK6uHuGLv1qJF3Ng0NVzS1Ek2G5FCNVojs/CtusKABcAgfN1I9zXP+Kru3vvEE8kIzGgEe4dHZepqe/mlsdHeSCRo3aTyiQf4fSucj/qKkjW1zvvgv4rsvBvxBs9R1CVobTa0UkmCRhhzkDnFfRsfxG8J6kztF4js48nkTbkI9OoFfKXgu3jutetDKgdd/wBw/d/KvZNHvvJvllaC3nJPKzRhwfqDXJUxDg7I+jy7LY46PNJ2O1+IVjpnjbwRe2unapY3t6Ck1vi4TO4dhnHWvnCa3mtJpILkeXdR8SDIOD+Fes/HuysV+HPh/UYNOtLO8nuW8yW2i2Ejb047V4xYj5Y+T82M100qntI3ODMMIsJX9kncvwwiSUKfT9a0rcCPqvNUo1CsmK2LOJZWO4ZrU8pqxOuNgPTI4qOWVVwOtWI/9Sn+0DmqR+aTmgkBcBFfPXrWddXXmSJ23H8KmZiQfqaqSfex2plW0F81Y23HpVS61BmY4H61WuLh/N2Z+X0qlIxwfrRYY+e6aRfQnjaKgS1kuJsYztxk0+OMNvyT8vTmtzTI1VgoHGKkB+n6WExuGM/0rdjgEYOfvn0pIEXa3yildj5O7vmn0JuMuLlY22jr1wa53VNQZm8rJDnnK1NcyttZs881iRyNNJ85zQUW7a1kumD+n971ro9H0VpA+8hCvABGDVbRFGVHbNdVb/6w/wCyOKQh8UKQwhRglRyRT41/ecjqKevzA59RTVY7npCasYXiS++x28ka53t0+tclodm13q0RkGDks30rT12Z59WaJzlFzgUvg75tRnz/AAxcfnVCNm+mM0xI/KrumqhUMeMDJJrH8xmkdSeP/r1r2qj+yX/4FQBw+v3BeZ4ycnJrC+82ccmprqRpLiQscnJpv9z6UmWWtNjbztxUDHNdFYsB16GuetfvY9q3rZR+7HamBn6qwVixGQ+aw8t+db+tSN5EYz/Ea56oGWbZinbrW5buphDr16EVz6fe/CtbS2O1h2zVXAqapbqr7h75FZ0LeVKDW1qXzRvn1FYTfeP1qXoVEkmUq24dCeKmul863jmH0amTf8e61Jb/ADWkgPrQUValTHTue1QL1qRf73encCdMY54opKKoWp//2Q==;" parent="1" vertex="1">
          <mxGeometry x="120" y="320" width="838" height="251.74" as="geometry" />
        </mxCell>
        <mxCell id="9JdjApszrQxgqDDCPQc7-2" value="" style="endArrow=classic;html=1;rounded=0;strokeColor=#FF0000;strokeWidth=3;exitX=0.5;exitY=1;exitDx=0;exitDy=0;" parent="1" source="9JdjApszrQxgqDDCPQc7-3" edge="1">
          <mxGeometry width="50" height="50" relative="1" as="geometry">
            <mxPoint x="270" y="300" as="sourcePoint" />
            <mxPoint x="220" y="380" as="targetPoint" />
          </mxGeometry>
        </mxCell>
        <mxCell id="9JdjApszrQxgqDDCPQc7-3" value="&lt;font style=&quot;font-size: 20px;&quot;&gt;校正板&lt;/font&gt;" style="rounded=0;whiteSpace=wrap;html=1;" parent="1" vertex="1">
          <mxGeometry x="360" y="600" width="120" height="30" as="geometry" />
        </mxCell>
        <mxCell id="9JdjApszrQxgqDDCPQc7-4" value="" style="endArrow=classic;html=1;rounded=0;strokeColor=#FF0000;strokeWidth=3;exitX=0.5;exitY=1;exitDx=0;exitDy=0;" parent="1" source="9JdjApszrQxgqDDCPQc7-5" edge="1">
          <mxGeometry width="50" height="50" relative="1" as="geometry">
            <mxPoint x="260" y="384" as="sourcePoint" />
            <mxPoint x="210" y="464" as="targetPoint" />
          </mxGeometry>
        </mxCell>
        <mxCell id="9JdjApszrQxgqDDCPQc7-5" value="&lt;font style=&quot;font-size: 20px;&quot;&gt;RealSense&lt;/font&gt;" style="rounded=0;whiteSpace=wrap;html=1;" parent="1" vertex="1">
          <mxGeometry x="200" y="600" width="120" height="30" as="geometry" />
        </mxCell>
        <mxCell id="9JdjApszrQxgqDDCPQc7-6" value="" style="endArrow=classic;html=1;rounded=0;strokeColor=#FF0000;strokeWidth=3;exitX=0.5;exitY=1;exitDx=0;exitDy=0;" parent="1" source="9JdjApszrQxgqDDCPQc7-7" edge="1">
          <mxGeometry width="50" height="50" relative="1" as="geometry">
            <mxPoint x="710" y="290" as="sourcePoint" />
            <mxPoint x="660" y="370" as="targetPoint" />
          </mxGeometry>
        </mxCell>
        <mxCell id="9JdjApszrQxgqDDCPQc7-7" value="&lt;span style=&quot;font-size: 20px;&quot;&gt;軟性手掌&lt;/span&gt;" style="rounded=0;whiteSpace=wrap;html=1;" parent="1" vertex="1">
          <mxGeometry x="520" y="600" width="120" height="30" as="geometry" />
        </mxCell>
        <mxCell id="9JdjApszrQxgqDDCPQc7-10" value="" style="endArrow=classic;html=1;rounded=0;strokeColor=#FF0000;strokeWidth=3;exitX=0.5;exitY=1;exitDx=0;exitDy=0;" parent="1" source="9JdjApszrQxgqDDCPQc7-11" edge="1">
          <mxGeometry width="50" height="50" relative="1" as="geometry">
            <mxPoint x="830" y="334" as="sourcePoint" />
            <mxPoint x="780" y="414" as="targetPoint" />
          </mxGeometry>
        </mxCell>
        <mxCell id="9JdjApszrQxgqDDCPQc7-11" value="&lt;span style=&quot;font-size: 20px;&quot;&gt;機器手臂&lt;/span&gt;" style="rounded=0;whiteSpace=wrap;html=1;" parent="1" vertex="1">
          <mxGeometry x="680" y="600" width="120" height="30" as="geometry" />
        </mxCell>
      </root>
    </mxGraphModel>
  </diagram>
</mxfile>
